KJV1611.ufo
<glyph name="exclam" format="2">
  <advance width="340"/>
  <unicode hex="0021"/>
  <outline>
    <contour>
      <point x="147.0" y="354.0" type="line"/>
      <point x="30.0" y="828.0" type="line"/>
      <point x="310.0" y="828.0" type="line"/>
      <point x="186.0" y="355.0" type="line"/>
    </contour>
    <contour>
      <point x="169.0" y="-2.0" type="line"/>
      <point x="47.0" y="120.0" type="line"/>
      <point x="169.0" y="243.0" type="line"/>
      <point x="291.0" y="120.0" type="line"/>
    </contour>
  </outline>
</glyph>
<glyph name="parenleft" format="2">
  <advance width="362"/>
  <unicode hex="0028"/>
  <outline>
    <contour>
      <point x="339.0" y="677.0" type="line"/>
      <point x="1.95463179271" y="523.409705627"/>
      <point x="13.2267680477" y="37.6534944262"/>
      <point x="347.0" y="-140.0" type="curve"/>
      <point x="310.0" y="-208.0" type="line"/>
      <point x="-76.4601825793" y="-1.35115237081"/>
      <point x="-90.5582876533" y="565.138230116"/>
      <point x="307.0" y="747.0" type="curve"/>
    </contour>
  </outline>
</glyph>
<glyph name="asterisk" format="2">
  <advance width="522"/>
  <unicode hex="002A"/>
  <outline>
    <contour>
      <point x="72.822265625" y="756.291992188" type="line"/>
      <point x="467.578125" y="561.88671875" type="line"/>
      <point x="427.885742188" y="481.77734375" type="line"/>
      <point x="33.3037109375" y="675.197265625" type="line"/>
    </contour>
    <contour>
      <point x="65.7763671875" y="491.038085938" type="line"/>
      <point x="370.234375" y="808.733398438" type="line"/>
      <point x="435.10546875" y="746.045898438" type="line"/>
      <point x="130.473632812" y="429.3359375" type="line"/>
    </contour>
    <contour>
      <point x="257.393554688" y="832.5" type="line"/>
      <point x="331.193359375" y="413.95703125" type="line"/>
      <point x="242.560546875" y="398.328125" type="line"/>
      <point x="168.760742188" y="816.872070312" type="line"/>
    </contour>
  </outline>
</glyph>
<glyph name="comma" format="2">
  <advance width="263"/>
  <unicode hex="002C"/>
  <outline>
    <contour>
      <point x="18.0" y="122.0" type="curve"/>
      <point x="31.0" y="128.0"/>
      <point x="49.0" y="139.0"/>
      <point x="65.0" y="153.0" type="curve" smooth="yes"/>
      <point x="83.0" y="167.0"/>
      <point x="93.0" y="181.0"/>
      <point x="101.0" y="194.0" type="curve"/>
      <point x="117.0" y="192.0"/>
      <point x="145.0" y="187.0"/>
      <point x="172.0" y="169.0" type="curve" smooth="yes"/>
      <point x="177.0" y="166.0"/>
      <point x="232.0" y="127.0"/>
      <point x="242.0" y="57.0" type="curve" smooth="yes"/>
      <point x="255.0" y="-36.0"/>
      <point x="177.0" y="-102.0"/>
      <point x="161.0" y="-116.0" type="curve" smooth="yes"/>
      <point x="108.0" y="-161.0"/>
      <point x="50.0" y="-169.0"/>
      <point x="26.0" y="-172.0" type="curve"/>
      <point x="26.0" y="-167.0"/>
      <point x="24.0" y="-161.0"/>
      <point x="24.0" y="-156.0" type="curve" smooth="yes"/>
      <point x="40.0" y="-148.0"/>
      <point x="66.0" y="-133.0"/>
      <point x="90.0" y="-107.0" type="curve" smooth="yes"/>
      <point x="112.0" y="-83.0"/>
      <point x="146.0" y="-46.0"/>
      <point x="146.0" y="5.0" type="curve" smooth="yes"/>
      <point x="146.0" y="19.0"/>
      <point x="147.0" y="60.0"/>
      <point x="113.0" y="84.0" type="curve" smooth="yes"/>
      <point x="76.0" y="110.0"/>
      <point x="31.0" y="91.0"/>
      <point x="28.0" y="89.0" type="curve"/>
      <point x="25.0" y="99.0"/>
      <point x="21.0" y="111.0"/>
    </contour>
  </outline>
</glyph>
<glyph name="one" format="2">
  <advance width="287"/>
  <unicode hex="0031"/>
  <outline>
    <contour>
      <point x="38.3473877343" y="591.500100754" type="line" smooth="yes"/>
      <point x="27.2242781887" y="591.500100754"/>
      <point x="18.2528555729" y="586.690530816"/>
      <point x="18.2528555729" y="576.515792405" type="curve" smooth="yes"/>
      <point x="18.2528555729" y="546.806584758"/>
      <point x="75.93359375" y="543.202101272"/>
      <point x="75.93359375" y="479.0" type="curve" smooth="yes"/>
      <point x="75.93359375" y="135.0" type="line" smooth="yes"/>
      <point x="75.93359375" y="70.8608419648"/>
      <point x="18.2528555729" y="67.1934152423"/>
      <point x="18.2528555729" y="37.484207595" type="curve" smooth="yes"/>
      <point x="18.2528555729" y="27.2685670432"/>
      <point x="27.2304502052" y="23.0"/>
      <point x="38.43359375" y="23.0" type="curve" smooth="yes"/>
      <point x="250.0" y="23.0" type="line" smooth="yes"/>
      <point x="261.195707783" y="23.0"/>
      <point x="270.180738177" y="27.7682201557"/>
      <point x="270.180738177" y="37.9842075958" type="curve" smooth="yes"/>
      <point x="270.180738177" y="67.5675287698"/>
      <point x="212.5" y="71.8643878575"/>
      <point x="212.5" y="135.5" type="curve" smooth="yes"/>
      <point x="212.5" y="478.5" type="line" smooth="yes"/>
      <point x="212.5" y="542.072668906"/>
      <point x="270.180738177" y="546.43247123"/>
      <point x="270.180738177" y="576.015792404" type="curve" smooth="yes"/>
      <point x="270.180738177" y="586.233224062"/>
      <point x="261.18236558" y="591.0"/>
      <point x="250.0" y="591.0" type="curve" smooth="yes"/>
    </contour>
  </outline>
</glyph>
<glyph name="seven" format="2">
  <advance width="733"/>
  <unicode hex="0037"/>
  <outline>
    <contour>
      <point x="91.5" y="335.919921875" type="line"/>
      <point x="11.0" y="334.225585938" type="line"/>
      <point x="136.09375" y="601.983398438" type="line"/>
      <point x="529.683233135" y="600.315796734"/>
      <point x="559.259795655" y="591.000487065"/>
      <point x="671.788085938" y="646.395507812" type="curve"/>
      <point x="689.697265625" y="629.595703125"/>
      <point x="725.12890625" y="587.024414062"/>
      <point x="718.122070312" y="575.896484375" type="curve" smooth="yes"/>
      <point x="552.557617188" y="311.715820312"/>
      <point x="462.596679688" y="56.0703125"/>
      <point x="378.638671875" y="-145.708984375" type="curve" smooth="yes"/>
      <point x="375.884026748" y="-152.714053054"/>
      <point x="355.647096684" y="-159.341130612"/>
      <point x="334.686922693" y="-159.341130612" type="curve" smooth="yes"/>
      <point x="324.75675353" y="-159.341130612"/>
      <point x="304.174915051" y="-155.687058768"/>
      <point x="304.174915051" y="-147.644892516" type="curve" smooth="yes"/>
      <point x="304.174915051" y="-83.1663941149"/>
      <point x="529.543945312" y="419.740234375"/>
      <point x="567.314453125" y="502.223632812" type="curve"/>
      <point x="567.314453125" y="502.223632812"/>
      <point x="425.834334913" y="445.900544553"/>
      <point x="326.945254305" y="445.900544553" type="curve" smooth="yes"/>
      <point x="249.512773363" y="445.900544553"/>
      <point x="170.830616735" y="453.058205791"/>
      <point x="147.8984375" y="454.389648438" type="curve"/>
    </contour>
  </outline>
</glyph>
<glyph name="nine" format="2">
  <advance width="518"/>
  <unicode hex="0039"/>
  <outline>
    <contour>
      <point x="275.151570208" y="594.754211184" type="curve" smooth="yes"/>
      <point x="397.880520649" y="594.754211184"/>
      <point x="490.723754779" y="479.14029245"/>
      <point x="490.723754779" y="340.080023138" type="curve" smooth="yes"/>
      <point x="490.723754779" y="94.0851669323"/>
      <point x="117.795455207" y="-76.1298464673"/>
      <point x="75.3262237239" y="-76.1298464673" type="curve" smooth="yes"/>
      <point x="61.4126950157" y="-76.1298464673"/>
      <point x="44.1184638017" y="-59.5467011838"/>
      <point x="44.1184638017" y="-42.3527683684" type="curve" smooth="yes"/>
      <point x="44.1184638017" y="8.25913943943"/>
      <point x="242.999888286" y="38.8063717308"/>
      <point x="329.204101562" y="232.630859375" type="curve"/>
      <point x="314.749105795" y="222.381873216"/>
      <point x="268.504393582" y="210.155918032"/>
      <point x="222.281369449" y="210.155918032" type="curve" smooth="yes"/>
      <point x="113.509471985" y="210.155918032"/>
      <point x="30.4550769501" y="269.242086804"/>
      <point x="30.4550769501" y="393.741339507" type="curve" smooth="yes"/>
      <point x="30.4550769501" y="522.863830547"/>
      <point x="135.000477646" y="594.754211184"/>
    </contour>
    <contour>
      <point x="258.195186123" y="512.70390437" type="curve" smooth="yes"/>
      <point x="201.494754075" y="512.70390437"/>
      <point x="159.00899283" y="466.227506854"/>
      <point x="159.00899283" y="411.847110009" type="curve" smooth="yes"/>
      <point x="159.00899283" y="365.227952356"/>
      <point x="188.704662861" y="309.261781478"/>
      <point x="250.610602263" y="309.261781478" type="curve" smooth="yes"/>
      <point x="300.745240665" y="309.261781478"/>
      <point x="358.5120864" y="341.789162106"/>
      <point x="358.5120864" y="403.857286563" type="curve" smooth="yes"/>
      <point x="358.5120864" y="463.113751749"/>
      <point x="313.286233572" y="512.70390437"/>
    </contour>
  </outline>
</glyph>
<glyph name="semicolon" format="2">
  <advance width="207"/>
  <unicode hex="003B"/>
  <outline>
    <contour>
      <point x="49.4319366271" y="192.958640386" type="curve" smooth="yes"/>
      <point x="49.4319366271" y="157.376036287"/>
      <point x="85.2317445715" y="148.39293284"/>
      <point x="85.2317445715" y="112.449488115" type="curve" smooth="yes"/>
      <point x="85.2317445715" y="60.5474656227"/>
      <point x="15.0283806001" y="66.6673320337"/>
      <point x="15.0283806001" y="14.1016116906" type="curve" smooth="yes"/>
      <point x="15.0283806001" y="-13.9017547674"/>
      <point x="38.2696428822" y="-31.0652907619"/>
      <point x="66.0633142599" y="-31.0652907619" type="curve" smooth="yes"/>
      <point x="125.259635141" y="-31.0652907619"/>
      <point x="191.278537615" y="47.389396878"/>
      <point x="191.278537615" y="118.620134642" type="curve" smooth="yes"/>
      <point x="191.278537615" y="180.381442112"/>
      <point x="140.0345882" y="232.641734003"/>
      <point x="93.1494819877" y="232.641734003" type="curve" smooth="yes"/>
      <point x="69.0281559381" y="232.641734003"/>
      <point x="49.4319366271" y="217.278384417"/>
    </contour>
    <contour>
      <point x="50.322265625" y="371.61328125" type="curve" smooth="yes"/>
      <point x="50.322265625" y="405.161132812"/>
      <point x="78.7099609375" y="432.2578125"/>
      <point x="113.548828125" y="432.2578125" type="curve" smooth="yes"/>
      <point x="148.38671875" y="432.2578125"/>
      <point x="176.774414062" y="405.161132812"/>
      <point x="176.774414062" y="371.61328125" type="curve" smooth="yes"/>
      <point x="176.774414062" y="338.064453125"/>
      <point x="148.38671875" y="310.967773438"/>
      <point x="113.548828125" y="310.967773438" type="curve" smooth="yes"/>
      <point x="78.7099609375" y="310.967773438"/>
      <point x="50.322265625" y="338.064453125"/>
    </contour>
  </outline>
</glyph>
<glyph name="B" format="2">
  <advance width="1206"/>
  <unicode hex="0042"/>
  <outline>
    <contour>
      <point x="609.0" y="747.0" type="line"/>
      <point x="609.0" y="747.0"/>
      <point x="640.212109822" y="769.111111111"/>
      <point x="656.407407407" y="769.111111111" type="curve" smooth="yes"/>
      <point x="664.111111111" y="769.111111111"/>
      <point x="669.0" y="766.0"/>
      <point x="669.0" y="766.0" type="curve"/>
      <point x="725.0" y="716.0" type="line"/>
      <point x="698.0" y="690.0" type="line"/>
      <point x="698.0" y="103.0" type="line"/>
      <point x="609.0" y="103.0" type="line"/>
    </contour>
    <contour>
      <point x="482.0" y="87.0" type="line"/>
      <point x="482.0" y="750.0" type="line"/>
      <point x="558.0" y="750.0" type="line"/>
      <point x="558.0" y="87.0" type="line"/>
    </contour>
    <contour>
      <point x="899.389512653" y="558.712575802" type="curve" smooth="yes"/>
      <point x="1040.42906811" y="558.712575802"/>
      <point x="1153.01695788" y="452.66597355"/>
      <point x="1153.01695788" y="310.791170529" type="curve" smooth="yes"/>
      <point x="1153.01695788" y="128.389394257"/>
      <point x="944.644087138" y="-29.7969412699"/>
      <point x="782.105080982" y="-29.7969412699" type="curve" smooth="yes"/>
      <point x="641.720861022" y="-29.7969412699"/>
      <point x="554.932757836" y="52.861410826"/>
      <point x="402.237921665" y="52.861410826" type="curve" smooth="yes"/>
      <point x="334.908516595" y="52.861410826"/>
      <point x="222.034036271" y="37.2672073618"/>
      <point x="97.6796875" y="-20.0322265625" type="curve"/>
      <point x="20.52734375" y="45.083984375" type="line"/>
      <point x="38.7369477473" y="61.2279045905"/>
      <point x="300.647660077" y="267.363647243"/>
      <point x="300.647660077" y="484.934472842" type="curve" smooth="yes"/>
      <point x="300.647660077" y="561.440109402"/>
      <point x="260.441533034" y="619.341050956"/>
      <point x="199.274434856" y="619.341050956" type="curve" smooth="yes"/>
      <point x="120.898381284" y="619.341050956"/>
      <point x="136.552405322" y="519.975799118"/>
      <point x="64.8624605859" y="519.975799118" type="curve" smooth="yes"/>
      <point x="38.3270253746" y="519.975799118"/>
      <point x="19.1325637306" y="538.921249213"/>
      <point x="19.1325637306" y="565.557690914" type="curve" smooth="yes"/>
      <point x="19.1325637306" y="609.263635619"/>
      <point x="129.903513744" y="773.6039518"/>
      <point x="292.512530726" y="773.6039518" type="curve" smooth="yes"/>
      <point x="415.161516513" y="773.6039518"/>
      <point x="460.17860789" y="662.9099084"/>
      <point x="460.17860789" y="557.868945324" type="curve" smooth="yes"/>
      <point x="460.17860789" y="471.36479125"/>
      <point x="443.005390862" y="357.16810922"/>
      <point x="240.281330829" y="128.877929688" type="curve"/>
      <point x="329.625246349" y="157.883479542"/>
      <point x="439.935066164" y="184.092487902"/>
      <point x="546.717694643" y="184.092487902" type="curve" smooth="yes"/>
      <point x="699.258896399" y="184.092487902"/>
      <point x="848.548291585" y="122.799201073"/>
      <point x="912.158590293" y="122.799201073" type="curve" smooth="yes"/>
      <point x="971.58710364" y="122.799201073"/>
      <point x="1008.77739357" y="167.327285155"/>
      <point x="1008.77739357" y="226.43279511" type="curve" smooth="yes"/>
      <point x="1008.77739357" y="307.083356099"/>
      <point x="939.581222228" y="415.696357795"/>
      <point x="797.655137364" y="415.696357795" type="curve" smooth="yes"/>
      <point x="738.544676582" y="415.696357795"/>
      <point x="696.894035884" y="395.812347643"/>
      <point x="668.139562967" y="395.812347643" type="curve" smooth="yes"/>
      <point x="643.50963342" y="395.812347643"/>
      <point x="612.406177861" y="410.490515682"/>
      <point x="612.406177861" y="434.842431432" type="curve" smooth="yes"/>
      <point x="612.406177861" y="445.225699232"/>
      <point x="616.069639136" y="460.487198926"/>
      <point x="646.044418378" y="475.923828125" type="curve" smooth="yes"/>
      <point x="716.613807344" y="512.294897782"/>
      <point x="797.535074248" y="558.712575802"/>
    </contour>
    <contour>
      <point x="642.376953125" y="532.0" type="line"/>
      <point x="635.0" y="653.153320312" type="line"/>
      <point x="703.10055936" y="713.14878088"/>
      <point x="772.799481891" y="773.082711474"/>
      <point x="843.308070902" y="833.0" type="curve"/>
      <point x="922.415824556" y="833.0" type="line"/>
      <point x="951.195601831" y="758.941749952"/>
      <point x="1040.17341537" y="718.027508986"/>
      <point x="1118.79199219" y="763.0" type="curve"/>
      <point x="1162.12011719" y="763.0" type="line"/>
      <point x="1162.12011719" y="714.448242188" type="line"/>
      <point x="823.113511137" y="476.0" type="line"/>
      <point x="745.916015625" y="476.0" type="line"/>
      <point x="925.301484381" y="616.184570312" type="line"/>
      <point x="823.410980979" y="703.288085938" type="line"/>
      <point x="800.024105184" y="694.870169597"/>
      <point x="709.394426597" y="660.72461159"/>
      <point x="701.834960938" y="532.0" type="curve"/>
    </contour>
  </outline>
</glyph>
<glyph name="E" format="2">
  <advance width="857"/>
  <unicode hex="0045"/>
  <outline>
    <contour>
      <point x="453.4609375" y="135.474609375" type="line"/>
      <point x="453.4609375" y="797.079101562" type="line"/>
      <point x="533.368164062" y="765.079101562" type="line"/>
      <point x="533.368164062" y="103.474609375" type="line"/>
    </contour>
    <contour>
      <point x="490.180664062" y="691.185546875" type="line"/>
      <point x="627.783203125" y="821.700195312" type="line" smooth="yes"/>
      <point x="632.817382812" y="826.473632812" type="line"/>
      <point x="752.657226562" y="748.465820312" type="line"/>
      <point x="784.546875" y="767.98046875" type="line"/>
      <point x="841.53125" y="717.659179688" type="line"/>
      <point x="654.73828125" y="605.182617188" type="line"/>
      <point x="551.477539062" y="672.546875" type="line"/>
      <point x="520.799804688" y="647.340820312" type="line" smooth="yes"/>
    </contour>
    <contour>
      <point x="639.052734375" y="578.278320312" type="line"/>
      <point x="845.046875" y="578.278320312" type="line"/>
      <point x="726.485351562" y="436.388671875" type="line"/>
      <point x="512.495117188" y="436.388671875" type="line"/>
    </contour>
    <contour>
      <point x="186.297851562" y="700.390625" type="curve"/>
      <point x="432.634765625" y="830.16796875" type="line"/>
      <point x="447.840820312" y="830.067382812" type="line"/>
      <point x="533.368164062" y="765.079101562" type="line"/>
      <point x="400.010742188" y="690.689453125" type="line"/>
      <point x="400.010742188" y="344.4140625" type="line"/>
      <point x="396.3359375" y="341.940429688" type="line"/>
      <point x="246.983398438" y="241.46875" type="line"/>
      <point x="259.2109375" y="228.04296875"/>
      <point x="272.745117188" y="215.68359375"/>
      <point x="287.35546875" y="204.620117188" type="curve" smooth="yes"/>
      <point x="364.346679688" y="146.319335938"/>
      <point x="470.9296875" y="126.056640625"/>
      <point x="567.188476562" y="147.2109375" type="curve" smooth="yes"/>
      <point x="655.130859375" y="166.536132812"/>
      <point x="733.827148438" y="219.474609375"/>
      <point x="781.426757812" y="291.462890625" type="curve" smooth="yes"/>
      <point x="788.49609375" y="302.15625" type="line"/>
      <point x="795.58203125" y="291.471679688" type="line"/>
      <point x="816.5703125" y="259.815429688" type="line"/>
      <point x="818.78515625" y="256.475585938" type="line"/>
      <point x="817.5" y="252.6953125" type="line" smooth="yes"/>
      <point x="787.408203125" y="164.103515625"/>
      <point x="723.798828125" y="87.048828125"/>
      <point x="639.54296875" y="39.7197265625" type="curve" smooth="yes"/>
      <point x="572.608398438" y="2.3125"/>
      <point x="494.444335938" y="-16.4853515625"/>
      <point x="416.850585938" y="-13.9375" type="curve" smooth="yes"/>
      <point x="339.255859375" y="-11.3896484375"/>
      <point x="262.678710938" y="12.478515625"/>
      <point x="198.512695312" y="54.009765625" type="curve" smooth="yes"/>
      <point x="135.013671875" y="95.5439453125"/>
      <point x="85.1826171875" y="154.497070312"/>
      <point x="55.0224609375" y="222.091796875" type="curve" smooth="yes"/>
      <point x="24.86328125" y="289.686523438"/>
      <point x="14.53125" y="365.541015625"/>
      <point x="25.443359375" y="438.532226562" type="curve" smooth="yes"/>
      <point x="40.900390625" y="541.91796875"/>
      <point x="99.0078125" y="638.98828125"/>
    </contour>
    <contour>
      <point x="198.454101562" y="313.110351562" type="curve" smooth="yes"/>
      <point x="198.751953125" y="312.43359375"/>
      <point x="199.053710938" y="311.7578125"/>
      <point x="199.357421875" y="311.083007812" type="curve" smooth="yes"/>
      <point x="284.380859375" y="371.545898438" type="line"/>
      <point x="284.380859375" y="634.07421875" type="line"/>
      <point x="251.880859375" y="604.94921875" type="line"/>
      <point x="211.40625" y="563.556640625"/>
      <point x="184.38671875" y="509.564453125"/>
      <point x="177.39453125" y="452.958984375" type="curve" smooth="yes"/>
      <point x="171.55859375" y="405.712890625"/>
      <point x="179.122070312" y="356.938476562"/>
    </contour>
  </outline>
</glyph>
<glyph name="G" format="2">
  <advance width="1045"/>
  <unicode hex="0047"/>
  <outline>
    <contour>
      <point x="771.359375" y="601.724609375" type="curve"/>
      <point x="898.405938575" y="594.098565184"/>
      <point x="1010.11631523" y="490.918280195"/>
      <point x="1010.11631523" y="354.553927424" type="curve" smooth="yes"/>
      <point x="1010.11631523" y="139.0"/>
      <point x="658.0" y="0.0"/>
      <point x="449.023893133" y="-1.36147682778" type="curve" smooth="yes"/>
      <point x="184.978906616" y="-3.08172674546"/>
      <point x="29.1299147906" y="178.780827883"/>
      <point x="29.1299147906" y="355.018533484" type="curve" smooth="yes"/>
      <point x="29.1299147906" y="615.114512192"/>
      <point x="431.395013755" y="823.928115639"/>
      <point x="621.013372426" y="823.928115639" type="curve" smooth="yes"/>
      <point x="734.197516417" y="823.928115639"/>
      <point x="818.852619294" y="761.161072381"/>
      <point x="865.218896102" y="761.161072381" type="curve" smooth="yes"/>
      <point x="878.045764109" y="761.161072381"/>
      <point x="886.931781056" y="766.31983344"/>
      <point x="893.018554688" y="774.165039062" type="curve"/>
      <point x="990.633789062" y="750.75390625" type="line"/>
      <point x="930.285879998" y="704.758106577"/>
      <point x="856.597376285" y="665.489945297"/>
      <point x="778.073242188" y="641.0703125" type="curve"/>
      <point x="718.037506362" y="673.44813116"/>
      <point x="657.746231698" y="692.057456882"/>
      <point x="577.343335257" y="692.057456882" type="curve" smooth="yes"/>
      <point x="438.253135815" y="692.057456882"/>
      <point x="236.266323533" y="603.362360633"/>
      <point x="236.266323533" y="416.528414972" type="curve" smooth="yes"/>
      <point x="236.266323533" y="293.875675427"/>
      <point x="360.885545863" y="109.771611494"/>
      <point x="581.557838768" y="109.771611494" type="curve" smooth="yes"/>
      <point x="668.23780371" y="109.771611494"/>
      <point x="850.898243537" y="155.398019289"/>
      <point x="850.898243537" y="285.686049068" type="curve" smooth="yes"/>
      <point x="850.898243537" y="368.803050137"/>
      <point x="770.501005152" y="472.961316895"/>
      <point x="624.352250816" y="472.961316895" type="curve" smooth="yes"/>
      <point x="599.178777142" y="472.961316895"/>
      <point x="574.004762075" y="469.644765192"/>
      <point x="549.694335938" y="463.106445312" type="curve"/>
      <point x="561.793945312" y="516.545898438" type="line"/>
      <point x="649.023437415" y="522.143339881"/>
      <point x="718.154568879" y="556.175762539"/>
    </contour>
    <contour>
      <point x="889.1796875" y="790.01171875" type="curve" smooth="yes"/>
      <point x="889.1796875" y="822.185546875"/>
      <point x="915.262695312" y="848.268554688"/>
      <point x="947.436523438" y="848.268554688" type="curve" smooth="yes"/>
      <point x="979.611328125" y="848.268554688"/>
      <point x="1005.69335938" y="822.185546875"/>
      <point x="1005.69335938" y="790.01171875" type="curve" smooth="yes"/>
      <point x="1005.69335938" y="757.836914062"/>
      <point x="979.611328125" y="731.754882812"/>
      <point x="947.436523438" y="731.754882812" type="curve" smooth="yes"/>
      <point x="915.262695312" y="731.754882812"/>
      <point x="889.1796875" y="757.836914062"/>
    </contour>
    <contour>
      <point x="511.766601562" y="82.966796875" type="line"/>
      <point x="511.766601562" y="701.327148438" type="line"/>
      <point x="586.50390625" y="701.327148438" type="line"/>
      <point x="586.50390625" y="82.966796875" type="line"/>
    </contour>
    <contour>
      <point x="379.78515625" y="127.3828125" type="line"/>
      <point x="379.78515625" y="850.114257812" type="line"/>
      <point x="454.522460938" y="850.114257812" type="line"/>
      <point x="454.522460938" y="127.3828125" type="line"/>
    </contour>
  </outline>
</glyph>
<glyph name="H" format="2">
  <advance width="839"/>
  <unicode hex="0048"/>
  <outline>
    <contour>
      <point x="189.0" y="696.0" type="line"/>
      <point x="206.477688455" y="770.201798845"/>
      <point x="275.009091063" y="833.194086355"/>
      <point x="363.550493981" y="833.194086355" type="curve" smooth="yes"/>
      <point x="377.841786847" y="833.194086355"/>
      <point x="392.124028504" y="831.491097019"/>
      <point x="406.0" y="828.0" type="curve"/>
      <point x="406.0" y="770.0" type="line"/>
      <point x="398.450567421" y="773.275915607"/>
      <point x="390.231804574" y="774.890184472"/>
      <point x="382.00700176" y="774.890184472" type="curve" smooth="yes"/>
      <point x="359.464203983" y="774.890184472"/>
      <point x="308.0" y="765.365780786"/>
      <point x="308.0" y="655.0" type="curve"/>
    </contour>
    <contour>
      <point x="216.698797888" y="707.540874606" type="curve" smooth="yes"/>
      <point x="216.698797888" y="704.018804347"/>
      <point x="216.468918199" y="700.496275069"/>
      <point x="216.0" y="697.0" type="curve"/>
      <point x="141.0" y="663.0" type="line"/>
      <point x="141.002017383" y="663.208850505"/>
      <point x="141.00302489" y="663.417705745"/>
      <point x="141.00302489" y="663.626556768" type="curve" smooth="yes"/>
      <point x="141.00302489" y="709.507089584"/>
      <point x="94.7102248338" y="741.992747551"/>
      <point x="30.0" y="743.0" type="curve"/>
      <point x="31.0" y="804.0" type="line"/>
      <point x="115.0" y="804.0"/>
      <point x="216.698797888" y="786.0"/>
    </contour>
    <contour>
      <point x="537.984828932" y="-50.1827677221" type="curve" smooth="yes"/>
      <point x="537.984828932" y="-79.1269224366"/>
      <point x="558.253893241" y="-100.719589906"/>
      <point x="584.0" y="-104.0" type="curve"/>
      <point x="480.0" y="-180.0" type="line"/>
      <point x="448.62470793" y="-171.13674596"/>
      <point x="422.985166029" y="-141.18318076"/>
      <point x="422.985166029" y="-102.396852823" type="curve" smooth="yes"/>
      <point x="422.985166029" y="11.1646863202"/>
      <point x="643.904676811" y="57.165974555"/>
      <point x="643.904676811" y="350.020485597" type="curve" smooth="yes"/>
      <point x="643.904676811" y="496.318024019"/>
      <point x="555.419717215" y="619.282237741"/>
      <point x="414.0" y="628.0" type="curve"/>
      <point x="546.0" y="728.0" type="line"/>
      <point x="697.648772288" y="689.939967481"/>
      <point x="793.507571689" y="541.067433449"/>
      <point x="793.507571689" y="356.142158864" type="curve" smooth="yes"/>
      <point x="793.507571689" y="45.4810084463"/>
      <point x="537.984828932" y="62.3485674505"/>
    </contour>
    <contour>
      <point x="63.0" y="64.0" type="line"/>
      <point x="132.469367805" y="96.6276228385"/>
      <point x="196.225624202" y="135.519694448"/>
      <point x="255.0" y="180.0" type="curve"/>
      <point x="363.0" y="142.0" type="line"/>
      <point x="437.0" y="142.0" type="line"/>
      <point x="317.0" y="-10.0" type="line"/>
      <point x="266.0" y="-10.0" type="line"/>
      <point x="218.54022188" y="25.4016977418"/>
      <point x="162.320146167" y="45.1902959375"/>
      <point x="99.7114907286" y="45.1902959375" type="curve" smooth="yes"/>
      <point x="91.1288223456" y="45.1902959375"/>
      <point x="82.5462167051" y="44.7932931989"/>
      <point x="74.0" y="44.0" type="curve"/>
    </contour>
    <contour>
      <point x="58.0" y="47.0" type="move" smooth="yes"/>
    </contour>
    <contour>
      <point x="363.0" y="369.0" type="line"/>
      <point x="363.0" y="443.0" type="line"/>
      <point x="667.0" y="443.0" type="line"/>
      <point x="667.0" y="369.0" type="line"/>
    </contour>
    <contour>
      <point x="363.0" y="241.0" type="line"/>
      <point x="363.0" y="315.0" type="line"/>
      <point x="668.0" y="315.0" type="line"/>
      <point x="668.0" y="241.0" type="line"/>
    </contour>
    <contour>
      <point x="141.0" y="80.0" type="line"/>
      <point x="141.0" y="708.0" type="line"/>
      <point x="308.0" y="708.0" type="line"/>
      <point x="308.0" y="80.0" type="line"/>
    </contour>
    <contour>
      <point x="188.0" y="234.0" type="curve"/>
      <point x="177.908712546" y="284.45643727"/>
      <point x="156.2321869" y="330.0"/>
      <point x="22.0" y="330.0" type="curve"/>
      <point x="29.0" y="370.0" type="line"/>
      <point x="56.2671716682" y="384.351142983"/>
      <point x="112.227850812" y="409.968173675"/>
      <point x="191.727796329" y="409.968173675" type="curve" smooth="yes"/>
      <point x="202.064430874" y="409.968173675"/>
      <point x="211.548128599" y="409.563458093"/>
      <point x="220.0" y="409.0" type="curve"/>
      <point x="210.0" y="351.0"/>
      <point x="198.0" y="292.0"/>
    </contour>
    <contour>
      <point x="159.0" y="442.0" type="curve"/>
      <point x="129.014952374" y="460.740654766"/>
      <point x="98.5363891243" y="479.103024639"/>
      <point x="36.0" y="493.0" type="curve"/>
      <point x="37.0" y="506.0"/>
      <point x="37.0" y="517.0"/>
      <point x="38.0" y="530.0" type="curve"/>
      <point x="62.8994111784" y="531.464671246"/>
      <point x="117.055225845" y="540.907165619"/>
      <point x="169.0" y="579.0" type="curve"/>
      <point x="165.0" y="534.0"/>
      <point x="163.0" y="488.0"/>
    </contour>
    <contour>
      <point x="363.0" y="142.0" type="line"/>
      <point x="363.0" y="828.0" type="line"/>
      <point x="437.0" y="828.0" type="line"/>
      <point x="437.0" y="142.0" type="line"/>
    </contour>
  </outline>
</glyph>
<glyph name="I" format="2">
  <advance width="514"/>
  <unicode hex="0049"/>
  <outline>
    <contour>
      <point x="169.967389816" y="826.011419467" type="curve" smooth="yes"/>
      <point x="242.407159393" y="826.011419467"/>
      <point x="259.876473793" y="781.762763123"/>
      <point x="333.337378968" y="781.762763123" type="curve" smooth="yes"/>
      <point x="388.172079004" y="781.762763123"/>
      <point x="433.756889488" y="806.27773781"/>
      <point x="465.0" y="829.0" type="curve"/>
      <point x="474.0" y="821.0"/>
      <point x="482.0" y="813.0"/>
      <point x="491.0" y="805.0" type="curve"/>
      <point x="396.943319984" y="734.013826403"/>
      <point x="241.372510781" y="681.343145751"/>
      <point x="179.56828099" y="681.343145751" type="curve" smooth="yes"/>
      <point x="141.273012548" y="681.343145751"/>
      <point x="108.585315053" y="695.079525675"/>
      <point x="83.6739368738" y="695.079525675" type="curve" smooth="yes"/>
      <point x="46.2303692011" y="695.079525675"/>
      <point x="22.1302338019" y="664.787082314"/>
      <point x="11.0" y="645.0" type="curve"/>
      <point x="-3.0" y="649.0"/>
      <point x="-16.0" y="653.0"/>
      <point x="-30.0" y="657.0" type="curve"/>
      <point x="-8.98854287137" y="767.310149925"/>
      <point x="86.9109926928" y="826.011419467"/>
    </contour>
    <contour>
      <point x="162.0" y="80.0" type="line"/>
      <point x="162.0" y="756.0" type="line"/>
      <point x="328.0" y="756.0" type="line"/>
      <point x="328.0" y="80.0" type="line"/>
    </contour>
    <contour>
      <point x="192.0" y="263.0" type="curve"/>
      <point x="189.346597295" y="276.267013526"/>
      <point x="183.249697584" y="364.616060628"/>
      <point x="26.0" y="359.0" type="curve"/>
      <point x="32.0" y="399.0" type="line"/>
      <point x="69.4723230402" y="418.722275284"/>
      <point x="131.904833112" y="444.073011126"/>
      <point x="223.0" y="438.0" type="curve"/>
      <point x="213.0" y="380.0"/>
      <point x="202.0" y="321.0"/>
    </contour>
    <contour>
      <point x="180.0" y="462.0" type="curve"/>
      <point x="150.014952374" y="480.740654766"/>
      <point x="119.536389124" y="499.103024639"/>
      <point x="57.0" y="513.0" type="curve"/>
      <point x="59.0" y="550.0" type="line"/>
      <point x="87.7363651789" y="551.690374422"/>
      <point x="141.735017095" y="562.872345869"/>
      <point x="191.0" y="599.0" type="curve"/>
      <point x="187.0" y="554.0"/>
      <point x="184.0" y="508.0"/>
    </contour>
    <contour>
      <point x="319.0" y="-5.0" type="curve"/>
      <point x="315.519642803" y="-3.80935148519"/>
      <point x="208.675544899" y="37.049477756"/>
      <point x="109.596414178" y="37.049477756" type="curve" smooth="yes"/>
      <point x="58.8931864415" y="37.049477756"/>
      <point x="58.56" y="73.496131666"/>
      <point x="58.56" y="75.52" type="curve" smooth="yes"/>
      <point x="58.56" y="119.277667059"/>
      <point x="162.0" y="84.0"/>
      <point x="162.0" y="169.0" type="curve"/>
      <point x="326.633147171" y="169.0" type="line" smooth="yes"/>
      <point x="376.0" y="169.0"/>
      <point x="401.405853496" y="211.735191059"/>
      <point x="411.0" y="246.0" type="curve"/>
      <point x="432.0" y="231.0"/>
      <point x="454.0" y="216.0"/>
      <point x="475.0" y="201.0" type="curve"/>
      <point x="423.0" y="132.0"/>
      <point x="371.0" y="64.0"/>
    </contour>
    <contour>
      <point x="383.0" y="186.0" type="line"/>
      <point x="383.0" y="785.0" type="line"/>
      <point x="457.0" y="785.0" type="line"/>
      <point x="457.0" y="186.0" type="line"/>
    </contour>
    <contour>
      <point x="475.0" y="201.0" type="line"/>
      <point x="446.0" y="199.0" type="line"/>
      <point x="447.0" y="238.0" type="line"/>
      <point x="475.0" y="214.0" type="line"/>
    </contour>
  </outline>
</glyph>
<glyph name="J" format="2">
  <advance width="905"/>
  <unicode hex="004A"/>
  <outline>
    <contour>
      <point x="663.970685254" y="727.275882759" type="curve" smooth="yes"/>
      <point x="664.779362948" y="727.275882759"/>
      <point x="665.33163189" y="726.996257272"/>
      <point x="665.33163189" y="726.223051826" type="curve" smooth="yes"/>
      <point x="665.33163189" y="713.847689956"/>
      <point x="592.0" y="650.623521475"/>
      <point x="592.0" y="484.681169118" type="curve" smooth="yes"/>
      <point x="592.0" y="243.183213097" type="line" smooth="yes"/>
      <point x="592.0" y="160.114495853"/>
      <point x="611.672957181" y="41.0047178855"/>
      <point x="449.0" y="-81.0" type="curve"/>
      <point x="480.47565364" y="151.919836937"/>
      <point x="424.915148629" y="263.674696553"/>
      <point x="424.915148629" y="350.912336987" type="curve" smooth="yes"/>
      <point x="424.915148629" y="559.107266642"/>
      <point x="644.419805339" y="727.275882759"/>
    </contour>
    <contour>
      <point x="536.784263946" y="185.889899706" type="curve" smooth="yes"/>
      <point x="536.784263946" y="153.217554324"/>
      <point x="529.602912083" y="119.489410434"/>
      <point x="514.019790129" y="119.489410434" type="curve" smooth="yes"/>
      <point x="494.661279348" y="119.489410434"/>
      <point x="460.748152496" y="201.052486415"/>
      <point x="373.092092" y="201.052486415" type="curve" smooth="yes"/>
      <point x="354.207244906" y="201.052486415"/>
      <point x="337.154758491" y="197.147184906"/>
      <point x="323.0" y="192.0" type="curve"/>
      <point x="318.0" y="200.0"/>
      <point x="312.0" y="207.0"/>
      <point x="307.0" y="215.0" type="curve"/>
      <point x="339.404848576" y="255.50606072"/>
      <point x="413.457986576" y="304.172376679"/>
      <point x="461.272283833" y="304.172376679" type="curve" smooth="yes"/>
      <point x="519.165078021" y="304.172376679"/>
      <point x="536.784263946" y="237.823231988"/>
    </contour>
    <contour>
      <point x="455.0" y="331.0" type="curve"/>
      <point x="411.484967604" y="371.795342871"/>
      <point x="328.092598256" y="417.479799524"/>
      <point x="220.0" y="388.0" type="curve"/>
      <point x="214.0" y="406.0" type="line"/>
      <point x="285.399996888" y="501.19999585"/>
      <point x="405.419926637" y="525.290036681"/>
      <point x="504.0" y="476.0" type="curve"/>
      <point x="488.0" y="428.0"/>
      <point x="471.0" y="379.0"/>
    </contour>
    <contour>
      <point x="194.845934283" y="543.881933203" type="curve" smooth="yes"/>
      <point x="194.845934283" y="516.794577185"/>
      <point x="153.945561012" y="493.141742678"/>
      <point x="121.151177038" y="493.141742678" type="curve" smooth="yes"/>
      <point x="72.4119394513" y="493.141742678"/>
      <point x="19.1123516375" y="528.623912822"/>
      <point x="19.1123516375" y="584.728050445" type="curve" smooth="yes"/>
      <point x="19.1123516375" y="694.651871306"/>
      <point x="183.0" y="837.164086977"/>
      <point x="372.034125757" y="837.164086977" type="curve" smooth="yes"/>
      <point x="472.059845023" y="837.164086977"/>
      <point x="552.936843465" y="759.773480892"/>
      <point x="662.998588076" y="759.773480892" type="curve" smooth="yes"/>
      <point x="713.715107043" y="759.773480892"/>
      <point x="778.343571361" y="822.804616616"/>
      <point x="837.51284349" y="822.804616616" type="curve" smooth="yes"/>
      <point x="873.0" y="822.804616616"/>
      <point x="887.147339459" y="794.0"/>
      <point x="887.147339459" y="770.812419566" type="curve" smooth="yes"/>
      <point x="887.147339459" y="715.024234152"/>
      <point x="817.596366471" y="724.329481481"/>
      <point x="817.596366471" y="542.653466749" type="curve" smooth="yes"/>
      <point x="817.596366471" y="456.682902244"/>
      <point x="842.18810007" y="352.999656208"/>
      <point x="842.18810007" y="257.082377221" type="curve" smooth="yes"/>
      <point x="842.18810007" y="60.111093775"/>
      <point x="736.969154207" y="21.6654944321"/>
      <point x="555.0" y="-93.0" type="curve" smooth="yes"/>
      <point x="445.727921788" y="-161.594151287"/>
      <point x="388.622274408" y="-172.296287868"/>
      <point x="354.760229335" y="-172.296287868" type="curve" smooth="yes"/>
      <point x="271.101746685" y="-172.296287868"/>
      <point x="255.332932618" y="-130.252376847"/>
      <point x="96.7303925951" y="-130.252376847" type="curve" smooth="yes"/>
      <point x="80.7362142881" y="-130.252376847"/>
      <point x="66.6783491395" y="-130.938331896"/>
      <point x="55.0" y="-132.0" type="curve"/>
      <point x="48.0" y="-112.0" type="line"/>
      <point x="65.9435418212" y="-100.037638786"/>
      <point x="206.141215361" y="-9.73359855061"/>
      <point x="301.515192221" y="-9.73359855061" type="curve" smooth="yes"/>
      <point x="364.051331817" y="-9.73359855061"/>
      <point x="389.39563788" y="-41.032930375"/>
      <point x="447.260258568" y="-41.032930375" type="curve" smooth="yes"/>
      <point x="591.264568438" y="-41.032930375"/>
      <point x="655.816767252" y="64.8053570301"/>
      <point x="655.816767252" y="312.876172924" type="curve" smooth="yes"/>
      <point x="655.816767252" y="339.675125014"/>
      <point x="653.502126932" y="366.464209448"/>
      <point x="653.502126932" y="393.184358502" type="curve" smooth="yes"/>
      <point x="653.502126932" y="470.613922097"/>
      <point x="663.0" y="640.559570312"/>
      <point x="744.0" y="710.0" type="curve"/>
      <point x="708.31413928" y="683.23560446"/>
      <point x="647.694424309" y="646.656228473"/>
      <point x="571.203831328" y="646.656228473" type="curve" smooth="yes"/>
      <point x="483.295060625" y="646.656228473"/>
      <point x="432.678285044" y="702.403332522"/>
      <point x="303.579150604" y="702.403332522" type="curve" smooth="yes"/>
      <point x="249.737044303" y="702.403332522"/>
      <point x="114.370099438" y="695.43126206"/>
      <point x="114.370099438" y="610.813540268" type="curve" smooth="yes"/>
      <point x="114.370099438" y="545.684377756"/>
      <point x="194.845934283" y="576.562816535"/>
    </contour>
  </outline>
</glyph>
<glyph name="O" format="2">
  <advance width="1056"/>
  <unicode hex="004F"/>
  <outline>
    <contour>
      <point x="197.25185243" y="61.8834254517" type="curve" smooth="yes"/>
      <point x="136.582139394" y="61.8834254517"/>
      <point x="79.1470473614" y="39.3223465224"/>
      <point x="50.0" y="23.0" type="curve"/>
      <point x="19.0" y="62.0" type="line"/>
      <point x="108.747579435" y="185.182952166"/>
      <point x="162.862557963" y="241.328009423"/>
      <point x="214.877992477" y="241.328009423" type="curve" smooth="yes"/>
      <point x="245.031908887" y="241.328009423"/>
      <point x="475.214426504" y="151.355937916"/>
      <point x="643.249557466" y="151.355937916" type="curve" smooth="yes"/>
      <point x="772.631869257" y="151.355937916"/>
      <point x="858.527734159" y="275.196258983"/>
      <point x="858.527734159" y="395.182090029" type="curve" smooth="yes"/>
      <point x="858.527734159" y="504.337545662"/>
      <point x="784.266295427" y="674.784533235"/>
      <point x="560.73589252" y="674.784533235" type="curve" smooth="yes"/>
      <point x="453.116484383" y="674.784533235"/>
      <point x="242.717773438" y="622.852539062"/>
      <point x="242.717773438" y="501.178710938" type="curve" smooth="yes"/>
      <point x="242.717773438" y="451.887695312"/>
      <point x="285.488477886" y="415.996868006"/>
      <point x="341.573577572" y="415.996868006" type="curve" smooth="yes"/>
      <point x="372.483742132" y="415.996868006"/>
      <point x="403.43545343" y="419.397016088"/>
      <point x="421.0" y="423.0" type="curve"/>
      <point x="453.0" y="378.0" type="line"/>
      <point x="236.0" y="268.0" type="line"/>
      <point x="146.478588938" y="302.10339469"/>
      <point x="86.0" y="381.284334365"/>
      <point x="86.0" y="453.0" type="curve" smooth="yes"/>
      <point x="86.0" y="496.977630748"/>
      <point x="115.545511226" y="603.256523871"/>
      <point x="354.0" y="731.0" type="curve" smooth="yes"/>
      <point x="443.441083616" y="778.351161915"/>
      <point x="517.798438919" y="825.239987495"/>
      <point x="635.317997523" y="825.239987495" type="curve" smooth="yes"/>
      <point x="886.100101967" y="825.239987495"/>
      <point x="1038.28097181" y="601.024622599"/>
      <point x="1038.28097181" y="466.794774581" type="curve" smooth="yes"/>
      <point x="1038.28097181" y="307.993035841"/>
      <point x="907.522815807" y="217.100825452"/>
      <point x="820.0" y="150.0" type="curve" smooth="yes"/>
      <point x="686.068611957" y="47.0609992724"/>
      <point x="626.779391978" y="-1.77471561308"/>
      <point x="550.481735944" y="-1.77471561308" type="curve" smooth="yes"/>
      <point x="448.189479118" y="-1.77471561308"/>
      <point x="270.431693084" y="61.8834254517"/>
    </contour>
    <contour>
      <point x="409.0" y="124.0" type="line"/>
      <point x="409.0" y="696.0" type="line"/>
      <point x="470.0" y="696.0" type="line"/>
      <point x="470.0" y="124.0" type="line"/>
    </contour>
    <contour>
      <point x="527.0" y="134.0" type="line"/>
      <point x="527.0" y="687.0" type="line"/>
      <point x="588.0" y="687.0" type="line"/>
      <point x="588.0" y="134.0" type="line"/>
    </contour>
  </outline>
</glyph>
<glyph name="U" format="2">
  <advance width="985"/>
  <unicode hex="0055"/>
  <outline>
    <contour>
      <point x="359.0" y="124.0" type="line"/>
      <point x="359.0" y="696.0" type="line"/>
      <point x="420.0" y="696.0" type="line"/>
      <point x="420.0" y="124.0" type="line"/>
    </contour>
    <contour>
      <point x="466.0" y="145.0" type="line"/>
      <point x="466.0" y="717.0" type="line"/>
      <point x="527.0" y="717.0" type="line"/>
      <point x="527.0" y="145.0" type="line"/>
    </contour>
    <contour>
      <point x="837.9609375" y="806.953125" type="line" smooth="yes"/>
      <point x="858.919788238" y="806.953125"/>
      <point x="927.05361924" y="787.772840594"/>
      <point x="927.05361924" y="735.774972577" type="curve" smooth="yes"/>
      <point x="927.05361924" y="682.646001563"/>
      <point x="871.993985442" y="679.972229855"/>
      <point x="871.993985442" y="506.155225922" type="curve" smooth="yes"/>
      <point x="871.993985442" y="409.224555802"/>
      <point x="873.582412256" y="333.13389567"/>
      <point x="892.0" y="231.0" type="curve"/>
      <point x="908.0" y="234.0"/>
      <point x="925.0" y="238.0"/>
      <point x="940.0" y="241.0" type="curve"/>
      <point x="950.0" y="233.0"/>
      <point x="958.0" y="227.0"/>
      <point x="966.0" y="221.0" type="curve"/>
      <point x="966.0" y="141.0" type="line"/>
      <point x="832.0" y="7.0" type="line"/>
      <point x="791.0" y="36.0"/>
      <point x="750.0" y="64.0"/>
      <point x="711.0" y="91.0" type="curve"/>
      <point x="711.0" y="199.0" type="line"/>
      <point x="694.393923951" y="159.461723692"/>
      <point x="622.015702917" y="1.80647655542"/>
      <point x="456.912320909" y="1.80647655542" type="curve" smooth="yes"/>
      <point x="283.7731998" y="1.80647655542"/>
      <point x="83.929235264" y="148.179831361"/>
      <point x="83.929235264" y="331.5524149" type="curve" smooth="yes"/>
      <point x="83.929235264" y="361.688035917"/>
      <point x="80.9022058569" y="554.769904401"/>
      <point x="340.0" y="661.0" type="curve"/>
      <point x="292.991406841" y="662.253562484"/>
      <point x="259.339874349" y="667.435672223"/>
      <point x="230.180979501" y="667.435672223" type="curve" smooth="yes"/>
      <point x="156.151066078" y="667.435672223"/>
      <point x="103.869781106" y="614.723396192"/>
      <point x="79.0" y="582.0" type="curve"/>
      <point x="22.0" y="582.0" type="line"/>
      <point x="20.5" y="590.0"/>
      <point x="19.5" y="598.75"/>
      <point x="19.5" y="608.25" type="curve" smooth="yes"/>
      <point x="19.5" y="638.88179766"/>
      <point x="25.5957145874" y="708.316676004"/>
      <point x="223.0" y="826.0" type="curve"/>
      <point x="256.192034386" y="818.784340351"/>
      <point x="387.952956972" y="785.247258921"/>
      <point x="425.326390701" y="785.247258921" type="curve" smooth="yes"/>
      <point x="464.723991115" y="785.247258921"/>
      <point x="499.751088738" y="807.459240615"/>
      <point x="516.0" y="821.0" type="curve"/>
      <point x="557.0" y="803.0" type="line"/>
      <point x="559.816209496" y="777.654114534"/>
      <point x="565.046901029" y="720.285175772"/>
      <point x="526.0" y="691.0" type="curve"/>
      <point x="526.0" y="168.0" type="line"/>
      <point x="537.684439309" y="164.664445086"/>
      <point x="559.123046875" y="162.646484375"/>
      <point x="579.03515625" y="162.646484375" type="curve" smooth="yes"/>
      <point x="610.078125" y="162.646484375"/>
      <point x="654.0" y="173.0"/>
      <point x="711.0" y="220.0" type="curve"/>
      <point x="711.0" y="364.0" type="line"/>
      <point x="688.844613951" y="386.155386049"/>
      <point x="646.844118843" y="402.973382173"/>
      <point x="620.0" y="407.0" type="curve"/>
      <point x="620.0" y="430.0" type="line"/>
      <point x="640.0" y="446.0"/>
      <point x="677.0" y="466.0"/>
      <point x="711.0" y="471.0" type="curve"/>
      <point x="711.0" y="534.0" type="line" smooth="yes"/>
      <point x="711.0" y="580.735700584"/>
      <point x="682.000424814" y="640.37890625"/>
      <point x="643.583984375" y="640.37890625" type="curve" smooth="yes"/>
      <point x="616.0" y="640.37890625"/>
      <point x="602.97257921" y="635.0"/>
      <point x="586.0" y="600.0" type="curve"/>
      <point x="563.0" y="607.0" type="line"/>
      <point x="577.792698742" y="663.397163953"/>
      <point x="643.219067148" y="807.222222222"/>
      <point x="709.518518519" y="807.222222222" type="curve" smooth="yes"/>
    </contour>
    <contour>
      <point x="416.0" y="200.0" type="line"/>
      <point x="434.0" y="191.0"/>
      <point x="453.0" y="184.0"/>
      <point x="470.0" y="179.0" type="curve"/>
      <point x="470.0" y="666.0" type="line"/>
      <point x="452.0" y="662.0"/>
      <point x="436.0" y="658.0"/>
      <point x="416.0" y="649.0" type="curve"/>
    </contour>
    <contour>
      <point x="360.0" y="237.0" type="curve"/>
      <point x="360.0" y="618.0" type="line"/>
      <point x="346.248440116" y="608.086084735"/>
      <point x="261.450139626" y="544.569002401"/>
      <point x="261.450139626" y="436.896995741" type="curve" smooth="yes"/>
      <point x="261.450139626" y="363.597641976"/>
      <point x="303.214284399" y="284.321429668"/>
    </contour>
  </outline>
</glyph>
<glyph name="underscore" format="2">
  <advance width="705"/>
  <unicode hex="005F"/>
  <outline>
    <contour>
      <point x="705.0" y="-45.0" type="line"/>
      <point x="705.0" y="-90.0" type="line"/>
      <point x="-0.0" y="-90.0" type="line"/>
      <point x="-0.0" y="-45.0" type="line"/>
      <point x="-0.0" y="0.0" type="line"/>
      <point x="705.0" y="0.0" type="line"/>
    </contour>
  </outline>
</glyph>
<glyph name="grave" format="2">
  <advance width="305"/>
  <unicode hex="0060"/>
  <outline>
    <contour>
      <point x="10.0" y="698.0" type="line"/>
      <point x="250.0" y="552.0" type="line"/>
      <point x="300.0" y="623.0" type="line"/>
      <point x="119.0" y="826.0" type="line"/>
    </contour>
  </outline>
</glyph>
<glyph name="b" format="2">
  <advance width="536"/>
  <unicode hex="0062"/>
  <outline>
    <contour>
      <point x="141.0" y="758.0" type="curve"/>
      <point x="206.0" y="788.0" type="line"/>
      <point x="206.0" y="112.0" type="line"/>
      <point x="68.0" y="112.0" type="line"/>
      <point x="68.0" y="665.0" type="line" smooth="yes"/>
      <point x="68.0" y="733.0"/>
      <point x="32.0" y="747.0"/>
      <point x="24.0" y="747.0" type="curve"/>
      <point x="25.0" y="779.0" type="line"/>
      <point x="25.0" y="779.0"/>
      <point x="36.4873046875" y="794.747070312"/>
      <point x="62.462890625" y="794.747070312" type="curve" smooth="yes"/>
      <point x="97.0" y="794.747070312"/>
      <point x="129.0" y="770.0"/>
    </contour>
    <contour>
      <point x="59.0" y="53.0" type="curve"/>
      <point x="40.0" y="96.0" type="line"/>
      <point x="136.0" y="220.0" type="line"/>
      <point x="335.0" y="113.0" type="line"/>
      <point x="363.0" y="121.0" type="line"/>
      <point x="362.0" y="463.0" type="line"/>
      <point x="281.0" y="543.0" type="line"/>
      <point x="184.0" y="449.0" type="line"/>
      <point x="183.0" y="507.0" type="line"/>
      <point x="347.0" y="652.0" type="line"/>
      <point x="416.0" y="631.0"/>
      <point x="478.0" y="568.0"/>
      <point x="490.0" y="525.0" type="curve"/>
      <point x="490.0" y="94.0" type="line"/>
      <point x="480.201007129" y="90.6593603479"/>
      <point x="335.160241791" y="42.4298813927"/>
      <point x="316.0" y="-1.0" type="curve"/>
      <point x="246.0" y="-1.0" type="line"/>
      <point x="246.018693237" y="-0.981306762925"/>
      <point x="246.027951672" y="-0.956323657829"/>
      <point x="246.027951672" y="-0.925227051701" type="curve" smooth="yes"/>
      <point x="246.027951672" y="19.2964148794"/>
      <point x="140.0" y="53.0"/>
    </contour>
    <contour>
      <point x="114.0" y="645.0" type="line"/>
      <point x="109.0" y="574.0"/>
      <point x="105.0" y="503.0"/>
      <point x="100.0" y="432.0" type="curve"/>
      <point x="92.4065263047" y="453.69563913"/>
      <point x="70.4230095" y="501.00389335"/>
      <point x="19.0" y="537.0" type="curve"/>
    </contour>
    <contour>
      <point x="370.0" y="607.0" type="curve"/>
      <point x="300.0" y="545.0"/>
      <point x="229.0" y="483.0"/>
      <point x="159.0" y="421.0" type="curve"/>
      <point x="127.0" y="457.0" type="line"/>
      <point x="339.0" y="642.0" type="line"/>
      <point x="350.0" y="630.0"/>
      <point x="359.0" y="619.0"/>
    </contour>
  </outline>
</glyph>
<glyph name="c" format="2">
  <advance width="331"/>
  <unicode hex="0063"/>
  <outline>
    <contour>
      <point x="24.0" y="87.0" type="line"/>
      <point x="24.0" y="541.0" type="line"/>
      <point x="140.752168892" y="595.943213898"/>
      <point x="146.958913067" y="639.369108008"/>
      <point x="153.0" y="644.0" type="curve"/>
      <point x="318.0" y="573.0" type="line"/>
      <point x="264.0" y="460.0" type="line"/>
      <point x="166.0" y="488.0" type="line"/>
      <point x="150.0" y="461.0" type="line"/>
      <point x="150.0" y="192.0" type="line"/>
      <point x="217.0" y="134.0" type="line"/>
      <point x="287.0" y="177.0" type="line"/>
      <point x="299.0" y="159.0" type="line"/>
      <point x="242.820872622" y="27.9207321997"/>
      <point x="156.174662402" y="5.48128351142"/>
      <point x="146.0" y="-3.0" type="curve"/>
    </contour>
  </outline>
</glyph>
<glyph name="e" format="2">
  <advance width="391"/>
  <unicode hex="0065"/>
  <outline>
    <contour>
      <point x="31.0" y="92.0" type="line"/>
      <point x="31.0" y="524.0" type="line"/>
      <point x="53.5330175551" y="530.857874908"/>
      <point x="132.323163009" y="557.189481552"/>
      <point x="192.0" y="649.0" type="curve"/>
      <point x="219.0" y="645.0" type="line"/>
      <point x="239.642417728" y="600.766247725"/>
      <point x="289.790664541" y="538.482902086"/>
      <point x="366.0" y="534.0" type="curve"/>
      <point x="366.0" y="492.0" type="line"/>
      <point x="129.0" y="211.0" type="line"/>
      <point x="129.0" y="271.0" type="line"/>
      <point x="267.0" y="425.0" type="line"/>
      <point x="153.0" y="477.0" type="line"/>
      <point x="153.0" y="193.0" type="line" smooth="yes"/>
      <point x="153.0" y="154.0"/>
      <point x="198.0" y="132.0"/>
      <point x="236.0" y="133.0" type="curve" smooth="yes"/>
      <point x="275.0" y="134.0"/>
      <point x="316.0" y="174.0"/>
      <point x="316.0" y="200.0" type="curve"/>
      <point x="349.0" y="182.0" type="line"/>
      <point x="333.872323097" y="144.180807743"/>
      <point x="294.701164485" y="55.1639932084"/>
      <point x="185.0" y="-7.0" type="curve"/>
    </contour>
  </outline>
</glyph>
<glyph name="g" format="2">
  <advance width="558"/>
  <unicode hex="0067"/>
  <outline>
    <contour>
      <point x="347.731968465" y="-64.0378144528" type="curve" smooth="yes"/>
      <point x="376.025000522" y="-64.0378144528"/>
      <point x="408.66609939" y="-30.8111239577"/>
      <point x="408.66609939" y="-8.38542454329" type="curve" smooth="yes"/>
      <point x="408.66609939" y="-5.4354485427"/>
      <point x="408.136678774" y="-2.61436118051"/>
      <point x="407.0" y="0.0" type="curve" smooth="yes"/>
      <point x="379.0" y="66.0"/>
      <point x="314.0" y="92.0"/>
      <point x="314.0" y="92.0" type="curve"/>
      <point x="314.0" y="457.0" type="line"/>
      <point x="259.878073607" y="488.424364665"/>
      <point x="174.527282034" y="497.86796857"/>
      <point x="170.0" y="499.0" type="curve"/>
      <point x="170.0" y="160.0" type="line"/>
      <point x="198.0" y="160.0"/>
      <point x="258.0" y="157.0"/>
      <point x="288.0" y="114.0" type="curve"/>
      <point x="363.0" y="169.0" type="line"/>
      <point x="393.0" y="150.0" type="line"/>
      <point x="200.0" y="10.0" type="line"/>
      <point x="130.543666385" y="71.7372482468"/>
      <point x="46.9201409374" y="88.1597701991"/>
      <point x="41.0" y="92.0" type="curve"/>
      <point x="41.0" y="532.0" type="line"/>
      <point x="140.258959065" y="581.630602167"/>
      <point x="177.563367763" y="638.642807159"/>
      <point x="182.0" y="642.0" type="curve"/>
      <point x="238.0" y="642.0" type="line"/>
      <point x="273.0" y="598.0"/>
      <point x="430.0" y="525.0"/>
      <point x="446.0" y="509.0" type="curve"/>
      <point x="446.0" y="361.296296296" type="line" smooth="yes"/>
      <point x="446.0" y="57.0"/>
      <point x="528.123315986" y="93.9423951653"/>
      <point x="528.123315986" y="14.7544573437" type="curve" smooth="yes"/>
      <point x="528.123315986" y="-66.0"/>
      <point x="434.0" y="-83.0"/>
      <point x="343.0" y="-171.0" type="curve"/>
      <point x="105.0" y="-111.0" type="line"/>
      <point x="105.0" y="-111.0"/>
      <point x="36.1678106509" y="-173.04591716"/>
      <point x="15.9133982704" y="-173.04591716" type="curve" smooth="yes"/>
      <point x="5.54986895925" y="-173.04591716"/>
      <point x="0.887625061013" y="-163.230730006"/>
      <point x="0.887625061013" y="-149.956895132" type="curve" smooth="yes"/>
      <point x="0.887625061013" y="-67.644038743"/>
      <point x="169.989872036" y="-1.23434705171"/>
      <point x="174.0" y="12.0" type="curve"/>
      <point x="174.0" y="12.0"/>
      <point x="313.40265983" y="-64.0378144528"/>
    </contour>
    <contour>
      <point x="330.0" y="496.0" type="line"/>
      <point x="413.0" y="611.0" type="line"/>
      <point x="525.0" y="611.0" type="line"/>
      <point x="525.0" y="447.0" type="line"/>
      <point x="427.0" y="460.0" type="line"/>
    </contour>
  </outline>
</glyph>
<glyph name="h" format="2">
  <advance width="593"/>
  <unicode hex="0068"/>
  <outline>
    <contour>
      <point x="37.0" y="495.0" type="line"/>
      <point x="37.0" y="495.0"/>
      <point x="18.0555555556" y="523.044562136"/>
      <point x="18.0555555556" y="546.50462963" type="curve" smooth="yes"/>
      <point x="18.0555555556" y="562.361111111"/>
      <point x="25.0" y="570.0"/>
      <point x="25.0" y="570.0" type="curve"/>
      <point x="161.0" y="584.0" type="line"/>
      <point x="151.0" y="526.0" type="line"/>
    </contour>
    <contour>
      <point x="86.0" y="101.0" type="line"/>
      <point x="86.0" y="690.0" type="line"/>
      <point x="65.0" y="711.0"/>
      <point x="56.0" y="716.0"/>
      <point x="17.0" y="716.0" type="curve"/>
      <point x="17.0" y="816.0" type="line"/>
      <point x="17.688512726" y="815.922538873"/>
      <point x="108.149783411" y="814.203745382"/>
      <point x="136.0" y="745.0" type="curve"/>
      <point x="166.942164363" y="790.809959057"/>
      <point x="198.883344391" y="829.507992302"/>
      <point x="235.471075438" y="829.509952129" type="curve" smooth="yes"/>
      <point x="266.001358287" y="829.511587488"/>
      <point x="292.0" y="808.0"/>
      <point x="292.0" y="792.0" type="curve"/>
      <point x="239.0" y="792.0"/>
      <point x="221.0" y="761.958090325"/>
      <point x="221.0" y="533.0" type="curve" smooth="yes"/>
      <point x="221.0" y="533.0"/>
      <point x="221.0" y="102.0"/>
      <point x="221.0" y="102.0" type="curve"/>
    </contour>
    <contour>
      <point x="135.0" y="212.0" type="curve"/>
      <point x="139.265984121" y="208.154250401"/>
      <point x="235.355748803" y="124.473084543"/>
      <point x="294.0" y="99.0" type="curve"/>
      <point x="235.435520021" y="81.0279254808"/>
      <point x="185.397932631" y="-4.33141828753"/>
      <point x="183.0" y="-9.0" type="curve"/>
      <point x="131.31971996" y="40.5867654189"/>
      <point x="43.8138467734" y="73.1205106912"/>
      <point x="34.0" y="79.0" type="curve"/>
      <point x="59.2218530144" y="91.6244738662"/>
      <point x="121.299876922" y="174.432169315"/>
    </contour>
    <contour>
      <point x="318.241210938" y="514.024414062" type="curve" smooth="yes"/>
      <point x="281.844726562" y="514.024414062"/>
      <point x="195.497321244" y="382.019890762"/>
      <point x="195.0" y="382.0" type="curve" smooth="yes"/>
      <point x="190.0" y="451.0" type="line"/>
      <point x="423.0" y="715.0" type="line"/>
      <point x="457.0" y="690.0" type="line"/>
      <point x="415.0" y="640.559570312" type="line"/>
      <point x="538.0" y="530.0" type="line"/>
      <point x="538.004162331" y="158.674264039" type="line" smooth="yes"/>
      <point x="538.004315611" y="145.000000002"/>
      <point x="537.129032258" y="129.387096774"/>
      <point x="510.0" y="77.0" type="curve" smooth="yes"/>
      <point x="481.0" y="21.0"/>
      <point x="356.0" y="-96.0"/>
      <point x="161.0" y="-184.0" type="curve"/>
      <point x="141.0" y="-159.0" type="line"/>
      <point x="353.576474852" y="-54.0909055707"/>
      <point x="394.0" y="23.8893230862"/>
      <point x="394.0" y="161.0" type="curve" smooth="yes"/>
      <point x="394.0" y="405.0" type="line" smooth="yes"/>
      <point x="394.0" y="474.19140625"/>
      <point x="363.95703125" y="514.024414062"/>
    </contour>
  </outline>
</glyph>
<glyph name="m" format="2">
  <advance width="865"/>
  <unicode hex="006D"/>
  <outline>
    <contour>
      <point x="19.2349693341" y="489.903678959" type="curve" smooth="yes"/>
      <point x="19.2349693341" y="534.566302087"/>
      <point x="75.7564378341" y="583.015136483"/>
      <point x="111.0" y="617.0" type="curve"/>
      <point x="229.738047899" y="617.0"/>
      <point x="234.644271984" y="572.0"/>
      <point x="230.0" y="352.746524601" type="curve" smooth="yes"/>
      <point x="230.0" y="152.0" type="line"/>
      <point x="299.0" y="98.0" type="line"/>
      <point x="267.9885047" y="70.4342264"/>
      <point x="237.719071777" y="-7.59178884365"/>
      <point x="206.913231014" y="-7.59178884365" type="curve" smooth="yes"/>
      <point x="193.0" y="-7.59178884365"/>
      <point x="70.8090053232" y="86.1201234279"/>
      <point x="52.0" y="103.0" type="curve"/>
      <point x="58.0746639315" y="107.049775954"/>
      <point x="91.0" y="122.695449424"/>
      <point x="91.0" y="173.0" type="curve" smooth="yes"/>
      <point x="91.0" y="469.0" type="line" smooth="yes"/>
      <point x="91.0" y="478.917681443"/>
      <point x="87.653143112" y="482.513522098"/>
      <point x="82.9638411991" y="482.513522098" type="curve" smooth="yes"/>
      <point x="67.3501848865" y="482.513522098"/>
      <point x="41.194814907" y="445.0"/>
      <point x="38.0" y="445.0" type="curve" smooth="yes"/>
      <point x="30.1557795347" y="445.0"/>
      <point x="19.2349693341" y="465.920810201"/>
    </contour>
    <contour>
      <point x="558.0" y="90.0" type="curve"/>
      <point x="530.0" y="54.0"/>
      <point x="477.0" y="14.0"/>
      <point x="444.0" y="-5.0" type="curve"/>
      <point x="434.534240438" y="7.30548743085"/>
      <point x="400.357595654" y="49.4998135543"/>
      <point x="336.0" y="76.0" type="curve"/>
      <point x="378.0" y="158.0" type="line"/>
      <point x="378.0" y="382.814814815" type="line" smooth="yes"/>
      <point x="378.0" y="466.0"/>
      <point x="344.0" y="489.35546875"/>
      <point x="323.909179688" y="489.35546875" type="curve" smooth="yes"/>
      <point x="309.418945312" y="489.35546875"/>
      <point x="302.562818524" y="484.467759805"/>
      <point x="298.0" y="480.0" type="curve" smooth="yes"/>
      <point x="298.0" y="480.0"/>
      <point x="234.0" y="417.0"/>
      <point x="202.0" y="386.0" type="curve"/>
      <point x="201.0" y="397.0"/>
      <point x="198.0" y="427.0"/>
      <point x="195.0" y="435.0" type="curve"/>
      <point x="267.0" y="501.0"/>
      <point x="337.0" y="567.0"/>
      <point x="409.0" y="635.0" type="curve"/>
      <point x="475.0" y="608.958007812"/>
      <point x="517.0" y="556.0"/>
      <point x="517.0" y="415.6820668" type="curve" smooth="yes"/>
      <point x="517.0" y="226.0" type="line" smooth="yes"/>
      <point x="517.0" y="128.0"/>
      <point x="518.0" y="112.0"/>
    </contour>
    <contour>
      <point x="846.0" y="124.0" type="curve"/>
      <point x="842.331999242" y="72.6479893872"/>
      <point x="786.273680645" y="-1.02426535607"/>
      <point x="757.887329386" y="-1.02426535607" type="curve" smooth="yes"/>
      <point x="688.391510753" y="-1.02426535607"/>
      <point x="648.0" y="22.2186519509"/>
      <point x="648.0" y="152.0" type="curve" smooth="yes"/>
      <point x="648.0" y="443.0" type="line"/>
      <point x="589.0" y="485.0" type="line"/>
      <point x="469.0" y="359.0" type="line"/>
      <point x="466.215438088" y="363.176842868"/>
      <point x="462.461653045" y="383.345867386"/>
      <point x="462.461653045" y="397.578821324" type="curve" smooth="yes"/>
      <point x="462.461653045" y="403.791387201"/>
      <point x="465.460554946" y="408.236670321"/>
      <point x="465.0" y="411.0" type="curve" smooth="yes"/>
      <point x="670.0" y="628.0" type="line"/>
      <point x="713.0" y="628.0" type="line"/>
      <point x="716.976213764" y="615.219312902"/>
      <point x="750.892522013" y="526.135513208"/>
      <point x="819.0" y="567.0" type="curve"/>
      <point x="823.0" y="556.0" type="line"/>
      <point x="810.0" y="545.0"/>
      <point x="789.0" y="518.0"/>
      <point x="789.0" y="483.0" type="curve" smooth="yes"/>
      <point x="789.0" y="172.0" type="line" smooth="yes"/>
      <point x="789.0" y="134.285116665"/>
      <point x="804.0" y="129.0"/>
      <point x="832.0" y="144.0" type="curve"/>
      <point x="836.0" y="137.0"/>
      <point x="842.0" y="130.0"/>
    </contour>
  </outline>
</glyph>
<glyph name="s" format="2">
  <advance width="514"/>
  <unicode hex="0073"/>
  <outline>
    <contour>
      <point x="446.549683324" y="703.244729674" type="curve" smooth="yes"/>
      <point x="482.482743504" y="703.244729674"/>
      <point x="505.680721984" y="666.952370092"/>
      <point x="505.680721984" y="636.384594359" type="curve" smooth="yes"/>
      <point x="505.680721984" y="580.286012959"/>
      <point x="454.813807011" y="545.802169949"/>
      <point x="423.0" y="512.0" type="curve" smooth="yes"/>
      <point x="386.252295454" y="472.036871306"/>
      <point x="195.913143311" y="247.352343629"/>
      <point x="101.0" y="86.0" type="curve" smooth="yes"/>
      <point x="81.2834621536" y="52.4818856611"/>
      <point x="75.1308108886" y="13.9777860927"/>
      <point x="20.5927898386" y="13.9777860927" type="curve" smooth="yes"/>
      <point x="5.16048984283" y="13.9777860927"/>
      <point x="-7.56002450555" y="19.2451227345"/>
      <point x="-7.56002450555" y="32.8012990223" type="curve" smooth="yes"/>
      <point x="-7.56002450555" y="58.6251950538"/>
      <point x="18.9257928877" y="60.7406343101"/>
      <point x="33.0" y="72.0" type="curve" smooth="yes"/>
      <point x="47.0" y="83.0"/>
      <point x="60.0" y="101.0"/>
      <point x="71.0" y="115.0" type="curve" smooth="yes"/>
      <point x="405.0" y="560.0" type="line" smooth="yes"/>
      <point x="414.3843455" y="572.065587071"/>
      <point x="436.543319101" y="588.072182873"/>
      <point x="436.543319101" y="606.802831011" type="curve" smooth="yes"/>
      <point x="436.543319101" y="626.233390505"/>
      <point x="403.608182701" y="634.149305927"/>
      <point x="403.608182701" y="664.016389795" type="curve" smooth="yes"/>
      <point x="403.608182701" y="686.301715214"/>
      <point x="424.983314024" y="703.244729674"/>
    </contour>
    <contour>
      <point x="167.0" y="228.0" type="line"/>
      <point x="36.0" y="314.0" type="line"/>
      <point x="38.0" y="515.0" type="line"/>
      <point x="97.0" y="515.0"/>
      <point x="207.916351889" y="616.062264239"/>
      <point x="212.0" y="626.0" type="curve"/>
      <point x="212.0" y="626.0"/>
      <point x="294.695271639" y="565.63434903"/>
      <point x="367.680419886" y="565.63434903" type="curve" smooth="yes"/>
      <point x="419.63434903" y="565.63434903"/>
      <point x="448.0" y="594.0"/>
      <point x="448.0" y="594.0" type="curve"/>
      <point x="368.0" y="462.0" type="line"/>
      <point x="331.175994356" y="447.791962236"/>
      <point x="181.244932221" y="500.172602077"/>
      <point x="170.0" y="502.0" type="curve"/>
      <point x="171.0" y="374.0" type="line"/>
      <point x="243.0" y="326.0" type="line"/>
    </contour>
    <contour>
      <point x="315.0" y="409.0" type="line"/>
      <point x="459.0" y="323.0" type="line"/>
      <point x="461.0" y="96.0" type="line"/>
      <point x="402.908618676" y="88.1537716947"/>
      <point x="281.495390955" y="1.51526753562"/>
      <point x="273.0" y="-9.0" type="curve"/>
      <point x="269.144821578" y="-6.94630460711"/>
      <point x="159.036360771" y="72.951870815"/>
      <point x="47.0" y="40.0" type="curve"/>
      <point x="131.0" y="159.0" type="line"/>
      <point x="131.0" y="159.0"/>
      <point x="135.104699584" y="159.297441999"/>
      <point x="142.167858853" y="159.297441999" type="curve" smooth="yes"/>
      <point x="242.004804589" y="159.297441999"/>
      <point x="320.0" y="106.0"/>
      <point x="320.0" y="106.0" type="curve"/>
      <point x="334.0" y="249.0" type="line"/>
      <point x="240.0" y="311.0" type="line"/>
    </contour>
  </outline>
</glyph>
<glyph name="u" format="2">
  <advance width="532"/>
  <unicode hex="0075"/>
  <outline>
    <contour>
      <point x="464.0" y="268.037530116" type="line" smooth="yes"/>
      <point x="464.0" y="191.814898183"/>
      <point x="475.923137025" y="137.997303239"/>
      <point x="520.0" y="103.0" type="curve"/>
      <point x="431.0" y="-4.0" type="line"/>
      <point x="370.55377123" y="7.26521440586"/>
      <point x="342.217443881" y="59.3510108293"/>
      <point x="342.0" y="134.0" type="curve" smooth="yes"/>
      <point x="341.0" y="480.0" type="line"/>
      <point x="464.0" y="500.0" type="line"/>
    </contour>
    <contour>
      <point x="226.353933076" y="121.997282904" type="curve" smooth="yes"/>
      <point x="252.0" y="121.997282904"/>
      <point x="290.0" y="167.0"/>
      <point x="394.0" y="276.0" type="curve"/>
      <point x="394.0" y="193.0" type="line"/>
      <point x="195.0" y="-4.0" type="line"/>
      <point x="145.307221269" y="24.22140947"/>
      <point x="70.0" y="50.4071377912"/>
      <point x="70.0" y="127.0" type="curve" smooth="yes"/>
      <point x="70.0" y="127.0"/>
      <point x="70.0" y="468.0"/>
      <point x="70.0" y="468.0" type="curve"/>
      <point x="191.0" y="488.0" type="line"/>
      <point x="192.0" y="208.0" type="line" smooth="yes"/>
      <point x="192.285710641" y="128.001020395"/>
      <point x="202.0" y="121.997282904"/>
    </contour>
    <contour>
      <point x="135.495117188" y="386.508789062" type="line"/>
      <point x="12.263671875" y="493.659179688" type="line"/>
      <point x="109.787109375" y="613.073242188" type="line"/>
      <point x="238.01953125" y="505.921875" type="line"/>
    </contour>
    <contour>
      <point x="409.186523438" y="397.243164062" type="line"/>
      <point x="280.955078125" y="504.393554688" type="line"/>
      <point x="378.478515625" y="623.807617188" type="line"/>
      <point x="506.709960938" y="516.657226562" type="line"/>
    </contour>
  </outline>
</glyph>
<glyph name="v" format="2">
  <advance width="547"/>
  <unicode hex="0076"/>
  <outline>
    <contour>
      <point x="123.292264315" y="280.732593522" type="curve" smooth="yes"/>
      <point x="123.292264315" y="430.0"/>
      <point x="90.7292040934" y="518.429645395"/>
      <point x="12.0" y="607.0" type="curve"/>
      <point x="25.6189425487" y="624.023678186"/>
      <point x="87.5601540736" y="705.614931979"/>
      <point x="216.0" y="768.0" type="curve"/>
      <point x="248.0" y="730.0" type="line"/>
      <point x="164.0" y="659.0" type="line"/>
      <point x="179.417792376" y="632.699060064"/>
      <point x="223.478923578" y="553.823767478"/>
      <point x="248.0" y="468.0" type="curve"/>
      <point x="242.0" y="166.0" type="line"/>
      <point x="280.43718278" y="151.357263703"/>
      <point x="334.542336117" y="133.891532777"/>
      <point x="379.0" y="125.0" type="curve"/>
      <point x="390.862631043" y="204.649094148"/>
      <point x="396.343311281" y="254.941214588"/>
      <point x="396.343311281" y="300.210666669" type="curve" smooth="yes"/>
      <point x="396.343311281" y="336.633781579"/>
      <point x="396.108265291" y="491.544832302"/>
      <point x="316.115728117" y="491.544832302" type="curve" smooth="yes"/>
      <point x="270.466674335" y="491.544832302"/>
      <point x="239.256235905" y="449.760393174"/>
      <point x="228.0" y="431.0" type="curve"/>
      <point x="221.0" y="437.0"/>
      <point x="216.0" y="442.0"/>
      <point x="209.0" y="448.0" type="curve"/>
      <point x="303.332320108" y="542.332320108"/>
      <point x="364.43213231" y="611.643889036"/>
      <point x="382.449234911" y="611.643889036" type="curve" smooth="yes"/>
      <point x="416.288751928" y="611.643889036"/>
      <point x="522.824895063" y="537.754161984"/>
      <point x="522.824895063" y="293.14279612" type="curve" smooth="yes"/>
      <point x="522.824895063" y="103.192566129"/>
      <point x="305.851356062" y="11.4416041674"/>
      <point x="264.0" y="-5.0" type="curve"/>
      <point x="217.673412701" y="26.8495287679"/>
      <point x="124.438168389" y="70.1074197934"/>
      <point x="42.0" y="80.0" type="curve"/>
      <point x="42.0" y="88.0"/>
      <point x="42.0" y="97.0"/>
      <point x="42.0" y="105.0" type="curve"/>
      <point x="112.0" y="116.0"/>
      <point x="123.292264315" y="158.0"/>
    </contour>
  </outline>
</glyph>
<glyph name="y" format="2">
  <advance width="518"/>
  <unicode hex="0079"/>
  <outline>
    <contour>
      <point x="73.0" y="-54.0" type="curve"/>
      <point x="75.146842959" y="2.89133841301"/>
      <point x="116.769548846" y="99.1923390009"/>
      <point x="116.769548846" y="202.219341055" type="curve" smooth="yes"/>
      <point x="116.769548846" y="254.786360734"/>
      <point x="105.674422342" y="387.379840601"/>
      <point x="10.0" y="499.0" type="curve"/>
      <point x="98.0" y="616.0" type="line"/>
      <point x="212.507139605" y="595.180520072"/>
      <point x="245.907827882" y="418.358185186"/>
      <point x="245.907827882" y="233.646299684" type="curve" smooth="yes"/>
      <point x="245.907827882" y="94.0"/>
      <point x="215.0" y="26.0"/>
    </contour>
    <contour>
      <point x="211.0" y="398.0" type="curve"/>
      <point x="191.0" y="424.0" type="line"/>
      <point x="317.985946777" y="573.662008702"/>
      <point x="316.166880848" y="614.481698624"/>
      <point x="360.665485537" y="614.481698624" type="curve" smooth="yes"/>
      <point x="399.765500683" y="614.481698624"/>
      <point x="500.308176149" y="546.888958977"/>
      <point x="500.308176149" y="427.905800302" type="curve" smooth="yes"/>
      <point x="500.308176149" y="323.973780866"/>
      <point x="421.16151272" y="176.283314742"/>
      <point x="130.0" y="-34.0" type="curve"/>
      <point x="129.366260102" y="-32.8909551787"/>
      <point x="129.109044821" y="-31.1041660468"/>
      <point x="129.109044821" y="-28.8543894094" type="curve" smooth="yes"/>
      <point x="129.109044821" y="-19.1539426843"/>
      <point x="133.890955179" y="-0.846057315743"/>
      <point x="133.890955179" y="8.85438940937" type="curve" smooth="yes"/>
      <point x="133.890955179" y="11.1041660468"/>
      <point x="133.633739898" y="12.8909551787"/>
      <point x="133.0" y="14.0" type="curve"/>
      <point x="182.74380541" y="55.1940888553"/>
      <point x="357.995666515" y="208.907055667"/>
      <point x="357.995666515" y="371.899566492" type="curve" smooth="yes"/>
      <point x="357.995666515" y="431.381274025"/>
      <point x="306.577527505" y="468.988367791"/>
      <point x="282.0" y="482.0" type="curve"/>
      <point x="258.0" y="454.0"/>
      <point x="235.0" y="426.0"/>
    </contour>
    <contour>
      <point x="171.0" y="-110.0" type="curve" smooth="yes"/>
      <point x="297.0" y="-110.0" type="line"/>
      <point x="297.0" y="-166.0" type="line"/>
      <point x="167.0" y="-166.0" type="line" smooth="yes"/>
      <point x="110.0" y="-166.0"/>
      <point x="72.3468473847" y="-108.496867871"/>
      <point x="72.3468473847" y="-54.7866750626" type="curve" smooth="yes"/>
      <point x="72.3468473847" y="-4.93951214126"/>
      <point x="104.889322507" y="31.8893225073"/>
      <point x="116.0" y="43.0" type="curve"/>
      <point x="165.0" y="-7.0" type="line"/>
      <point x="162.123071308" y="-9.87692869174"/>
      <point x="129.81780947" y="-31.1465655998"/>
      <point x="129.81780947" y="-57.5802832275" type="curve" smooth="yes"/>
      <point x="129.81780947" y="-86.430041697"/>
      <point x="153.112409062" y="-110.0"/>
    </contour>
  </outline>
</glyph>
<glyph name="asciitilde" format="2">
  <advance width="1036"/>
  <unicode hex="007E"/>
  <outline>
    <contour>
      <point x="81.0" y="286.0" type="line"/>
      <point x="38.0" y="300.0" type="line"/>
      <point x="60.0" y="372.0"/>
      <point x="115.0" y="429.0"/>
      <point x="183.0" y="457.0" type="curve" smooth="yes"/>
      <point x="217.0" y="471.0"/>
      <point x="253.0" y="477.0"/>
      <point x="289.0" y="477.0" type="curve" smooth="yes"/>
      <point x="320.0" y="477.0"/>
      <point x="350.0" y="473.0"/>
      <point x="379.0" y="465.0" type="curve" smooth="yes"/>
      <point x="441.0" y="448.0"/>
      <point x="495.0" y="418.0"/>
      <point x="545.0" y="390.0" type="curve" smooth="yes"/>
      <point x="595.0" y="362.0"/>
      <point x="641.0" y="337.0"/>
      <point x="689.0" y="324.0" type="curve" smooth="yes"/>
      <point x="711.0" y="318.0"/>
      <point x="734.0" y="315.0"/>
      <point x="756.0" y="315.0" type="curve" smooth="yes"/>
      <point x="782.0" y="315.0"/>
      <point x="806.0" y="319.0"/>
      <point x="828.0" y="328.0" type="curve" smooth="yes"/>
      <point x="872.0" y="346.0"/>
      <point x="908.0" y="385.0"/>
      <point x="921.0" y="429.0" type="curve"/>
      <point x="964.0" y="415.0" type="line"/>
      <point x="1007.0" y="402.0" type="line"/>
      <point x="985.0" y="330.0"/>
      <point x="930.0" y="273.0"/>
      <point x="862.0" y="245.0" type="curve" smooth="yes"/>
      <point x="828.0" y="231.0"/>
      <point x="792.0" y="225.0"/>
      <point x="756.0" y="225.0" type="curve" smooth="yes"/>
      <point x="725.0" y="225.0"/>
      <point x="695.0" y="229.0"/>
      <point x="666.0" y="237.0" type="curve" smooth="yes"/>
      <point x="604.0" y="254.0"/>
      <point x="551.0" y="284.0"/>
      <point x="501.0" y="312.0" type="curve" smooth="yes"/>
      <point x="451.0" y="340.0"/>
      <point x="404.0" y="365.0"/>
      <point x="356.0" y="378.0" type="curve" smooth="yes"/>
      <point x="334.0" y="384.0"/>
      <point x="311.0" y="387.0"/>
      <point x="289.0" y="387.0" type="curve" smooth="yes"/>
      <point x="263.0" y="387.0"/>
      <point x="239.0" y="383.0"/>
      <point x="217.0" y="374.0" type="curve" smooth="yes"/>
      <point x="173.0" y="356.0"/>
      <point x="137.0" y="317.0"/>
      <point x="124.0" y="273.0" type="curve"/>
    </contour>
  </outline>
</glyph>
<glyph name="currency" format="2">
  <advance width="503"/>
  <unicode hex="00A4"/>
  <outline>
    <contour>
      <point x="159.0" y="574.0" type="line"/>
      <point x="130.0" y="520.0" type="line"/>
      <point x="-71.0" y="721.0" type="line"/>
      <point x="-50.0" y="742.0" type="line"/>
      <point x="-30.0" y="762.0" type="line"/>
    </contour>
    <contour>
      <point x="365.0" y="285.0" type="line"/>
      <point x="403.0" y="330.0" type="line"/>
      <point x="565.0" y="168.0" type="line"/>
      <point x="545.0" y="147.0" type="line"/>
      <point x="524.0" y="127.0" type="line"/>
    </contour>
    <contour>
      <point x="157.0" y="314.0" type="line"/>
      <point x="-30.0" y="127.0" type="line"/>
      <point x="-50.0" y="147.0" type="line"/>
      <point x="-71.0" y="168.0" type="line"/>
      <point x="123.0" y="361.0" type="line"/>
    </contour>
    <contour>
      <point x="350.0" y="588.0" type="line"/>
      <point x="524.0" y="762.0" type="line"/>
      <point x="545.0" y="742.0" type="line"/>
      <point x="565.0" y="721.0" type="line"/>
      <point x="383.0" y="539.0" type="line"/>
    </contour>
    <contour>
      <point x="386.0" y="615.0" type="curve" smooth="yes"/>
      <point x="415.0" y="600.0"/>
      <point x="443.0" y="590.0"/>
      <point x="464.0" y="587.0" type="curve"/>
      <point x="464.0" y="451.0"/>
      <point x="464.0" y="397.0"/>
      <point x="464.0" y="261.0" type="curve"/>
      <point x="425.0" y="246.0"/>
      <point x="383.0" y="230.0"/>
      <point x="337.0" y="207.0" type="curve" smooth="yes"/>
      <point x="308.0" y="192.0"/>
      <point x="281.0" y="176.0"/>
      <point x="257.0" y="161.0" type="curve"/>
      <point x="239.0" y="179.0"/>
      <point x="209.0" y="202.0"/>
      <point x="168.0" y="218.0" type="curve" smooth="yes"/>
      <point x="104.0" y="244.0"/>
      <point x="48.0" y="241.0"/>
      <point x="19.0" y="238.0" type="curve"/>
      <point x="19.0" y="246.0"/>
      <point x="19.0" y="256.0"/>
      <point x="19.0" y="264.0" type="curve"/>
      <point x="21.0" y="264.0"/>
      <point x="34.0" y="262.0"/>
      <point x="44.0" y="272.0" type="curve" smooth="yes"/>
      <point x="54.0" y="282.0"/>
      <point x="52.0" y="295.0"/>
      <point x="52.0" y="297.0" type="curve" smooth="yes"/>
      <point x="52.0" y="417.0"/>
      <point x="52.0" y="456.0"/>
      <point x="52.0" y="576.0" type="curve"/>
      <point x="81.0" y="584.0"/>
      <point x="130.0" y="600.0"/>
      <point x="179.0" y="638.0" type="curve" smooth="yes"/>
      <point x="218.0" y="667.0"/>
      <point x="244.0" y="702.0"/>
      <point x="259.0" y="725.0" type="curve"/>
      <point x="282.0" y="696.0"/>
      <point x="322.0" y="649.0"/>
    </contour>
    <contour>
      <point x="331.0" y="287.0" type="curve" smooth="yes"/>
      <point x="331.0" y="387.0"/>
      <point x="327.0" y="395.0"/>
      <point x="327.0" y="497.0" type="curve"/>
      <point x="293.0" y="526.0"/>
      <point x="258.0" y="557.0"/>
      <point x="225.0" y="585.0" type="curve"/>
      <point x="215.0" y="578.0"/>
      <point x="204.0" y="571.0"/>
      <point x="194.0" y="564.0" type="curve"/>
      <point x="194.0" y="462.0"/>
      <point x="194.0" y="440.0"/>
      <point x="194.0" y="338.0" type="curve"/>
      <point x="225.0" y="331.0"/>
      <point x="249.0" y="323.0"/>
      <point x="265.0" y="316.0" type="curve" smooth="yes"/>
      <point x="294.0" y="305.0"/>
      <point x="331.0" y="285.0"/>
    </contour>
  </outline>
</glyph>
<glyph name="yen" format="2">
  <advance width="480"/>
  <unicode hex="00A5"/>
  <outline>
    <contour>
      <point x="71.0" y="102.0" type="line"/>
      <point x="108.0" y="191.0" type="line"/>
      <point x="418.0" y="191.0" type="line"/>
      <point x="381.0" y="102.0" type="line"/>
    </contour>
    <contour>
      <point x="170.0" y="-0.0" type="line"/>
      <point x="170.0" y="307.0" type="line"/>
      <point x="316.0" y="354.0" type="line"/>
      <point x="316.0" y="0.0" type="line"/>
    </contour>
    <contour>
      <point x="262.0" y="246.0" type="curve"/>
      <point x="224.6209694" y="278.503559229"/>
      <point x="102.31974533" y="320.55049642"/>
      <point x="32.0" y="315.0" type="curve"/>
      <point x="32.0" y="760.0" type="line"/>
      <point x="178.0" y="838.0" type="line"/>
      <point x="178.0" y="421.0" type="line"/>
      <point x="316.0" y="421.0" type="line"/>
      <point x="315.0" y="743.0" type="line"/>
      <point x="450.0" y="831.0" type="line"/>
      <point x="454.0" y="357.0" type="line"/>
      <point x="454.0" y="357.0"/>
      <point x="349.114854935" y="337.26318136"/>
    </contour>
  </outline>
</glyph>
<glyph name="uni00B2" format="2">
  <advance height="400" width="447"/>
  <unicode hex="00B2"/>
  <outline>
    <contour>
      <point x="18.9098300563" y="722.493422191" type="curve" smooth="yes"/>
      <point x="18.9098300563" y="782.0"/>
      <point x="108.772617589" y="827.768324898"/>
      <point x="189.342478475" y="827.768324898" type="curve" smooth="yes"/>
      <point x="259.487064496" y="827.768324898"/>
      <point x="312.1875" y="796.087938541"/>
      <point x="312.1875" y="727.37109375" type="curve" smooth="yes"/>
      <point x="312.1875" y="622.047072813"/>
      <point x="237.0" y="568.0"/>
      <point x="173.0" y="504.0" type="curve"/>
      <point x="314.0" y="501.0" type="line"/>
      <point x="409.0" y="569.0" type="line"/>
      <point x="450.0" y="515.0" type="line"/>
      <point x="308.0" y="394.0" type="line"/>
      <point x="59.0" y="415.0" type="line" smooth="yes"/>
      <point x="46.8335255117" y="416.02608821"/>
      <point x="35.0" y="420.79869692"/>
      <point x="35.0" y="433.0" type="curve" smooth="yes"/>
      <point x="35.0" y="493.799369727"/>
      <point x="181.530828997" y="510.281024224"/>
      <point x="181.530828997" y="644.011093319" type="curve" smooth="yes"/>
      <point x="181.530828997" y="680.756438148"/>
      <point x="162.721877725" y="710.608250072"/>
      <point x="126.83751629" y="710.608250072" type="curve" smooth="yes"/>
      <point x="96.0726555702" y="710.608250072"/>
      <point x="82.7521011166" y="687.0"/>
      <point x="54.0" y="687.0" type="curve" smooth="yes"/>
      <point x="33.1189915477" y="687.0"/>
      <point x="18.9098300563" y="701.351773694"/>
    </contour>
  </outline>
</glyph>
<glyph name="uni00B3" format="2">
  <advance height="400" width="285"/>
  <unicode hex="00B3"/>
  <outline>
    <contour>
      <point x="239.323746286" y="754.853240639" type="curve" smooth="yes"/>
      <point x="239.323746286" y="713.354488389"/>
      <point x="188.21110739" y="676.926664434"/>
      <point x="160.0" y="660.0" type="curve"/>
      <point x="208.359793716" y="647.273738496"/>
      <point x="269.496585672" y="598.522268846"/>
      <point x="269.496585672" y="531.847237635" type="curve" smooth="yes"/>
      <point x="269.496585672" y="446.654732955"/>
      <point x="154.745445922" y="345.440674632"/>
      <point x="74.2025321662" y="345.440674632" type="curve" smooth="yes"/>
      <point x="33.5614631822" y="345.440674632"/>
      <point x="20.4720961973" y="372.527903803"/>
      <point x="12.0" y="381.0" type="curve"/>
      <point x="12.0" y="383.0" type="line"/>
      <point x="75.0" y="452.0" type="line"/>
      <point x="79.0084538739" y="447.991546126"/>
      <point x="90.1323326758" y="431.96"/>
      <point x="113.312" y="431.96" type="curve" smooth="yes"/>
      <point x="154.204628768" y="431.96"/>
      <point x="160.030561875" y="489.866887489"/>
      <point x="160.030561875" y="506.713671077" type="curve" smooth="yes"/>
      <point x="160.030561875" y="593.851255814"/>
      <point x="31.1512007274" y="562.390335909"/>
      <point x="31.1512007274" y="607.687326722" type="curve" smooth="yes"/>
      <point x="31.1512007274" y="647.50322303"/>
      <point x="120.858422831" y="674.825053853"/>
      <point x="120.858422831" y="715.498043819" type="curve" smooth="yes"/>
      <point x="120.858422831" y="740.089685688"/>
      <point x="90.9092460997" y="776.0"/>
      <point x="66.0" y="776.0" type="curve" smooth="yes"/>
      <point x="52.4888888889" y="776.0"/>
      <point x="41.8301234568" y="762.451358025"/>
      <point x="31.0128943759" y="762.451358025" type="curve" smooth="yes"/>
      <point x="19.7910354675" y="762.451358025"/>
      <point x="15.8089882832" y="775.018789275"/>
      <point x="15.8089882832" y="785.216774475" type="curve" smooth="yes"/>
      <point x="15.8089882832" y="823.45539816"/>
      <point x="49.9078625373" y="809.785012587"/>
      <point x="71.0" y="859.0" type="curve"/>
      <point x="74.0" y="861.0" type="line"/>
      <point x="149.055494429" y="870.381936804"/>
      <point x="239.323746286" y="810.409593711"/>
    </contour>
  </outline>
</glyph>
<glyph name="uni00B9" format="2">
  <advance height="400" width="265"/>
  <unicode hex="00B9"/>
  <outline>
    <contour>
      <point x="51.1513671875" y="825.51171875" type="line" smooth="yes"/>
      <point x="40.056640625" y="825.51171875"/>
      <point x="31.107421875" y="821.958984375"/>
      <point x="31.107421875" y="814.44140625" type="curve" smooth="yes"/>
      <point x="31.107421875" y="792.494140625"/>
      <point x="68.6435546875" y="789.831054688"/>
      <point x="68.6435546875" y="742.400390625" type="curve" smooth="yes"/>
      <point x="68.6435546875" y="488.263671875" type="line" smooth="yes"/>
      <point x="68.6435546875" y="440.879882812"/>
      <point x="31.107421875" y="438.169921875"/>
      <point x="31.107421875" y="416.221679688" type="curve" smooth="yes"/>
      <point x="31.107421875" y="408.674804688"/>
      <point x="40.0625" y="405.520507812"/>
      <point x="51.2373046875" y="405.520507812" type="curve" smooth="yes"/>
      <point x="222.275390625" y="405.520507812" type="line" smooth="yes"/>
      <point x="233.442382812" y="405.520507812"/>
      <point x="242.405273438" y="409.043945312"/>
      <point x="242.405273438" y="416.590820312" type="curve" smooth="yes"/>
      <point x="242.405273438" y="438.4453125"/>
      <point x="204.869140625" y="441.620117188"/>
      <point x="204.869140625" y="488.6328125" type="curve" smooth="yes"/>
      <point x="204.869140625" y="742.030273438" type="line" smooth="yes"/>
      <point x="204.869140625" y="788.99609375"/>
      <point x="242.405273438" y="792.217773438"/>
      <point x="242.405273438" y="814.073242188" type="curve" smooth="yes"/>
      <point x="242.405273438" y="821.62109375"/>
      <point x="233.4296875" y="825.142578125"/>
      <point x="222.275390625" y="825.142578125" type="curve" smooth="yes"/>
    </contour>
  </outline>
</glyph>
<glyph name="ae" format="2">
  <advance width="629"/>
  <unicode hex="00E6"/>
  <outline>
    <contour>
      <point x="365.0" y="559.0" type="curve" smooth="yes"/>
      <point x="391.0" y="561.0"/>
      <point x="433.0" y="635.0"/>
      <point x="442.0" y="649.0" type="curve"/>
      <point x="450.0" y="648.0"/>
      <point x="461.0" y="646.0"/>
      <point x="469.0" y="645.0" type="curve"/>
      <point x="476.0" y="630.0"/>
      <point x="492.0" y="593.0"/>
      <point x="533.0" y="565.0" type="curve" smooth="yes"/>
      <point x="565.0" y="542.0"/>
      <point x="598.0" y="535.0"/>
      <point x="615.0" y="534.0" type="curve"/>
      <point x="615.0" y="492.0" type="line"/>
      <point x="402.0" y="239.0" type="line"/>
      <point x="402.0" y="193.0" type="line"/>
      <point x="413.0" y="156.0"/>
      <point x="448.0" y="132.0"/>
      <point x="486.0" y="133.0" type="curve" smooth="yes"/>
      <point x="525.0" y="134.0"/>
      <point x="559.0" y="161.0"/>
      <point x="566.0" y="200.0" type="curve"/>
      <point x="577.0" y="194.0"/>
      <point x="588.0" y="189.0"/>
      <point x="598.0" y="182.0" type="curve"/>
      <point x="588.0" y="157.0"/>
      <point x="573.0" y="124.0"/>
      <point x="546.0" y="90.0" type="curve" smooth="yes"/>
      <point x="507.0" y="40.0"/>
      <point x="465.0" y="10.0"/>
      <point x="435.0" y="-7.0" type="curve" smooth="yes"/>
      <point x="286.0" y="114.0" type="line"/>
      <point x="242.0" y="74.0"/>
      <point x="197.0" y="34.0"/>
      <point x="153.0" y="-7.0" type="curve"/>
      <point x="135.0" y="-2.0"/>
      <point x="107.0" y="7.0"/>
      <point x="81.0" y="27.0" type="curve" smooth="yes"/>
      <point x="18.0" y="78.0"/>
      <point x="7.0" y="168.0"/>
      <point x="25.0" y="233.0" type="curve" smooth="yes"/>
      <point x="40.0" y="286.0"/>
      <point x="83.0" y="362.0"/>
      <point x="140.0" y="363.0" type="curve"/>
      <point x="114.0" y="382.0"/>
      <point x="82.0" y="410.0"/>
      <point x="56.0" y="452.0" type="curve"/>
      <point x="55.0" y="452.0"/>
      <point x="56.0" y="451.0"/>
      <point x="55.0" y="451.0" type="curve"/>
      <point x="47.0" y="466.0"/>
      <point x="40.0" y="482.0"/>
      <point x="32.0" y="497.0" type="curve"/>
      <point x="56.0" y="515.0"/>
      <point x="80.0" y="532.0"/>
      <point x="106.0" y="552.0" type="curve" smooth="yes"/>
      <point x="146.0" y="583.0"/>
      <point x="209.0" y="641.0"/>
      <point x="209.0" y="641.0" type="curve"/>
      <point x="238.0" y="641.0" type="line"/>
      <point x="238.0" y="641.0"/>
      <point x="320.0" y="556.0"/>
    </contour>
    <contour>
      <point x="188.0" y="332.0" type="curve"/>
      <point x="140.0" y="271.0"/>
      <point x="128.0" y="196.0"/>
      <point x="158.0" y="143.0" type="curve" smooth="yes"/>
      <point x="173.0" y="116.0"/>
      <point x="194.0" y="100.0"/>
      <point x="213.0" y="90.0" type="curve"/>
      <point x="235.0" y="109.0"/>
      <point x="259.0" y="129.0"/>
      <point x="281.0" y="148.0" type="curve"/>
      <point x="274.0" y="197.0"/>
      <point x="272.0" y="251.0"/>
      <point x="272.0" y="300.0" type="curve"/>
      <point x="247.0" y="306.0"/>
      <point x="217.0" y="316.0"/>
    </contour>
    <contour>
      <point x="95.0" y="482.0" type="curve"/>
      <point x="109.0" y="453.0"/>
      <point x="136.0" y="410.0"/>
      <point x="182.0" y="374.0" type="curve" smooth="yes"/>
      <point x="214.0" y="350.0"/>
      <point x="246.0" y="336.0"/>
      <point x="272.0" y="327.0" type="curve"/>
      <point x="272.0" y="379.0"/>
      <point x="275.0" y="422.0"/>
      <point x="276.0" y="439.0" type="curve"/>
      <point x="236.0" y="469.0"/>
      <point x="195.0" y="497.0"/>
      <point x="154.0" y="526.0" type="curve"/>
      <point x="135.0" y="512.0"/>
      <point x="115.0" y="497.0"/>
    </contour>
    <contour>
      <point x="402.0" y="297.0" type="line"/>
      <point x="440.0" y="340.0"/>
      <point x="479.0" y="382.0"/>
      <point x="516.0" y="425.0" type="curve"/>
      <point x="478.0" y="442.0"/>
      <point x="440.0" y="459.0"/>
      <point x="402.0" y="477.0" type="curve"/>
    </contour>
  </outline>
</glyph>
<glyph name="oslash" format="2">
  <advance width="503"/>
  <unicode hex="00F8"/>
  <outline>
    <contour>
      <point x="-35.0" y="31.0" type="line"/>
      <point x="513.0" y="636.0" type="line"/>
      <point x="556.0" y="597.0" type="line"/>
      <point x="8.0" y="-8.0" type="line"/>
    </contour>
    <component base="o"/>
  </outline>
</glyph>
<glyph name="hbar" format="2">
  <advance width="593"/>
  <unicode hex="0127"/>
  <outline>
    <contour>
      <point x="30.0" y="665.0" type="curve"/>
      <point x="275.0" y="668.0" type="line"/>
      <point x="265.0" y="609.0" type="line"/>
      <point x="42.0" y="590.0" type="line"/>
      <point x="42.0" y="590.0"/>
      <point x="28.0" y="608.0"/>
      <point x="24.0" y="631.0" type="curve" smooth="yes"/>
      <point x="20.0" y="654.0"/>
      <point x="30.0" y="665.0"/>
    </contour>
    <contour>
      <point x="86.0" y="161.0" type="line"/>
      <point x="86.0" y="690.0" type="line"/>
      <point x="86.0" y="690.0"/>
      <point x="74.0" y="706.0"/>
      <point x="54.0" y="710.0" type="curve" smooth="yes"/>
      <point x="33.0" y="714.0"/>
      <point x="17.0" y="716.0"/>
      <point x="17.0" y="716.0" type="curve"/>
      <point x="17.0" y="816.0" type="line"/>
      <point x="17.0" y="816.0"/>
      <point x="70.0" y="816.0"/>
      <point x="92.0" y="794.0" type="curve" smooth="yes"/>
      <point x="114.0" y="772.0"/>
      <point x="136.0" y="745.0"/>
      <point x="136.0" y="745.0" type="curve"/>
      <point x="136.0" y="745.0"/>
      <point x="181.0" y="804.0"/>
      <point x="218.0" y="825.0" type="curve" smooth="yes"/>
      <point x="255.0" y="845.0"/>
      <point x="292.0" y="792.0"/>
      <point x="292.0" y="792.0" type="curve"/>
      <point x="292.0" y="792.0"/>
      <point x="249.0" y="759.0"/>
      <point x="240.0" y="722.0" type="curve" smooth="yes"/>
      <point x="231.0" y="685.0"/>
      <point x="221.0" y="624.0"/>
      <point x="221.0" y="533.0" type="curve" smooth="yes"/>
      <point x="221.0" y="442.0"/>
      <point x="221.0" y="102.0"/>
      <point x="221.0" y="102.0" type="curve"/>
      <point x="95.0" y="102.0" type="line"/>
    </contour>
    <contour>
      <point x="135.0" y="212.0" type="curve"/>
      <point x="135.0" y="212.0"/>
      <point x="220.0" y="144.0"/>
      <point x="236.0" y="132.0" type="curve" smooth="yes"/>
      <point x="252.0" y="120.0"/>
      <point x="294.0" y="99.0"/>
      <point x="294.0" y="99.0" type="curve"/>
      <point x="294.0" y="99.0"/>
      <point x="243.0" y="74.0"/>
      <point x="227.0" y="52.0" type="curve" smooth="yes"/>
      <point x="212.0" y="30.0"/>
      <point x="183.0" y="-9.0"/>
      <point x="183.0" y="-9.0" type="curve"/>
      <point x="183.0" y="-9.0"/>
      <point x="152.0" y="17.0"/>
      <point x="117.0" y="39.0" type="curve" smooth="yes"/>
      <point x="82.0" y="61.0"/>
      <point x="34.0" y="79.0"/>
      <point x="34.0" y="79.0" type="curve"/>
      <point x="34.0" y="79.0"/>
      <point x="75.0" y="116.0"/>
      <point x="94.0" y="142.0" type="curve" smooth="yes"/>
      <point x="113.0" y="168.0"/>
      <point x="135.0" y="212.0"/>
    </contour>
    <contour>
      <point x="190.0" y="451.0" type="line"/>
      <point x="423.0" y="715.0" type="line"/>
      <point x="457.0" y="690.0" type="line"/>
      <point x="426.0" y="640.0" type="line"/>
      <point x="538.0" y="530.0" type="line"/>
      <point x="538.0" y="159.0" type="line"/>
      <point x="538.0" y="159.0"/>
      <point x="539.0" y="133.0"/>
      <point x="510.0" y="77.0" type="curve" smooth="yes"/>
      <point x="481.0" y="21.0"/>
      <point x="356.0" y="-96.0"/>
      <point x="161.0" y="-184.0" type="curve"/>
      <point x="141.0" y="-159.0" type="line"/>
      <point x="141.0" y="-159.0"/>
      <point x="268.0" y="-96.0"/>
      <point x="340.0" y="-21.0" type="curve" smooth="yes"/>
      <point x="396.0" y="37.0"/>
      <point x="395.0" y="161.0"/>
      <point x="395.0" y="161.0" type="curve"/>
      <point x="395.0" y="161.0"/>
      <point x="393.0" y="382.0"/>
      <point x="393.0" y="435.0" type="curve" smooth="yes"/>
      <point x="393.0" y="485.0"/>
      <point x="332.0" y="515.0"/>
      <point x="307.0" y="514.0" type="curve" smooth="yes"/>
      <point x="272.0" y="513.0"/>
      <point x="195.0" y="382.0"/>
      <point x="195.0" y="382.0" type="curve"/>
    </contour>
  </outline>
</glyph>
<glyph name="OE" format="2">
  <advance width="1425"/>
  <unicode hex="0152"/>
  <outline>
    <contour>
      <point x="969.0" y="450.0" type="line"/>
      <point x="969.0" y="553.0" type="line"/>
      <point x="1314.0" y="553.0" type="line"/>
      <point x="1314.0" y="450.0" type="line"/>
    </contour>
    <contour>
      <point x="1089.0" y="87.0" type="line"/>
      <point x="1089.0" y="750.0" type="line"/>
      <point x="1166.0" y="750.0" type="line"/>
      <point x="1166.0" y="87.0" type="line"/>
    </contour>
    <contour>
      <point x="815.0" y="208.0" type="curve"/>
      <point x="827.0" y="222.0"/>
      <point x="910.0" y="330.0"/>
      <point x="922.0" y="344.0" type="curve"/>
      <point x="922.0" y="451.0"/>
      <point x="922.0" y="559.0"/>
      <point x="922.0" y="666.0" type="curve"/>
      <point x="1017.0" y="754.0" type="line"/>
      <point x="1095.0" y="828.0" type="line"/>
      <point x="1201.0" y="828.0" type="line"/>
      <point x="1215.0" y="818.0"/>
      <point x="1235.0" y="805.0"/>
      <point x="1263.0" y="797.0" type="curve" smooth="yes"/>
      <point x="1338.0" y="775.0"/>
      <point x="1388.0" y="804.0"/>
      <point x="1400.0" y="785.0" type="curve" smooth="yes"/>
      <point x="1408.0" y="772.0"/>
      <point x="1392.0" y="746.0"/>
      <point x="1376.0" y="721.0" type="curve" smooth="yes"/>
      <point x="1352.0" y="684.0"/>
      <point x="1322.0" y="661.0"/>
      <point x="1303.0" y="649.0" type="curve"/>
      <point x="1272.0" y="647.0"/>
      <point x="1232.0" y="648.0"/>
      <point x="1184.0" y="662.0" type="curve" smooth="yes"/>
      <point x="1174.0" y="665.0"/>
      <point x="1165.0" y="669.0"/>
      <point x="1156.0" y="672.0" type="curve"/>
      <point x="1156.0" y="152.0" type="line"/>
      <point x="1142.0" y="152.0" type="line"/>
      <point x="1196.0" y="141.0"/>
      <point x="1263.0" y="139.0"/>
      <point x="1323.0" y="170.0" type="curve" smooth="yes"/>
      <point x="1345.0" y="181.0"/>
      <point x="1362.0" y="196.0"/>
      <point x="1373.0" y="206.0" type="curve"/>
      <point x="1384.0" y="182.0"/>
      <point x="1394.0" y="158.0"/>
      <point x="1404.0" y="137.0" type="curve"/>
      <point x="1377.0" y="107.0"/>
      <point x="1323.0" y="57.0"/>
      <point x="1239.0" y="27.0" type="curve" smooth="yes"/>
      <point x="1127.0" y="-13.0"/>
      <point x="1030.0" y="7.0"/>
      <point x="994.0" y="21.0" type="curve" smooth="yes"/>
      <point x="923.0" y="49.0"/>
      <point x="859.0" y="91.0"/>
    </contour>
    <contour>
      <point x="1097.0" y="702.0" type="line"/>
      <point x="1084.0" y="689.0"/>
      <point x="1071.0" y="676.0"/>
      <point x="1058.0" y="663.0" type="curve"/>
      <point x="1058.0" y="574.0"/>
      <point x="1058.0" y="486.0"/>
      <point x="1058.0" y="397.0" type="curve"/>
      <point x="1016.0" y="346.0"/>
      <point x="976.0" y="297.0"/>
      <point x="935.0" y="248.0" type="curve"/>
      <point x="978.0" y="211.0"/>
      <point x="1025.0" y="192.0"/>
      <point x="1059.0" y="178.0" type="curve" smooth="yes"/>
      <point x="1069.0" y="174.0"/>
      <point x="1083.0" y="169.0"/>
      <point x="1098.0" y="164.0" type="curve"/>
      <point x="1098.0" y="701.0" type="line"/>
    </contour>
    <component base="O"/>
  </outline>
</glyph>
<glyph name="oe" format="2">
  <advance width="692"/>
  <unicode hex="0153"/>
  <outline>
    <contour>
      <point x="331.0" y="127.0" type="curve" smooth="yes"/>
      <point x="331.0" y="227.0"/>
      <point x="327.0" y="316.0"/>
      <point x="327.0" y="418.0" type="curve"/>
      <point x="293.0" y="447.0"/>
      <point x="258.0" y="479.0"/>
      <point x="225.0" y="507.0" type="curve"/>
      <point x="215.0" y="500.0"/>
      <point x="204.0" y="492.0"/>
      <point x="194.0" y="485.0" type="curve"/>
      <point x="194.0" y="383.0"/>
      <point x="194.0" y="280.0"/>
      <point x="194.0" y="178.0" type="curve"/>
      <point x="225.0" y="171.0"/>
      <point x="249.0" y="163.0"/>
      <point x="265.0" y="156.0" type="curve" smooth="yes"/>
      <point x="294.0" y="145.0"/>
      <point x="331.0" y="125.0"/>
    </contour>
    <contour>
      <point x="382.0" y="68.0" type="curve"/>
      <point x="367.0" y="62.0"/>
      <point x="352.0" y="55.0"/>
      <point x="337.0" y="47.0" type="curve" smooth="yes"/>
      <point x="308.0" y="32.0"/>
      <point x="281.0" y="16.0"/>
      <point x="257.0" y="1.0" type="curve"/>
      <point x="239.0" y="19.0"/>
      <point x="209.0" y="42.0"/>
      <point x="168.0" y="58.0" type="curve" smooth="yes"/>
      <point x="104.0" y="84.0"/>
      <point x="48.0" y="81.0"/>
      <point x="19.0" y="78.0" type="curve"/>
      <point x="19.0" y="86.0"/>
      <point x="19.0" y="96.0"/>
      <point x="19.0" y="104.0" type="curve"/>
      <point x="21.0" y="104.0"/>
      <point x="34.0" y="102.0"/>
      <point x="44.0" y="112.0" type="curve" smooth="yes"/>
      <point x="54.0" y="122.0"/>
      <point x="52.0" y="135.0"/>
      <point x="52.0" y="137.0" type="curve" smooth="yes"/>
      <point x="52.0" y="257.0"/>
      <point x="52.0" y="377.0"/>
      <point x="52.0" y="497.0" type="curve"/>
      <point x="81.0" y="505.0"/>
      <point x="130.0" y="521.0"/>
      <point x="179.0" y="559.0" type="curve" smooth="yes"/>
      <point x="218.0" y="588.0"/>
      <point x="244.0" y="623.0"/>
      <point x="259.0" y="646.0" type="curve"/>
      <point x="281.0" y="617.0"/>
      <point x="320.0" y="573.0"/>
      <point x="381.0" y="539.0" type="curve"/>
      <point x="398.0" y="547.0"/>
      <point x="418.0" y="558.0"/>
      <point x="437.0" y="573.0" type="curve" smooth="yes"/>
      <point x="472.0" y="600.0"/>
      <point x="493.0" y="629.0"/>
      <point x="506.0" y="649.0" type="curve"/>
      <point x="514.0" y="648.0"/>
      <point x="524.0" y="646.0"/>
      <point x="532.0" y="645.0" type="curve"/>
      <point x="539.0" y="630.0"/>
      <point x="556.0" y="593.0"/>
      <point x="597.0" y="565.0" type="curve" smooth="yes"/>
      <point x="629.0" y="542.0"/>
      <point x="662.0" y="535.0"/>
      <point x="679.0" y="534.0" type="curve"/>
      <point x="679.0" y="492.0" type="line"/>
      <point x="466.0" y="239.0" type="line"/>
      <point x="466.0" y="193.0" type="line"/>
      <point x="477.0" y="156.0"/>
      <point x="511.0" y="132.0"/>
      <point x="549.0" y="133.0" type="curve" smooth="yes"/>
      <point x="588.0" y="134.0"/>
      <point x="622.0" y="161.0"/>
      <point x="629.0" y="200.0" type="curve"/>
      <point x="640.0" y="194.0"/>
      <point x="652.0" y="189.0"/>
      <point x="662.0" y="182.0" type="curve"/>
      <point x="652.0" y="157.0"/>
      <point x="637.0" y="124.0"/>
      <point x="610.0" y="90.0" type="curve" smooth="yes"/>
      <point x="572.0" y="39.0"/>
      <point x="529.0" y="10.0"/>
      <point x="499.0" y="-7.0" type="curve"/>
      <point x="460.0" y="17.0"/>
      <point x="421.0" y="43.0"/>
    </contour>
    <contour>
      <point x="466.0" y="297.0" type="line"/>
      <point x="504.0" y="340.0"/>
      <point x="543.0" y="382.0"/>
      <point x="580.0" y="425.0" type="curve"/>
      <point x="542.0" y="442.0"/>
      <point x="504.0" y="459.0"/>
      <point x="466.0" y="477.0" type="curve"/>
    </contour>
  </outline>
</glyph>
<glyph name="dotlessj" format="2">
  <advance width="301"/>
  <unicode hex="0237"/>
  <outline>
    <contour>
      <point x="18.0" y="524.0" type="line"/>
      <point x="98.0" y="614.0" type="line"/>
      <point x="197.0" y="538.0" type="line"/>
      <point x="239.0" y="576.0" type="line"/>
      <point x="276.0" y="550.0" type="line"/>
      <point x="224.0" y="502.0" type="line"/>
      <point x="224.0" y="116.0" type="line" smooth="yes"/>
      <point x="224.0" y="98.814453125"/>
      <point x="223.641601562" y="81.54296875"/>
      <point x="220.54296875" y="64.638671875" type="curve" smooth="yes"/>
      <point x="217.444335938" y="47.734375"/>
      <point x="211.787109375" y="31.3203125"/>
      <point x="204.0" y="16.0" type="curve" smooth="yes"/>
      <point x="187.26953125" y="-16.916015625"/>
      <point x="161.58203125" y="-44.623046875"/>
      <point x="133.0" y="-68.0" type="curve" smooth="yes"/>
      <point x="97.2412109375" y="-97.2470703125"/>
      <point x="56.5146484375" y="-120.490234375"/>
      <point x="13.0" y="-136.0" type="curve" smooth="yes"/>
      <point x="-3.31640625" y="-141.815429688"/>
      <point x="-20.03515625" y="-146.502929688"/>
      <point x="-37.0" y="-150.0" type="curve"/>
      <point x="-54.0" y="-119.0" type="line"/>
      <point x="-9.2119140625" y="-108.970703125"/>
      <point x="32.875" y="-84.0234375"/>
      <point x="60.0" y="-47.0" type="curve" smooth="yes"/>
      <point x="70.5341796875" y="-32.6220703125"/>
      <point x="78.525390625" y="-16.3359375"/>
      <point x="82.974609375" y="0.9248046875" type="curve" smooth="yes"/>
      <point x="87.423828125" y="18.1845703125"/>
      <point x="88.0" y="36.17578125"/>
      <point x="88.0" y="54.0" type="curve" smooth="yes"/>
      <point x="88.0" y="468.0" type="line"/>
    </contour>
  </outline>
</glyph>
<glyph name="breve" format="2">
  <advance width="376"/>
  <unicode hex="02D8"/>
  <outline>
    <contour>
      <point x="352.0" y="785.0" type="line"/>
      <point x="301.0" y="828.0" type="line"/>
      <point x="207.0" y="720.0" type="line"/>
      <point x="85.0" y="836.0" type="line" smooth="yes"/>
      <point x="10.0" y="716.0" type="line" smooth="yes"/>
      <point x="161.0" y="563.0" type="line"/>
    </contour>
  </outline>
</glyph>
<glyph name="ring" format="2">
  <advance width="584"/>
  <unicode hex="02DA"/>
  <outline>
    <contour>
      <point x="280.0" y="821.0" type="curve" smooth="yes"/>
      <point x="379.0" y="821.0"/>
      <point x="460.0" y="746.0"/>
      <point x="460.0" y="654.0" type="curve" smooth="yes"/>
      <point x="460.0" y="562.0"/>
      <point x="379.0" y="488.0"/>
      <point x="280.0" y="488.0" type="curve" smooth="yes"/>
      <point x="181.0" y="488.0"/>
      <point x="99.0" y="562.0"/>
      <point x="99.0" y="654.0" type="curve" smooth="yes"/>
      <point x="99.0" y="746.0"/>
      <point x="181.0" y="821.0"/>
    </contour>
    <contour>
      <point x="261.0" y="574.0" type="curve" smooth="yes"/>
      <point x="313.0" y="574.0"/>
      <point x="354.0" y="614.0"/>
      <point x="354.0" y="662.0" type="curve" smooth="yes"/>
      <point x="354.0" y="710.0"/>
      <point x="313.0" y="750.0"/>
      <point x="261.0" y="750.0" type="curve" smooth="yes"/>
      <point x="209.0" y="750.0"/>
      <point x="167.0" y="710.0"/>
      <point x="167.0" y="662.0" type="curve" smooth="yes"/>
      <point x="167.0" y="614.0"/>
      <point x="209.0" y="574.0"/>
    </contour>
  </outline>
</glyph>
<glyph name="tilde" format="2">
  <advance width="548"/>
  <unicode hex="02DC"/>
  <outline>
    <contour>
      <point x="50.0" y="668.0" type="curve"/>
      <point x="65.0" y="622.0" type="line"/>
      <point x="65.0" y="622.0"/>
      <point x="106.0" y="640.0"/>
      <point x="243.0" y="646.0" type="curve" smooth="yes"/>
      <point x="300.0" y="648.0"/>
      <point x="379.0" y="641.0"/>
      <point x="379.0" y="641.0" type="curve"/>
      <point x="379.0" y="641.0"/>
      <point x="421.0" y="682.0"/>
      <point x="444.0" y="703.0" type="curve" smooth="yes"/>
      <point x="467.0" y="724.0"/>
      <point x="516.0" y="755.0"/>
      <point x="516.0" y="755.0" type="curve"/>
      <point x="466.0" y="804.0" type="line"/>
      <point x="466.0" y="804.0"/>
      <point x="433.0" y="767.0"/>
      <point x="399.0" y="759.0" type="curve" smooth="yes"/>
      <point x="365.0" y="751.0"/>
      <point x="280.0" y="775.0"/>
      <point x="253.0" y="779.0" type="curve" smooth="yes"/>
      <point x="214.0" y="785.0"/>
      <point x="193.0" y="784.0"/>
      <point x="174.0" y="769.0" type="curve" smooth="yes"/>
      <point x="142.0" y="743.0"/>
      <point x="50.0" y="668.0"/>
    </contour>
  </outline>
</glyph>
<glyph name="uni0305" format="2">
  <unicode hex="0305"/>
  <outline>
    <contour>
      <point x="-377.0" y="91.0" type="line"/>
      <point x="399.0" y="91.0" type="line"/>
      <point x="399.0" y="0.0" type="line"/>
      <point x="-377.0" y="0.0" type="line"/>
    </contour>
  </outline>
</glyph>
<glyph name="uni030A" format="2">
  <unicode hex="030A"/>
  <outline>
    <contour>
      <point x="7.0" y="326.0" type="curve" smooth="yes"/>
      <point x="106.0" y="326.0"/>
      <point x="187.0" y="251.0"/>
      <point x="187.0" y="159.0" type="curve" smooth="yes"/>
      <point x="187.0" y="67.0"/>
      <point x="106.0" y="-7.0"/>
      <point x="7.0" y="-7.0" type="curve" smooth="yes"/>
      <point x="-92.0" y="-7.0"/>
      <point x="-174.0" y="67.0"/>
      <point x="-174.0" y="159.0" type="curve" smooth="yes"/>
      <point x="-174.0" y="251.0"/>
      <point x="-92.0" y="326.0"/>
    </contour>
    <contour>
      <point x="-12.0" y="79.0" type="curve" smooth="yes"/>
      <point x="40.0" y="79.0"/>
      <point x="81.0" y="119.0"/>
      <point x="81.0" y="167.0" type="curve" smooth="yes"/>
      <point x="81.0" y="215.0"/>
      <point x="40.0" y="255.0"/>
      <point x="-12.0" y="255.0" type="curve" smooth="yes"/>
      <point x="-64.0" y="255.0"/>
      <point x="-106.0" y="215.0"/>
      <point x="-106.0" y="167.0" type="curve" smooth="yes"/>
      <point x="-106.0" y="119.0"/>
      <point x="-64.0" y="79.0"/>
    </contour>
  </outline>
</glyph>
<glyph name="uni030D" format="2">
  <unicode hex="030D"/>
  <outline>
    <contour>
      <point x="-52.0" y="0.0" type="line"/>
      <point x="-52.0" y="281.0" type="line"/>
      <point x="50.0" y="281.0" type="line"/>
      <point x="50.0" y="0.0" type="line"/>
    </contour>
  </outline>
</glyph>
<glyph name="uni0394" format="2">
  <advance width="868"/>
  <unicode hex="0394"/>
  <outline>
    <contour>
      <point x="826.698014353" y="152.621512504" type="curve" smooth="yes"/>
      <point x="826.698014353" y="75.7522266436"/>
      <point x="772.913113467" y="-25.0800211908"/>
      <point x="699.516324353" y="-25.0800211908" type="curve" smooth="yes"/>
      <point x="672.307482109" y="-25.0800211908"/>
      <point x="600.111328125" y="-1.6396484375"/>
      <point x="600.111328125" y="103.555664062" type="curve" smooth="yes"/>
      <point x="600.0" y="184.0" type="line"/>
      <point x="416.0" y="-6.0" type="line"/>
      <point x="333.730948314" y="19.3135543648"/>
      <point x="353.467855206" y="173.829611541"/>
      <point x="226.459479249" y="173.829611541" type="curve" smooth="yes"/>
      <point x="129.624306968" y="173.829611541"/>
      <point x="130.050756051" y="6.74315244314"/>
      <point x="81.5102826363" y="6.74315244314" type="curve" smooth="yes"/>
      <point x="69.2779273842" y="6.74315244314"/>
      <point x="25.5736142738" y="21.1132874304"/>
      <point x="25.5736142738" y="68.6063333903" type="curve" smooth="yes"/>
      <point x="25.5736142738" y="93.8438662354"/>
      <point x="86.3369750452" y="271.971647834"/>
      <point x="282.0" y="306.0" type="curve"/>
      <point x="421.0" y="466.0" type="line"/>
      <point x="423.63456055" y="516.056650452"/>
      <point x="417.364305927" y="714.741071429"/>
      <point x="243.028009976" y="714.741071429" type="curve" smooth="yes"/>
      <point x="192.331493218" y="714.741071429"/>
      <point x="127.152494261" y="696.588347386"/>
      <point x="29.0" y="533.0" type="curve"/>
      <point x="19.7039174079" y="547.740170896"/>
      <point x="13.5885135176" y="573.603863218"/>
      <point x="13.5885135176" y="603.138449618" type="curve" smooth="yes"/>
      <point x="13.5885135176" y="705.0"/>
      <point x="153.0" y="854.528535759"/>
      <point x="346.107425561" y="854.528535759" type="curve" smooth="yes"/>
      <point x="361.394397904" y="854.528535759"/>
      <point x="514.0" y="853.0"/>
      <point x="580.0" y="647.0" type="curve"/>
      <point x="599.0" y="669.0" type="line"/>
      <point x="599.0" y="740.0" type="line"/>
      <point x="624.646679405" y="762.79704836"/>
      <point x="694.163044886" y="825.234299621"/>
      <point x="826.0" y="835.0" type="curve"/>
      <point x="829.857518763" y="831.142481237"/>
      <point x="855.10568585" y="815.19459603"/>
      <point x="855.10568585" y="785.362543786" type="curve" smooth="yes"/>
      <point x="855.10568585" y="773.206620654"/>
      <point x="852.491136551" y="770.236704826"/>
      <point x="845.0" y="759.0" type="curve"/>
      <point x="832.200154083" y="765.162888775"/>
      <point x="818.950826533" y="768.40414693"/>
      <point x="806.637070006" y="768.40414693" type="curve" smooth="yes"/>
      <point x="779.358849878" y="768.40414693"/>
      <point x="752.0" y="751.355324048"/>
      <point x="752.0" y="705.62962963" type="curve" smooth="yes"/>
      <point x="752.0" y="216.0" type="line" smooth="yes"/>
      <point x="752.0" y="173.0"/>
      <point x="756.264648438" y="149.922851562"/>
      <point x="771.637695312" y="149.922851562" type="curve" smooth="yes"/>
      <point x="781.408203125" y="149.922851562"/>
      <point x="789.0" y="161.773168067"/>
      <point x="789.0" y="193.0" type="curve"/>
      <point x="823.0" y="193.0" type="line"/>
      <point x="824.690281997" y="181.168026021"/>
      <point x="826.698014353" y="168.066250607"/>
    </contour>
    <contour>
      <point x="600.0" y="587.0" type="line"/>
      <point x="358.0" y="300.0" type="line"/>
      <point x="410.179832081" y="277.637214822"/>
      <point x="435.050725639" y="162.14629164"/>
      <point x="505.033425314" y="162.14629164" type="curve" smooth="yes"/>
      <point x="529.642538043" y="162.14629164"/>
      <point x="598.136394155" y="252.181858873"/>
      <point x="601.0" y="256.0" type="curve"/>
    </contour>
  </outline>
</glyph>
<glyph name="Xi" format="2">
  <advance width="972"/>
  <unicode hex="039E"/>
  <outline>
    <contour>
      <point x="21.0" y="8.0" type="curve"/>
      <point x="70.0" y="-40.0" type="line"/>
      <point x="124.215820312" y="-2.974609375"/>
      <point x="222.962890625" y="50.0185546875"/>
      <point x="352.94921875" y="50.0185546875" type="curve" smooth="yes"/>
      <point x="405.748046875" y="50.0185546875"/>
      <point x="575.153320312" y="33.046875"/>
      <point x="812.0" y="4.0" type="curve"/>
      <point x="832.173828125" y="16.1044921875"/>
      <point x="931.80859375" y="74.6943359375"/>
      <point x="973.0" y="212.0" type="curve"/>
      <point x="912.0" y="211.0" type="line"/>
      <point x="900.805664062" y="198.685546875"/>
      <point x="869.858398438" y="166.759765625"/>
      <point x="810.25390625" y="166.759765625" type="curve" smooth="yes"/>
      <point x="765.879882812" y="166.759765625"/>
      <point x="665.623046875" y="202.4453125"/>
      <point x="484.850585938" y="202.4453125" type="curve" smooth="yes"/>
      <point x="349.610351562" y="202.4453125"/>
      <point x="180.37890625" y="187.095703125"/>
    </contour>
    <contour>
      <point x="430.0" y="87.0" type="line"/>
      <point x="506.0" y="87.0" type="line"/>
      <point x="506.0" y="750.0" type="line"/>
      <point x="430.0" y="750.0" type="line"/>
    </contour>
    <contour>
      <point x="21.0" y="621.0" type="curve"/>
      <point x="70.0" y="573.0" type="line"/>
      <point x="124.216304642" y="610.025769024"/>
      <point x="222.962410762" y="663.018477836"/>
      <point x="352.948735158" y="663.018477836" type="curve" smooth="yes"/>
      <point x="405.747920417" y="663.018477836"/>
      <point x="575.152992399" y="646.047274517"/>
      <point x="812.0" y="617.0" type="curve"/>
      <point x="832.173901191" y="629.104340715"/>
      <point x="931.80822746" y="687.694091533"/>
      <point x="973.0" y="825.0" type="curve"/>
      <point x="912.0" y="824.0" type="line"/>
      <point x="900.80525507" y="811.685780577"/>
      <point x="869.857933305" y="779.759295831"/>
      <point x="810.254256726" y="779.759295831" type="curve" smooth="yes"/>
      <point x="765.879483553" y="779.759295831"/>
      <point x="665.622978029" y="815.445551149"/>
      <point x="484.850336497" y="815.445551149" type="curve" smooth="yes"/>
      <point x="349.610663796" y="815.445551149"/>
      <point x="180.378575478" y="800.09551265"/>
    </contour>
    <component base="tilde" xScale="1.13595" xyScale="-0.0884172" yxScale="0.0959959" yScale="1.04627" xOffset="88.0" yOffset="-297.0"/>
  </outline>
</glyph>
<glyph name="Psi" format="2">
  <advance width="878"/>
  <unicode hex="03A8"/>
  <outline>
    <contour>
      <point x="196.0" y="245.0" type="line"/>
      <point x="168.0" y="303.0" type="line"/>
      <point x="462.0" y="443.0" type="line"/>
      <point x="490.0" y="385.0" type="line"/>
    </contour>
    <contour>
      <point x="189.0" y="382.0" type="line"/>
      <point x="161.0" y="441.0" type="line"/>
      <point x="455.0" y="580.0" type="line"/>
      <point x="483.0" y="522.0" type="line"/>
    </contour>
    <contour>
      <point x="747.0" y="825.0" type="line"/>
      <point x="877.201014407" y="680.332206215"/>
      <point x="877.812582811" y="430.091270447"/>
      <point x="837.0" y="252.0" type="curve"/>
      <point x="536.0" y="45.0" type="line"/>
      <point x="112.0" y="178.0" type="line"/>
      <point x="257.0" y="296.0" type="line"/>
      <point x="545.0" y="175.0" type="line"/>
      <point x="667.0" y="263.0" type="line" smooth="yes"/>
      <point x="716.0" y="299.0"/>
      <point x="733.100081448" y="534.811316877"/>
      <point x="641.0" y="703.0" type="curve" smooth="yes"/>
    </contour>
    <contour>
      <point x="152.0" y="257.0" type="line"/>
      <point x="147.333008347" y="266.579179407"/>
      <point x="134.866078063" y="298.270748803"/>
      <point x="61.0" y="353.0" type="curve"/>
      <point x="61.0" y="385.0" type="line"/>
      <point x="121.889845617" y="401.394514435"/>
      <point x="148.684727349" y="450.918137883"/>
      <point x="153.0" y="454.0" type="curve"/>
    </contour>
    <contour>
      <point x="140.0" y="462.0" type="line"/>
      <point x="61.0" y="541.0" type="line"/>
      <point x="151.0" y="601.0" type="line"/>
    </contour>
    <contour>
      <point x="121.0" y="180.0" type="line"/>
      <point x="121.0" y="650.0" type="line"/>
      <point x="83.0" y="687.0" type="line"/>
      <point x="35.0" y="643.0" type="line"/>
      <point x="5.0" y="672.0" type="line"/>
      <point x="167.0" y="835.0" type="line"/>
      <point x="292.0" y="735.0" type="line"/>
      <point x="292.0" y="153.0" type="line"/>
    </contour>
    <contour>
      <point x="431.0" y="-3.0" type="line"/>
      <point x="431.0" y="638.0" type="line"/>
      <point x="576.0" y="638.0" type="line"/>
      <point x="576.0" y="-3.0" type="line"/>
    </contour>
  </outline>
</glyph>
<glyph name="alpha" format="2">
  <advance width="522"/>
  <unicode hex="03B1"/>
  <outline>
    <contour>
      <point x="269.0" y="641.0" type="line"/>
      <point x="269.0" y="641.0"/>
      <point x="392.0" y="551.0"/>
      <point x="407.0" y="560.0" type="curve" smooth="yes"/>
      <point x="423.0" y="569.0"/>
      <point x="437.0" y="613.0"/>
      <point x="459.0" y="590.0" type="curve" smooth="yes"/>
      <point x="477.0" y="572.0"/>
      <point x="453.0" y="523.0"/>
      <point x="443.0" y="494.0" type="curve" smooth="yes"/>
      <point x="434.0" y="469.0"/>
      <point x="437.0" y="419.0"/>
      <point x="440.0" y="319.0" type="curve" smooth="yes"/>
      <point x="442.0" y="266.0"/>
      <point x="448.0" y="118.0"/>
      <point x="472.0" y="116.0" type="curve" smooth="yes"/>
      <point x="482.0" y="116.0"/>
      <point x="489.0" y="133.0"/>
      <point x="497.0" y="130.0" type="curve" smooth="yes"/>
      <point x="504.0" y="127.0"/>
      <point x="504.0" y="112.0"/>
      <point x="504.0" y="108.0" type="curve" smooth="yes"/>
      <point x="503.0" y="83.0"/>
      <point x="491.0" y="35.0"/>
      <point x="450.0" y="12.0" type="curve" smooth="yes"/>
      <point x="423.0" y="-3.0"/>
      <point x="394.0" y="-4.0"/>
      <point x="379.0" y="1.0" type="curve" smooth="yes"/>
      <point x="285.0" y="27.0"/>
      <point x="303.0" y="379.0"/>
      <point x="307.0" y="439.0" type="curve"/>
      <point x="267.0" y="469.0"/>
      <point x="226.0" y="497.0"/>
      <point x="185.0" y="526.0" type="curve"/>
      <point x="152.0" y="502.0"/>
      <point x="119.0" y="477.0"/>
      <point x="86.0" y="451.0" type="curve"/>
      <point x="78.0" y="466.0"/>
      <point x="99.0" y="475.0"/>
      <point x="91.0" y="490.0" type="curve"/>
      <point x="115.0" y="508.0"/>
      <point x="111.0" y="532.0"/>
      <point x="137.0" y="552.0" type="curve" smooth="yes"/>
      <point x="177.0" y="583.0"/>
      <point x="241.0" y="641.0"/>
      <point x="241.0" y="641.0" type="curve"/>
    </contour>
    <contour>
      <point x="152.0" y="540.0" type="curve" smooth="yes"/>
      <point x="173.0" y="540.0"/>
      <point x="191.0" y="527.0"/>
      <point x="203.0" y="516.0" type="curve"/>
      <point x="150.0" y="453.0"/>
      <point x="120.0" y="230.0"/>
      <point x="189.0" y="143.0" type="curve" smooth="yes"/>
      <point x="208.0" y="119.0"/>
      <point x="232.0" y="102.0"/>
      <point x="232.0" y="102.0" type="curve"/>
      <point x="364.0" y="214.0" type="line"/>
      <point x="364.0" y="202.0"/>
      <point x="376.0" y="178.0"/>
      <point x="376.0" y="166.0" type="curve"/>
      <point x="312.0" y="108.0"/>
      <point x="248.0" y="51.0"/>
      <point x="184.0" y="-7.0" type="curve"/>
      <point x="166.0" y="-2.0"/>
      <point x="138.0" y="6.0"/>
      <point x="113.0" y="27.0" type="curve" smooth="yes"/>
      <point x="50.0" y="78.0"/>
      <point x="16.0" y="179.0"/>
      <point x="20.0" y="311.0" type="curve" smooth="yes"/>
      <point x="24.0" y="454.0"/>
      <point x="94.0" y="541.0"/>
    </contour>
  </outline>
</glyph>
<glyph name="tau" format="2">
  <advance width="556"/>
  <unicode hex="03C4"/>
  <outline>
    <contour>
      <point x="356.583984375" y="118.958984375" type="curve" smooth="yes"/>
      <point x="375.641601562" y="118.958984375"/>
      <point x="368.64723217" y="146.632653061"/>
      <point x="382.38483965" y="146.632653061" type="curve" smooth="yes"/>
      <point x="400.243523621" y="146.632653061"/>
      <point x="408.233086136" y="133.197531492"/>
      <point x="408.233086136" y="114.443880184" type="curve" smooth="yes"/>
      <point x="408.233086136" y="54.0"/>
      <point x="365.580314289" y="-0.611269936286"/>
      <point x="303.45898261" y="-0.611269936286" type="curve" smooth="yes"/>
      <point x="238.671819895" y="-0.611269936286"/>
      <point x="199.0" y="48.0"/>
      <point x="199.0" y="72.0" type="curve" smooth="yes"/>
      <point x="200.301315562" y="484.766873708" type="line"/>
      <point x="200.301315562" y="484.766873708"/>
      <point x="147.016406404" y="516.969530963"/>
      <point x="147.0" y="517.0" type="curve" smooth="yes"/>
      <point x="153.830786453" y="523.623792924"/>
      <point x="200.432007064" y="553.704048782"/>
      <point x="259.586558006" y="553.704048782" type="curve" smooth="yes"/>
      <point x="292.714137622" y="553.704048782"/>
      <point x="329.7786867" y="544.270293307"/>
      <point x="366.0" y="516.0" type="curve"/>
      <point x="336.0" y="505.0"/>
      <point x="335.75308642" y="495.0"/>
      <point x="335.75308642" y="212.758573388" type="curve" smooth="yes"/>
      <point x="335.75308642" y="146.0"/>
      <point x="336.20703125" y="118.958984375"/>
    </contour>
    <contour>
      <point x="37.0" y="514.0" type="line"/>
      <point x="118.0" y="607.0" type="line"/>
      <point x="281.0" y="593.0"/>
      <point x="290.0" y="593.0"/>
      <point x="386.0" y="593.0" type="curve"/>
      <point x="433.0" y="639.0" type="line"/>
      <point x="483.0" y="639.0"/>
      <point x="522.0" y="593.0"/>
      <point x="522.0" y="560.0" type="curve" smooth="yes"/>
      <point x="522.0" y="473.127797553"/>
      <point x="492.605917257" y="458.46772807"/>
      <point x="161.951194546" y="458.46772807" type="curve" smooth="yes"/>
      <point x="120.562684076" y="458.46772807"/>
      <point x="78.1287536439" y="459.21179332"/>
      <point x="37.0" y="461.0" type="curve"/>
    </contour>
  </outline>
</glyph>
<glyph name="phi" format="2">
  <advance width="669"/>
  <unicode hex="03C6"/>
  <outline>
    <contour>
      <point x="308.333333333" y="138.666666667" type="curve" smooth="yes"/>
      <point x="126.45873763" y="138.666666667"/>
      <point x="19.0" y="261.134543111"/>
      <point x="19.0" y="384.0" type="curve" smooth="yes"/>
      <point x="19.0" y="500.916192206"/>
      <point x="183.396663639" y="641.0"/>
      <point x="388.0" y="641.0" type="curve" smooth="yes"/>
      <point x="597.581163806" y="641.0"/>
      <point x="651.0" y="482.638056796"/>
      <point x="651.0" y="417.0" type="curve" smooth="yes"/>
      <point x="651.0" y="262.242570284"/>
      <point x="438.810278831" y="138.666666667"/>
    </contour>
    <contour>
      <point x="511.0" y="372.0" type="curve" smooth="yes"/>
      <point x="511.0" y="417.782737434"/>
      <point x="487.034089498" y="545.0"/>
      <point x="333.0" y="545.0" type="curve" smooth="yes"/>
      <point x="225.0" y="545.0"/>
      <point x="147.0" y="500.0"/>
      <point x="147.0" y="413.0" type="curve" smooth="yes"/>
      <point x="147.0" y="383.076856228"/>
      <point x="158.783574499" y="204.845299462"/>
      <point x="373.717241476" y="204.845299462" type="curve" smooth="yes"/>
      <point x="463.122731699" y="204.845299462"/>
      <point x="511.0" y="315.520725262"/>
    </contour>
    <contour>
      <point x="389.0" y="833.0" type="line"/>
      <point x="389.0" y="590.0"/>
      <point x="393.0" y="304.0"/>
      <point x="393.0" y="61.0" type="curve"/>
      <point x="421.0" y="23.0" type="line"/>
      <point x="417.0" y="-16.0" type="line"/>
      <point x="410.0" y="-16.0"/>
      <point x="379.0" y="-16.0"/>
      <point x="345.0" y="-11.0" type="curve" smooth="yes"/>
      <point x="277.753486074" y="-1.11080677564"/>
      <point x="267.0" y="17.1485052245"/>
      <point x="267.0" y="70.0" type="curve" smooth="yes"/>
      <point x="267.0" y="297.0"/>
      <point x="263.0" y="606.0"/>
      <point x="263.0" y="833.0" type="curve"/>
    </contour>
  </outline>
</glyph>
<glyph name="uni041B" format="2">
  <advance width="743"/>
  <unicode hex="041B"/>
  <outline>
    <contour>
      <point x="84.0" y="792.0" type="line"/>
      <point x="85.0" y="733.0" type="line"/>
      <point x="684.0" y="736.0" type="line"/>
      <point x="688.0" y="828.0" type="line"/>
      <point x="82.0" y="828.0" type="line"/>
    </contour>
    <contour>
      <point x="10.0" y="99.0" type="curve" smooth="yes"/>
      <point x="214.0" y="0.0" type="line"/>
      <point x="266.0" y="52.0" type="line"/>
      <point x="266.0" y="777.0" type="line"/>
      <point x="82.0" y="812.0" type="line"/>
      <point x="82.0" y="177.0" type="line"/>
      <point x="82.0" y="177.0"/>
      <point x="12.0" y="97.0"/>
    </contour>
    <contour>
      <point x="110.0" y="592.0" type="line"/>
      <point x="110.0" y="592.0"/>
      <point x="91.0" y="552.0"/>
      <point x="64.0" y="532.0" type="curve" smooth="yes"/>
      <point x="37.0" y="512.0"/>
      <point x="20.0" y="495.0"/>
      <point x="20.0" y="495.0" type="curve"/>
      <point x="20.0" y="464.0" type="line"/>
      <point x="20.0" y="464.0"/>
      <point x="45.0" y="457.0"/>
      <point x="66.0" y="442.0" type="curve" smooth="yes"/>
      <point x="87.0" y="427.0"/>
      <point x="111.0" y="394.0"/>
      <point x="111.0" y="394.0" type="curve"/>
    </contour>
    <contour>
      <point x="99.0" y="387.0" type="line"/>
      <point x="20.0" y="308.0" type="line"/>
      <point x="109.0" y="247.0" type="line"/>
    </contour>
    <contour>
      <point x="305.0" y="777.0" type="line"/>
      <point x="305.0" y="140.0" type="line"/>
      <point x="370.0" y="140.0" type="line"/>
      <point x="370.0" y="777.0" type="line"/>
    </contour>
    <contour>
      <point x="350.0" y="487.0" type="line"/>
      <point x="322.0" y="429.0" type="line"/>
      <point x="616.0" y="289.0" type="line"/>
      <point x="644.0" y="347.0" type="line"/>
    </contour>
    <contour>
      <point x="343.0" y="350.0" type="line"/>
      <point x="315.0" y="291.0" type="line"/>
      <point x="609.0" y="151.0" type="line"/>
      <point x="636.0" y="210.0" type="line"/>
    </contour>
    <contour>
      <point x="535.0" y="828.0" type="line"/>
      <point x="535.0" y="165.0" type="line"/>
      <point x="456.0" y="108.0" type="line"/>
      <point x="336.0" y="193.0" type="line"/>
      <point x="313.0" y="149.0" type="line"/>
      <point x="528.0" y="0.0" type="line"/>
      <point x="556.0" y="0.0" type="line"/>
      <point x="684.0" y="85.0" type="line"/>
      <point x="684.0" y="831.0" type="line"/>
    </contour>
    <contour>
      <point x="229.0" y="204.0" type="line"/>
      <point x="229.0" y="140.0" type="line"/>
      <point x="313.0" y="140.0" type="line"/>
      <point x="313.0" y="204.0" type="line"/>
    </contour>
  </outline>
</glyph>
<glyph name="uni0426" format="2">
  <advance width="945"/>
  <unicode hex="0426"/>
  <outline>
    <contour>
      <point x="582.0" y="60.0" type="curve" smooth="yes"/>
      <point x="617.0" y="95.0"/>
      <point x="609.0" y="104.0"/>
      <point x="614.0" y="104.0" type="curve" smooth="yes"/>
      <point x="910.0" y="104.0" type="line"/>
      <point x="910.0" y="103.0" type="line"/>
      <point x="910.0" y="-100.0" type="line" smooth="yes"/>
      <point x="910.0" y="-111.17578125"/>
      <point x="782.0" y="-188.772315741"/>
      <point x="782.0" y="-176.0" type="curve" smooth="yes"/>
      <point x="782.0" y="-4.0" type="line"/>
      <point x="527.0" y="-4.0" type="line" smooth="yes"/>
      <point x="522.0" y="-4.0"/>
      <point x="547.0" y="25.0"/>
    </contour>
    <contour>
      <point x="629.0" y="104.0" type="line"/>
      <point x="629.0" y="188.0" type="line"/>
      <point x="629.0" y="353.0" type="line"/>
      <point x="623.0" y="359.0"/>
      <point x="616.0" y="364.0"/>
      <point x="609.0" y="369.0" type="curve" smooth="yes"/>
      <point x="584.0" y="386.0"/>
      <point x="567.0" y="393.0"/>
      <point x="547.0" y="396.0" type="curve"/>
      <point x="547.0" y="419.0" type="line"/>
      <point x="567.0" y="435.0"/>
      <point x="595.0" y="454.0"/>
      <point x="629.0" y="459.0" type="curve"/>
      <point x="629.0" y="573.0" type="line" smooth="yes"/>
      <point x="629.0" y="588.0"/>
      <point x="632.0" y="672.0"/>
      <point x="621.0" y="694.0" type="curve" smooth="yes"/>
      <point x="612.0" y="712.0"/>
      <point x="587.0" y="708.0"/>
      <point x="580.0" y="708.0" type="curve" smooth="yes"/>
      <point x="579.734375" y="708.59765625"/>
      <point x="524.0" y="823.0"/>
      <point x="613.0" y="823.0" type="curve" smooth="yes"/>
      <point x="629.763054614" y="823.0"/>
      <point x="629.0" y="823.0"/>
      <point x="690.0" y="823.0" type="curve" smooth="yes"/>
      <point x="751.0" y="823.0"/>
      <point x="778.0" y="828.0"/>
      <point x="799.0" y="822.0" type="curve" smooth="yes"/>
      <point x="805.0" y="820.0"/>
      <point x="855.0" y="804.0"/>
      <point x="866.0" y="768.0" type="curve" smooth="yes"/>
      <point x="874.0" y="741.0"/>
      <point x="857.0" y="716.0"/>
      <point x="843.0" y="689.0" type="curve" smooth="yes"/>
      <point x="808.0" y="620.0"/>
      <point x="811.0" y="519.0"/>
      <point x="816.0" y="377.0" type="curve" smooth="yes"/>
      <point x="817.0" y="352.0"/>
      <point x="815.0" y="205.0"/>
      <point x="817.0" y="105.0" type="curve"/>
      <point x="681.0" y="-5.0" type="line"/>
      <point x="339.0" y="-5.0" type="line"/>
      <point x="339.0" y="104.0" type="line"/>
    </contour>
    <contour>
      <point x="164.0" y="682.0" type="curve" smooth="yes"/>
      <point x="118.0" y="685.0"/>
      <point x="93.0" y="703.0"/>
      <point x="61.0" y="691.0" type="curve" smooth="yes"/>
      <point x="36.0" y="682.0"/>
      <point x="20.0" y="661.0"/>
      <point x="11.0" y="645.0" type="curve"/>
      <point x="-3.0" y="649.0"/>
      <point x="-16.0" y="653.0"/>
      <point x="-30.0" y="657.0" type="curve"/>
      <point x="-26.0" y="678.0"/>
      <point x="-16.0" y="720.0"/>
      <point x="19.0" y="758.0" type="curve" smooth="yes"/>
      <point x="23.0" y="762.0"/>
      <point x="83.0" y="827.0"/>
      <point x="172.0" y="826.0" type="curve" smooth="yes"/>
      <point x="240.0" y="825.0"/>
      <point x="278.0" y="786.0"/>
      <point x="344.0" y="782.0" type="curve" smooth="yes"/>
      <point x="403.0" y="779.0"/>
      <point x="452.0" y="805.0"/>
      <point x="485.0" y="829.0" type="curve"/>
      <point x="494.0" y="821.0"/>
      <point x="482.0" y="813.0"/>
      <point x="491.0" y="805.0" type="curve"/>
      <point x="490.845076807" y="804.883076835"/>
      <point x="327.972381154" y="667.741532074"/>
    </contour>
    <contour>
      <point x="162.0" y="80.0" type="line"/>
      <point x="162.0" y="756.0" type="line"/>
      <point x="348.0" y="756.0" type="line"/>
      <point x="348.0" y="80.0" type="line"/>
    </contour>
    <contour>
      <point x="192.0" y="263.0" type="curve"/>
      <point x="188.0" y="283.0"/>
      <point x="176.0" y="319.0"/>
      <point x="144.0" y="338.0" type="curve" smooth="yes"/>
      <point x="120.0" y="352.0"/>
      <point x="54.0" y="360.0"/>
      <point x="26.0" y="359.0" type="curve"/>
      <point x="28.0" y="372.0"/>
      <point x="30.0" y="386.0"/>
      <point x="32.0" y="399.0" type="curve"/>
      <point x="51.0" y="409.0"/>
      <point x="74.0" y="419.0"/>
      <point x="102.0" y="427.0" type="curve" smooth="yes"/>
      <point x="150.0" y="440.0"/>
      <point x="193.0" y="440.0"/>
      <point x="223.0" y="438.0" type="curve"/>
      <point x="213.0" y="380.0"/>
      <point x="202.0" y="321.0"/>
    </contour>
    <contour>
      <point x="180.0" y="462.0" type="curve"/>
      <point x="164.0" y="472.0"/>
      <point x="144.0" y="484.0"/>
      <point x="120.0" y="494.0" type="curve" smooth="yes"/>
      <point x="96.0" y="504.0"/>
      <point x="75.0" y="509.0"/>
      <point x="57.0" y="513.0" type="curve"/>
      <point x="58.0" y="526.0"/>
      <point x="58.0" y="537.0"/>
      <point x="59.0" y="550.0" type="curve"/>
      <point x="76.0" y="551.0"/>
      <point x="99.0" y="555.0"/>
      <point x="124.0" y="564.0" type="curve" smooth="yes"/>
      <point x="153.0" y="574.0"/>
      <point x="176.0" y="588.0"/>
      <point x="191.0" y="599.0" type="curve"/>
      <point x="187.0" y="554.0"/>
      <point x="184.0" y="508.0"/>
    </contour>
    <contour>
      <point x="401.0" y="74.0" type="curve"/>
      <point x="349.0" y="5.0"/>
      <point x="401.0" y="64.0"/>
      <point x="349.0" y="-5.0" type="curve"/>
      <point x="308.0" y="-5.0"/>
      <point x="189.732421875" y="-5.0"/>
      <point x="160.0" y="-5.0" type="curve" smooth="yes"/>
      <point x="118.635742188" y="-5.0"/>
      <point x="58.56" y="29.0"/>
      <point x="58.56" y="71.776" type="curve" smooth="yes"/>
      <point x="58.56" y="120.217036983"/>
      <point x="163.0" y="74.0"/>
      <point x="163.0" y="163.0" type="curve" smooth="yes"/>
      <point x="163.0" y="163.122070312"/>
      <point x="163.245117188" y="163.001953125"/>
      <point x="163.369140625" y="163.001953125" type="curve" smooth="yes"/>
      <point x="214.836914062" y="163.001953125"/>
      <point x="390.9216645" y="76.6011750396"/>
    </contour>
    <contour>
      <point x="403.0" y="99.0" type="line"/>
      <point x="403.0" y="785.0" type="line"/>
      <point x="477.0" y="785.0" type="line"/>
      <point x="477.0" y="99.0" type="line"/>
    </contour>
  </outline>
</glyph>
<glyph name="uni0427" format="2">
  <advance width="847"/>
  <unicode hex="0427"/>
  <outline>
    <contour>
      <point x="820.0" y="412.0" type="curve"/>
      <point x="657.0" y="557.0" type="line" smooth="yes"/>
      <point x="645.0" y="567.0"/>
      <point x="660.0" y="628.0"/>
      <point x="649.0" y="650.0" type="curve" smooth="yes"/>
      <point x="640.0" y="668.0"/>
      <point x="615.0" y="663.0"/>
      <point x="608.0" y="663.0" type="curve" smooth="yes"/>
      <point x="567.0" y="663.0"/>
      <point x="539.0" y="632.0"/>
      <point x="531.0" y="623.0" type="curve"/>
      <point x="508.0" y="630.0" type="line"/>
      <point x="524.0" y="691.0"/>
      <point x="548.0" y="730.0"/>
      <point x="566.0" y="757.0" type="curve" smooth="yes"/>
      <point x="590.0" y="792.0"/>
      <point x="609.0" y="817.0"/>
      <point x="641.0" y="828.0" type="curve" smooth="yes"/>
      <point x="657.0" y="833.0"/>
      <point x="657.0" y="828.0"/>
      <point x="718.0" y="828.0" type="curve" smooth="yes"/>
      <point x="779.0" y="828.0"/>
      <point x="782.0" y="833.0"/>
      <point x="803.0" y="827.0" type="curve" smooth="yes"/>
      <point x="809.0" y="825.0"/>
      <point x="859.0" y="809.0"/>
      <point x="870.0" y="773.0" type="curve" smooth="yes"/>
      <point x="878.0" y="746.0"/>
      <point x="862.0" y="721.0"/>
      <point x="848.0" y="694.0" type="curve" smooth="yes"/>
      <point x="813.0" y="625.0"/>
      <point x="815.0" y="554.0"/>
    </contour>
    <contour>
      <point x="825.0" y="779.0" type="line"/>
      <point x="825.0" y="538.0"/>
      <point x="830.0" y="302.0"/>
      <point x="830.0" y="61.0" type="curve"/>
      <point x="841.0" y="48.0"/>
      <point x="853.0" y="36.0"/>
      <point x="864.0" y="23.0" type="curve"/>
      <point x="863.0" y="10.0"/>
      <point x="860.0" y="-2.0"/>
      <point x="859.0" y="-15.0" type="curve"/>
      <point x="814.0" y="-17.0"/>
      <point x="777.0" y="-14.0"/>
      <point x="751.0" y="-10.0" type="curve" smooth="yes"/>
      <point x="688.0" y="-1.0"/>
      <point x="674.0" y="13.0"/>
      <point x="667.0" y="23.0" type="curve" smooth="yes"/>
      <point x="654.0" y="41.0"/>
      <point x="656.0" y="63.0"/>
      <point x="656.0" y="70.0" type="curve" smooth="yes"/>
      <point x="656.0" y="295.0"/>
      <point x="652.0" y="554.0"/>
      <point x="652.0" y="779.0" type="curve"/>
    </contour>
    <contour>
      <point x="692.0" y="364.0" type="line"/>
      <point x="705.0" y="260.0" type="line"/>
      <point x="348.0" y="260.0" type="line"/>
      <point x="348.0" y="364.0" type="line"/>
    </contour>
    <contour>
      <point x="292.0" y="696.0" type="curve" smooth="yes"/>
      <point x="250.0" y="682.0"/>
      <point x="217.0" y="680.0"/>
      <point x="194.0" y="682.0" type="curve" smooth="yes"/>
      <point x="148.0" y="685.0"/>
      <point x="123.0" y="703.0"/>
      <point x="91.0" y="691.0" type="curve" smooth="yes"/>
      <point x="66.0" y="682.0"/>
      <point x="50.0" y="661.0"/>
      <point x="41.0" y="645.0" type="curve"/>
      <point x="27.0" y="649.0"/>
      <point x="14.0" y="653.0"/>
      <point x="0.0" y="657.0" type="curve"/>
      <point x="4.0" y="678.0"/>
      <point x="14.0" y="720.0"/>
      <point x="49.0" y="758.0" type="curve" smooth="yes"/>
      <point x="53.0" y="762.0"/>
      <point x="113.0" y="827.0"/>
      <point x="202.0" y="826.0" type="curve" smooth="yes"/>
      <point x="270.0" y="825.0"/>
      <point x="288.0" y="786.0"/>
      <point x="354.0" y="782.0" type="curve" smooth="yes"/>
      <point x="413.0" y="779.0"/>
      <point x="462.0" y="805.0"/>
      <point x="495.0" y="829.0" type="curve"/>
      <point x="504.0" y="821.0"/>
      <point x="511.0" y="813.0"/>
      <point x="520.0" y="805.0" type="curve"/>
      <point x="467.0" y="765.0"/>
      <point x="438.0" y="745.0"/>
      <point x="301.0" y="699.0" type="curve" smooth="yes"/>
      <point x="298.0" y="698.0"/>
      <point x="295.0" y="697.0"/>
    </contour>
    <contour>
      <point x="191.0" y="261.0" type="line"/>
      <point x="191.0" y="756.0" type="line"/>
      <point x="358.0" y="756.0" type="line"/>
      <point x="358.0" y="261.0" type="line"/>
    </contour>
    <contour>
      <point x="221.0" y="263.0" type="curve"/>
      <point x="217.0" y="283.0"/>
      <point x="206.0" y="319.0"/>
      <point x="174.0" y="338.0" type="curve" smooth="yes"/>
      <point x="150.0" y="352.0"/>
      <point x="83.0" y="360.0"/>
      <point x="55.0" y="359.0" type="curve"/>
      <point x="57.0" y="372.0"/>
      <point x="60.0" y="386.0"/>
      <point x="62.0" y="399.0" type="curve"/>
      <point x="81.0" y="409.0"/>
      <point x="104.0" y="419.0"/>
      <point x="132.0" y="427.0" type="curve" smooth="yes"/>
      <point x="180.0" y="440.0"/>
      <point x="223.0" y="440.0"/>
      <point x="253.0" y="438.0" type="curve"/>
      <point x="243.0" y="380.0"/>
      <point x="231.0" y="321.0"/>
    </contour>
    <contour>
      <point x="210.0" y="462.0" type="curve"/>
      <point x="194.0" y="472.0"/>
      <point x="174.0" y="484.0"/>
      <point x="150.0" y="494.0" type="curve" smooth="yes"/>
      <point x="126.0" y="504.0"/>
      <point x="105.0" y="509.0"/>
      <point x="87.0" y="513.0" type="curve"/>
      <point x="88.0" y="526.0"/>
      <point x="88.0" y="537.0"/>
      <point x="89.0" y="550.0" type="curve"/>
      <point x="106.0" y="551.0"/>
      <point x="129.0" y="555.0"/>
      <point x="154.0" y="564.0" type="curve" smooth="yes"/>
      <point x="183.0" y="574.0"/>
      <point x="205.0" y="588.0"/>
      <point x="220.0" y="599.0" type="curve"/>
      <point x="216.0" y="554.0"/>
      <point x="214.0" y="508.0"/>
    </contour>
    <contour>
      <point x="413.0" y="270.0" type="line"/>
      <point x="413.0" y="785.0" type="line"/>
      <point x="487.0" y="785.0" type="line"/>
      <point x="487.0" y="270.0" type="line"/>
    </contour>
  </outline>
</glyph>
<glyph name="uni042C" format="2">
  <advance width="855"/>
  <unicode hex="042C"/>
  <outline>
    <contour>
      <point x="546.0" y="-8.0" type="curve"/>
      <point x="432.0" y="31.0"/>
      <point x="320.0" y="69.0"/>
      <point x="206.0" y="108.0" type="curve"/>
      <point x="224.0" y="145.0"/>
      <point x="242.0" y="183.0"/>
      <point x="260.0" y="220.0" type="curve"/>
      <point x="377.0" y="187.0"/>
      <point x="495.0" y="153.0"/>
      <point x="612.0" y="120.0" type="curve"/>
      <point x="629.0" y="126.0"/>
      <point x="651.0" y="138.0"/>
      <point x="667.0" y="158.0" type="curve" smooth="yes"/>
      <point x="682.0" y="177.0"/>
      <point x="699.0" y="211.0"/>
      <point x="664.0" y="336.0" type="curve" smooth="yes"/>
      <point x="635.0" y="437.0"/>
      <point x="622.0" y="488.0"/>
      <point x="584.0" y="519.0" type="curve" smooth="yes"/>
      <point x="528.0" y="565.0"/>
      <point x="448.0" y="578.0"/>
      <point x="415.0" y="584.0" type="curve" smooth="yes"/>
      <point x="390.0" y="588.0"/>
      <point x="370.0" y="590.0"/>
      <point x="355.0" y="591.0" type="curve"/>
      <point x="369.0" y="601.0"/>
      <point x="386.0" y="614.0"/>
      <point x="407.0" y="631.0" type="curve" smooth="yes"/>
      <point x="422.0" y="643.0"/>
      <point x="438.0" y="659.0"/>
      <point x="459.0" y="675.0" type="curve" smooth="yes"/>
      <point x="477.0" y="688.0"/>
      <point x="501.0" y="709.0"/>
      <point x="526.0" y="740.0" type="curve"/>
      <point x="552.0" y="740.0"/>
      <point x="577.0" y="741.0"/>
      <point x="603.0" y="741.0" type="curve"/>
      <point x="596.0" y="728.0"/>
      <point x="588.0" y="710.0"/>
      <point x="591.0" y="689.0" type="curve" smooth="yes"/>
      <point x="598.0" y="644.0"/>
      <point x="652.0" y="626.0"/>
      <point x="698.0" y="592.0" type="curve" smooth="yes"/>
      <point x="788.0" y="526.0"/>
      <point x="811.0" y="427.0"/>
      <point x="823.0" y="376.0" type="curve" smooth="yes"/>
      <point x="835.0" y="326.0"/>
      <point x="850.0" y="259.0"/>
      <point x="811.0" y="189.0" type="curve" smooth="yes"/>
      <point x="786.0" y="144.0"/>
      <point x="750.0" y="117.0"/>
      <point x="726.0" y="102.0" type="curve"/>
      <point x="700.0" y="92.0"/>
      <point x="671.0" y="79.0"/>
      <point x="639.0" y="60.0" type="curve" smooth="yes"/>
      <point x="600.0" y="37.0"/>
      <point x="569.0" y="13.0"/>
    </contour>
    <contour>
      <point x="123.0" y="689.0" type="curve"/>
      <point x="96.0" y="684.0"/>
      <point x="62.0" y="667.0"/>
      <point x="46.0" y="655.0" type="curve"/>
      <point x="41.0" y="665.0"/>
      <point x="35.0" y="675.0"/>
      <point x="30.0" y="685.0" type="curve"/>
      <point x="43.0" y="706.0"/>
      <point x="63.0" y="737.0"/>
      <point x="94.0" y="769.0" type="curve" smooth="yes"/>
      <point x="134.0" y="809.0"/>
      <point x="163.0" y="839.0"/>
      <point x="198.0" y="837.0" type="curve" smooth="yes"/>
      <point x="240.0" y="835.0"/>
      <point x="278.0" y="789.0"/>
      <point x="297.0" y="728.0" type="curve"/>
      <point x="297.0" y="487.0"/>
      <point x="297.0" y="312.0"/>
      <point x="297.0" y="71.0" type="curve"/>
      <point x="308.0" y="58.0"/>
      <point x="319.0" y="46.0"/>
      <point x="330.0" y="33.0" type="curve"/>
      <point x="329.0" y="20.0"/>
      <point x="327.0" y="7.0"/>
      <point x="326.0" y="-6.0" type="curve"/>
      <point x="281.0" y="-8.0"/>
      <point x="244.0" y="-4.0"/>
      <point x="218.0" y="-0.0" type="curve" smooth="yes"/>
      <point x="155.0" y="9.0"/>
      <point x="140.0" y="23.0"/>
      <point x="133.0" y="33.0" type="curve" smooth="yes"/>
      <point x="120.0" y="51.0"/>
      <point x="123.0" y="73.0"/>
      <point x="123.0" y="80.0" type="curve" smooth="yes"/>
      <point x="123.0" y="305.0"/>
      <point x="123.0" y="464.0"/>
    </contour>
    <contour>
      <point x="208.0" y="537.0" type="curve"/>
      <point x="193.0" y="494.0"/>
      <point x="179.0" y="452.0"/>
      <point x="164.0" y="409.0" type="curve"/>
      <point x="160.0" y="418.0"/>
      <point x="145.0" y="450.0"/>
      <point x="108.0" y="468.0" type="curve" smooth="yes"/>
      <point x="73.0" y="485.0"/>
      <point x="41.0" y="480.0"/>
      <point x="31.0" y="478.0" type="curve"/>
      <point x="33.0" y="493.0"/>
      <point x="38.0" y="516.0"/>
      <point x="56.0" y="534.0" type="curve" smooth="yes"/>
      <point x="89.0" y="567.0"/>
      <point x="152.0" y="571.0"/>
    </contour>
    <contour>
      <point x="204.0" y="364.0" type="curve"/>
      <point x="188.0" y="313.0"/>
      <point x="171.0" y="262.0"/>
      <point x="154.0" y="211.0" type="curve"/>
      <point x="141.0" y="228.0"/>
      <point x="120.0" y="252.0"/>
      <point x="87.0" y="272.0" type="curve" smooth="yes"/>
      <point x="61.0" y="288.0"/>
      <point x="37.0" y="297.0"/>
      <point x="19.0" y="302.0" type="curve"/>
      <point x="28.0" y="315.0"/>
      <point x="48.0" y="341.0"/>
      <point x="84.0" y="358.0" type="curve" smooth="yes"/>
      <point x="139.0" y="384.0"/>
      <point x="192.0" y="368.0"/>
    </contour>
    <contour>
      <point x="354.0" y="39.0" type="line"/>
      <point x="354.0" y="591.0" type="line"/>
      <point x="420.0" y="591.0" type="line"/>
      <point x="420.0" y="39.0" type="line"/>
    </contour>
    <contour>
      <point x="408.0" y="209.0" type="line"/>
      <point x="379.0" y="268.0" type="line"/>
      <point x="710.0" y="437.0" type="line"/>
      <point x="740.0" y="378.0" type="line"/>
    </contour>
    <contour>
      <point x="399.0" y="346.0" type="line"/>
      <point x="370.0" y="405.0" type="line"/>
      <point x="701.0" y="574.0" type="line"/>
      <point x="731.0" y="515.0" type="line"/>
    </contour>
  </outline>
</glyph>
<glyph name="uni042E" format="2">
  <advance width="1477"/>
  <unicode hex="042E"/>
  <outline>
    <contour>
      <point x="647.0" y="267.0" type="curve"/>
      <point x="550.792308796" y="267.0"/>
      <point x="472.736011516" y="291.172851562"/>
      <point x="376.528320312" y="291.172851562" type="curve" smooth="yes"/>
      <point x="349.453125" y="291.172851562"/>
      <point x="323.28125" y="283.049804688"/>
      <point x="302.522460938" y="265.90234375" type="curve"/>
      <point x="298.009765625" y="277.635742188"/>
      <point x="295.302734375" y="289.3671875"/>
      <point x="295.302734375" y="301.099609375" type="curve" smooth="yes"/>
      <point x="295.302734375" y="358.860351562"/>
      <point x="339.490234375" y="400.444335938"/>
      <point x="388.259765625" y="410.196289062" type="curve" smooth="yes"/>
      <point x="401.797851562" y="412.903320312"/>
      <point x="416.23828125" y="413.805664062"/>
      <point x="430.677734375" y="413.805664062" type="curve" smooth="yes"/>
      <point x="453.240234375" y="413.805664062"/>
      <point x="474.900390625" y="412.0"/>
      <point x="497.462890625" y="412.0" type="curve" smooth="yes"/>
      <point x="548.002929688" y="412.0"/>
      <point x="586.810546875" y="423.733398438"/>
      <point x="620.203125" y="451.7109375" type="curve"/>
      <point x="789.147460938" y="412.12109375"/>
      <point x="647.0" y="267.0"/>
    </contour>
    <component base="uni041E" xOffset="413.0"/>
    <component base="I"/>
  </outline>
</glyph>
<glyph name="uni042F" format="2">
  <advance width="936"/>
  <unicode hex="042F"/>
  <outline>
    <contour>
      <point x="557.0" y="147.0" type="line"/>
      <point x="557.0" y="698.0" type="line"/>
      <point x="500.0" y="698.0" type="line"/>
      <point x="500.0" y="147.0" type="line"/>
    </contour>
    <contour>
      <point x="612.0" y="648.0" type="curve"/>
      <point x="576.0" y="703.0"/>
      <point x="557.0" y="719.0"/>
      <point x="506.0" y="755.0" type="curve" smooth="yes"/>
      <point x="484.0" y="770.0"/>
      <point x="433.0" y="806.0"/>
      <point x="360.0" y="810.0" type="curve" smooth="yes"/>
      <point x="351.0" y="810.0"/>
      <point x="254.0" y="813.0"/>
      <point x="176.0" y="746.0" type="curve" smooth="yes"/>
      <point x="152.0" y="726.0"/>
      <point x="122.0" y="700.0"/>
      <point x="121.0" y="664.0" type="curve" smooth="yes"/>
      <point x="121.0" y="653.0"/>
      <point x="124.0" y="632.0"/>
      <point x="158.0" y="592.0" type="curve" smooth="yes"/>
      <point x="200.0" y="543.0"/>
      <point x="250.0" y="513.0"/>
      <point x="289.0" y="494.0" type="curve"/>
      <point x="221.0" y="439.0"/>
      <point x="191.0" y="385.0"/>
      <point x="177.0" y="344.0" type="curve" smooth="yes"/>
      <point x="156.0" y="284.0"/>
      <point x="159.0" y="219.0"/>
      <point x="109.0" y="186.0" type="curve" smooth="yes"/>
      <point x="84.0" y="169.0"/>
      <point x="55.0" y="167.0"/>
      <point x="36.0" y="168.0" type="curve" smooth="yes"/>
      <point x="34.0" y="164.0"/>
      <point x="33.0" y="159.0"/>
      <point x="31.0" y="156.0" type="curve" smooth="yes"/>
      <point x="45.0" y="129.0"/>
      <point x="75.0" y="79.0"/>
      <point x="133.0" y="50.0" type="curve" smooth="yes"/>
      <point x="149.0" y="42.0"/>
      <point x="235.0" y="4.0"/>
      <point x="277.0" y="37.0" type="curve" smooth="yes"/>
      <point x="289.0" y="46.0"/>
      <point x="293.0" y="58.0"/>
      <point x="296.0" y="67.0" type="curve" smooth="yes"/>
      <point x="339.0" y="176.0"/>
      <point x="309.0" y="200.0"/>
      <point x="332.0" y="286.0" type="curve" smooth="yes"/>
      <point x="347.0" y="344.0"/>
      <point x="377.0" y="376.0"/>
      <point x="426.0" y="413.0" type="curve" smooth="yes"/>
      <point x="441.0" y="425.0"/>
      <point x="503.0" y="415.0"/>
      <point x="503.0" y="415.0" type="curve"/>
      <point x="504.0" y="424.0"/>
      <point x="507.0" y="476.0"/>
      <point x="508.0" y="484.0" type="curve"/>
      <point x="495.0" y="484.0"/>
      <point x="443.0" y="479.0"/>
      <point x="424.0" y="481.0" type="curve" smooth="yes"/>
      <point x="364.0" y="486.0"/>
      <point x="359.0" y="496.0"/>
      <point x="335.0" y="521.0" type="curve" smooth="yes"/>
      <point x="298.0" y="559.0"/>
      <point x="308.0" y="604.0"/>
      <point x="351.0" y="645.0" type="curve" smooth="yes"/>
      <point x="389.0" y="681.0"/>
      <point x="434.0" y="683.0"/>
      <point x="472.0" y="680.0" type="curve" smooth="yes"/>
      <point x="524.0" y="675.0"/>
      <point x="582.0" y="627.0"/>
      <point x="610.0" y="609.0" type="curve"/>
      <point x="611.0" y="612.0"/>
      <point x="612.0" y="648.0"/>
    </contour>
    <contour>
      <point x="910.0" y="737.0" type="line"/>
      <point x="909.0" y="738.0"/>
      <point x="893.0" y="761.0"/>
      <point x="852.0" y="791.0" type="curve" smooth="yes"/>
      <point x="828.0" y="808.0"/>
      <point x="812.0" y="814.0"/>
      <point x="799.0" y="816.0" type="curve" smooth="yes"/>
      <point x="748.0" y="823.0"/>
      <point x="687.0" y="773.0"/>
      <point x="644.0" y="726.0" type="curve" smooth="yes"/>
      <point x="614.0" y="693.0"/>
      <point x="597.0" y="650.0"/>
      <point x="602.0" y="605.0" type="curve" smooth="yes"/>
      <point x="608.0" y="545.0"/>
      <point x="607.0" y="299.0"/>
      <point x="606.0" y="195.0" type="curve"/>
      <point x="572.0" y="192.0"/>
      <point x="546.0" y="185.0"/>
      <point x="544.0" y="184.0" type="curve" smooth="yes"/>
      <point x="510.0" y="174.0"/>
      <point x="504.0" y="166.0"/>
      <point x="480.0" y="162.0" type="curve" smooth="yes"/>
      <point x="448.0" y="155.0"/>
      <point x="401.0" y="161.0"/>
      <point x="340.0" y="201.0" type="curve"/>
      <point x="328.0" y="171.0" type="line"/>
      <point x="380.0" y="117.0"/>
      <point x="433.0" y="62.0"/>
      <point x="485.0" y="9.0" type="curve"/>
      <point x="517.0" y="24.0"/>
      <point x="557.0" y="39.0"/>
      <point x="608.0" y="52.0" type="curve" smooth="yes"/>
      <point x="657.0" y="65.0"/>
      <point x="720.0" y="79.0"/>
      <point x="799.0" y="73.0" type="curve" smooth="yes"/>
      <point x="834.0" y="71.0"/>
      <point x="912.0" y="49.0"/>
      <point x="912.0" y="49.0" type="curve"/>
      <point x="916.0" y="59.0"/>
      <point x="920.0" y="69.0"/>
      <point x="923.0" y="77.0" type="curve"/>
      <point x="923.0" y="77.0"/>
      <point x="886.0" y="112.0"/>
      <point x="858.0" y="127.0" type="curve" smooth="yes"/>
      <point x="825.0" y="145.0"/>
      <point x="796.0" y="161.0"/>
      <point x="766.0" y="173.0" type="curve"/>
      <point x="768.0" y="173.0"/>
      <point x="769.0" y="173.0"/>
      <point x="771.0" y="173.0" type="curve"/>
      <point x="771.0" y="215.0"/>
      <point x="772.0" y="475.0"/>
      <point x="772.0" y="522.0" type="curve"/>
      <point x="772.0" y="543.0"/>
      <point x="772.0" y="564.0"/>
      <point x="772.0" y="583.0" type="curve" smooth="yes"/>
      <point x="772.0" y="585.0" type="line"/>
      <point x="772.0" y="586.0" type="line" smooth="yes"/>
      <point x="775.0" y="596.0"/>
      <point x="786.0" y="629.0"/>
      <point x="818.0" y="647.0" type="curve" smooth="yes"/>
      <point x="838.0" y="658.0"/>
      <point x="870.0" y="660.0"/>
      <point x="884.0" y="654.0" type="curve" smooth="yes"/>
    </contour>
  </outline>
</glyph>
<glyph name="uni0433" format="2">
  <advance width="538"/>
  <unicode hex="0433"/>
  <outline>
    <contour>
      <point x="73.0" y="364.0" type="line"/>
      <point x="71.0" y="96.0" type="line"/>
      <point x="71.0" y="96.0"/>
      <point x="132.0" y="77.0"/>
      <point x="182.0" y="46.0" type="curve" smooth="yes"/>
      <point x="232.0" y="15.0"/>
      <point x="259.0" y="-9.0"/>
      <point x="259.0" y="-9.0" type="curve"/>
      <point x="384.0" y="37.0"/>
      <point x="403.0" y="40.0"/>
      <point x="485.0" y="40.0" type="curve"/>
      <point x="485.0" y="159.0" type="line"/>
      <point x="364.0" y="159.0"/>
      <point x="282.0" y="139.0"/>
      <point x="211.0" y="106.0" type="curve"/>
      <point x="198.0" y="272.0" type="line"/>
      <point x="495.0" y="272.0" type="line"/>
      <point x="495.0" y="515.0" type="line"/>
      <point x="495.0" y="515.0"/>
      <point x="431.0" y="528.0"/>
      <point x="400.0" y="556.0" type="curve" smooth="yes"/>
      <point x="369.0" y="584.0"/>
      <point x="320.0" y="626.0"/>
      <point x="320.0" y="626.0" type="curve"/>
      <point x="264.0" y="598.0"/>
      <point x="174.0" y="594.0"/>
      <point x="84.0" y="594.0" type="curve"/>
      <point x="154.0" y="465.0" type="line"/>
      <point x="191.0" y="465.0"/>
      <point x="306.0" y="489.0"/>
      <point x="362.0" y="507.0" type="curve"/>
      <point x="361.0" y="364.0" type="line"/>
    </contour>
  </outline>
</glyph>
<glyph name="uni043C" format="2">
  <advance width="713"/>
  <unicode hex="043C"/>
  <outline>
    <contour>
      <point x="491.0" y="528.0" type="curve" smooth="yes"/>
      <point x="496.0" y="559.0"/>
      <point x="499.0" y="582.0"/>
      <point x="525.0" y="602.0" type="curve" smooth="yes"/>
      <point x="546.0" y="618.0"/>
      <point x="571.0" y="619.0"/>
      <point x="587.0" y="619.0" type="curve"/>
      <point x="619.0" y="585.0"/>
      <point x="662.0" y="550.0"/>
      <point x="694.0" y="516.0" type="curve"/>
      <point x="632.0" y="472.0" type="line"/>
      <point x="628.0" y="364.0"/>
      <point x="632.0" y="282.0"/>
      <point x="629.0" y="221.0" type="curve" smooth="yes"/>
      <point x="626.0" y="146.0"/>
      <point x="638.0" y="129.0"/>
      <point x="638.0" y="129.0" type="curve"/>
      <point x="668.0" y="104.0"/>
      <point x="675.0" y="114.0"/>
      <point x="693.0" y="108.0" type="curve" smooth="yes"/>
      <point x="711.0" y="102.0"/>
      <point x="608.0" y="-1.0"/>
      <point x="585.0" y="0.0" type="curve" smooth="yes"/>
      <point x="557.0" y="2.0"/>
      <point x="509.0" y="64.0"/>
      <point x="498.0" y="88.0" type="curve"/>
      <point x="498.0" y="203.0"/>
      <point x="498.0" y="314.0"/>
      <point x="498.0" y="429.0" type="curve" smooth="yes"/>
      <point x="498.0" y="433.0"/>
      <point x="485.0" y="489.0"/>
    </contour>
    <contour>
      <point x="184.0" y="466.0" type="line"/>
      <point x="184.0" y="599.0" type="line"/>
      <point x="223.0" y="573.0"/>
      <point x="284.0" y="504.0"/>
      <point x="362.0" y="430.0" type="curve"/>
      <point x="437.748046875" y="512.732421875"/>
      <point x="473.0" y="558.0"/>
      <point x="525.0" y="602.0" type="curve"/>
      <point x="525.0" y="454.0" type="line"/>
      <point x="362.0" y="279.0" type="line"/>
    </contour>
    <contour>
      <point x="19.0" y="515.0" type="curve"/>
      <point x="51.0" y="549.0"/>
      <point x="95.0" y="583.0"/>
      <point x="127.0" y="617.0" type="curve"/>
      <point x="143.0" y="617.0"/>
      <point x="171.0" y="609.0"/>
      <point x="192.0" y="593.0" type="curve" smooth="yes"/>
      <point x="218.0" y="573.0"/>
      <point x="220.0" y="546.0"/>
      <point x="222.0" y="526.0" type="curve" smooth="yes"/>
      <point x="229.0" y="461.0"/>
      <point x="230.0" y="324.0"/>
      <point x="223.0" y="148.0" type="curve"/>
      <point x="248.0" y="129.0"/>
      <point x="272.0" y="110.0"/>
      <point x="297.0" y="92.0" type="curve"/>
      <point x="260.0" y="59.0"/>
      <point x="212.0" y="27.0"/>
      <point x="175.0" y="-7.0" type="curve"/>
      <point x="135.0" y="29.0"/>
      <point x="95.0" y="62.0"/>
      <point x="55.0" y="98.0" type="curve"/>
      <point x="64.0" y="104.0"/>
      <point x="77.0" y="113.0"/>
      <point x="84.0" y="127.0" type="curve" smooth="yes"/>
      <point x="94.0" y="146.0"/>
      <point x="94.0" y="162.0"/>
      <point x="94.0" y="169.0" type="curve" smooth="yes"/>
      <point x="94.0" y="205.0"/>
      <point x="94.0" y="316.0"/>
      <point x="94.0" y="468.0" type="curve"/>
      <point x="68.0" y="484.0"/>
      <point x="44.0" y="499.0"/>
    </contour>
  </outline>
</glyph>
<glyph name="uni043D" format="2">
  <advance width="646"/>
  <unicode hex="043D"/>
  <outline>
    <contour>
      <point x="197.0" y="379.0" type="line"/>
      <point x="431.0" y="379.0" type="line"/>
      <point x="431.0" y="284.0" type="line"/>
      <point x="197.0" y="284.0" type="line"/>
    </contour>
    <contour>
      <point x="421.0" y="24.0" type="line"/>
      <point x="421.0" y="469.0" type="line"/>
      <point x="384.0" y="514.0" type="line"/>
      <point x="484.0" y="603.0" type="line"/>
      <point x="553.0" y="529.0" type="line"/>
      <point x="553.0" y="87.0" type="line"/>
    </contour>
    <contour>
      <point x="212.0" y="257.0" type="line" smooth="yes"/>
      <point x="211.694857066" y="178.842723074"/>
      <point x="224.0" y="144.0"/>
      <point x="283.0" y="144.0" type="curve"/>
      <point x="303.0" y="117.0" type="line"/>
      <point x="165.0" y="0.0" type="line"/>
      <point x="81.0" y="81.0" type="line"/>
      <point x="81.0" y="469.0" type="line"/>
      <point x="44.0" y="514.0" type="line"/>
      <point x="144.0" y="603.0" type="line"/>
      <point x="213.0" y="529.0" type="line"/>
    </contour>
  </outline>
</glyph>
<glyph name="uni0449" format="2">
  <advance width="864"/>
  <unicode hex="0449"/>
  <outline>
    <contour>
      <point x="843.0" y="-66.0" type="curve" smooth="yes"/>
      <point x="837.0" y="-91.0"/>
      <point x="783.0" y="-146.0"/>
      <point x="755.0" y="-173.0" type="curve"/>
      <point x="739.0" y="-173.0"/>
      <point x="692.0" y="-171.0"/>
      <point x="672.0" y="-156.0" type="curve" smooth="yes"/>
      <point x="646.0" y="-136.0"/>
      <point x="642.0" y="-103.0"/>
      <point x="639.0" y="-83.0" type="curve" smooth="yes"/>
      <point x="632.0" y="-18.0"/>
      <point x="631.0" y="301.0"/>
      <point x="638.0" y="475.0" type="curve"/>
      <point x="614.0" y="493.0"/>
      <point x="590.0" y="512.0"/>
      <point x="566.0" y="530.0" type="curve"/>
      <point x="602.0" y="562.0"/>
      <point x="638.0" y="661.0"/>
      <point x="674.0" y="628.0" type="curve" smooth="yes"/>
      <point x="713.0" y="593.0"/>
      <point x="774.0" y="559.0"/>
      <point x="813.0" y="524.0" type="curve"/>
      <point x="804.0" y="518.0"/>
      <point x="792.0" y="510.0"/>
      <point x="785.0" y="496.0" type="curve" smooth="yes"/>
      <point x="775.0" y="478.0"/>
      <point x="775.0" y="461.0"/>
      <point x="775.0" y="454.0" type="curve" smooth="yes"/>
      <point x="775.0" y="419.0"/>
      <point x="775.0" y="126.0"/>
      <point x="775.0" y="-25.0" type="curve" smooth="yes"/>
      <point x="775.0" y="-48.0"/>
      <point x="792.0" y="-37.0"/>
      <point x="803.0" y="-26.0" type="curve" smooth="yes"/>
      <point x="820.0" y="-9.0"/>
      <point x="822.0" y="-1.0"/>
      <point x="828.0" y="-1.0" type="curve" smooth="yes"/>
      <point x="838.0" y="-1.0"/>
      <point x="852.0" y="-35.0"/>
    </contour>
    <contour>
      <point x="529.0" y="551.0" type="curve"/>
      <point x="515.0" y="524.0"/>
      <point x="499.0" y="497.0"/>
      <point x="487.0" y="469.0" type="curve"/>
      <point x="487.0" y="310.0"/>
      <point x="488.0" y="196.0"/>
      <point x="487.0" y="189.0" type="curve" smooth="yes"/>
      <point x="487.0" y="188.0"/>
      <point x="486.0" y="181.0"/>
      <point x="489.0" y="171.0" type="curve"/>
      <point x="489.0" y="170.0" type="line"/>
      <point x="496.0" y="136.0"/>
      <point x="525.0" y="123.0"/>
      <point x="525.0" y="123.0" type="curve"/>
      <point x="532.0" y="120.0"/>
      <point x="545.0" y="113.0"/>
      <point x="558.0" y="119.0" type="curve" smooth="yes"/>
      <point x="562.0" y="122.0"/>
      <point x="567.0" y="124.0"/>
      <point x="568.0" y="127.0" type="curve" smooth="yes"/>
      <point x="599.0" y="158.0"/>
      <point x="633.0" y="191.0"/>
      <point x="664.0" y="222.0" type="curve"/>
      <point x="665.0" y="211.0"/>
      <point x="668.0" y="200.0"/>
      <point x="671.0" y="192.0" type="curve"/>
      <point x="599.0" y="126.0"/>
      <point x="528.0" y="60.0"/>
      <point x="456.0" y="-8.0" type="curve"/>
      <point x="440.0" y="-2.0"/>
      <point x="417.0" y="11.0"/>
      <point x="396.0" y="32.0" type="curve" smooth="yes"/>
      <point x="353.0" y="77.0"/>
      <point x="349.0" y="132.0"/>
      <point x="349.0" y="149.0" type="curve" smooth="yes"/>
      <point x="346.0" y="229.0"/>
      <point x="350.0" y="307.0"/>
      <point x="351.0" y="402.0" type="curve" smooth="yes"/>
      <point x="351.0" y="457.0"/>
      <point x="355.0" y="498.0"/>
      <point x="337.0" y="517.0" type="curve" smooth="yes"/>
      <point x="327.0" y="527.0"/>
      <point x="316.0" y="533.0"/>
      <point x="307.0" y="537.0" type="curve"/>
      <point x="335.0" y="573.0"/>
      <point x="389.0" y="613.0"/>
      <point x="422.0" y="632.0" type="curve"/>
      <point x="432.0" y="619.0"/>
      <point x="447.0" y="603.0"/>
      <point x="467.0" y="586.0" type="curve" smooth="yes"/>
      <point x="490.0" y="569.0"/>
      <point x="512.0" y="558.0"/>
    </contour>
    <contour>
      <point x="42.0" y="71.0" type="curve" smooth="yes"/>
      <point x="55.0" y="82.0"/>
      <point x="77.0" y="109.0"/>
      <point x="77.0" y="144.0" type="curve" smooth="yes"/>
      <point x="77.0" y="242.0"/>
      <point x="77.0" y="357.0"/>
      <point x="77.0" y="455.0" type="curve" smooth="yes"/>
      <point x="77.0" y="458.0"/>
      <point x="78.0" y="462.0"/>
      <point x="78.0" y="468.0" type="curve" smooth="yes"/>
      <point x="78.0" y="481.0"/>
      <point x="78.0" y="488.0"/>
      <point x="75.0" y="491.0" type="curve" smooth="yes"/>
      <point x="69.0" y="498.0"/>
      <point x="53.0" y="493.0"/>
      <point x="34.0" y="483.0" type="curve"/>
      <point x="30.0" y="490.0"/>
      <point x="23.0" y="497.0"/>
      <point x="19.0" y="503.0" type="curve" smooth="yes"/>
      <point x="20.0" y="517.0"/>
      <point x="25.0" y="535.0"/>
      <point x="35.0" y="555.0" type="curve" smooth="yes"/>
      <point x="56.0" y="599.0"/>
      <point x="90.0" y="629.0"/>
      <point x="108.0" y="628.0" type="curve" smooth="yes"/>
      <point x="148.0" y="625.0"/>
      <point x="175.0" y="619.0"/>
      <point x="188.0" y="601.0" type="curve" smooth="yes"/>
      <point x="209.0" y="571.0"/>
      <point x="219.0" y="526.0"/>
      <point x="219.0" y="496.0" type="curve" smooth="yes"/>
      <point x="219.0" y="488.0"/>
      <point x="217.0" y="479.0"/>
      <point x="217.0" y="475.0" type="curve" smooth="yes"/>
      <point x="217.0" y="377.0"/>
      <point x="217.0" y="264.0"/>
      <point x="217.0" y="164.0" type="curve"/>
      <point x="237.0" y="150.0"/>
      <point x="256.0" y="136.0"/>
      <point x="276.0" y="122.0" type="curve"/>
      <point x="316.0" y="164.0"/>
      <point x="356.0" y="206.0"/>
      <point x="396.0" y="248.0" type="curve"/>
      <point x="400.0" y="242.0"/>
      <point x="406.0" y="223.0"/>
      <point x="400.0" y="216.0" type="curve" smooth="yes"/>
      <point x="331.0" y="144.0"/>
      <point x="264.0" y="71.0"/>
      <point x="195.0" y="-1.0" type="curve"/>
      <point x="181.0" y="-1.0"/>
      <point x="166.0" y="-1.0"/>
      <point x="152.0" y="-1.0" type="curve"/>
      <point x="138.0" y="44.0"/>
      <point x="105.0" y="74.0"/>
      <point x="75.0" y="71.0" type="curve" smooth="yes"/>
      <point x="69.0" y="71.0"/>
      <point x="58.0" y="68.0"/>
      <point x="47.0" y="60.0" type="curve"/>
      <point x="46.0" y="64.0"/>
      <point x="43.0" y="67.0"/>
    </contour>
  </outline>
</glyph>
<glyph name="uni044B" format="2">
  <advance width="783"/>
  <unicode hex="044B"/>
  <outline>
    <contour>
      <point x="631.0" y="624.0" type="line"/>
      <point x="757.0" y="523.0" type="line"/>
      <point x="653.0" y="414.0" type="line"/>
      <point x="516.0" y="520.0" type="line"/>
    </contour>
    <contour>
      <point x="561.0" y="541.0" type="curve"/>
      <point x="577.0" y="541.0"/>
      <point x="632.0" y="607.0"/>
      <point x="653.0" y="591.0" type="curve" smooth="yes"/>
      <point x="679.0" y="571.0"/>
      <point x="687.0" y="546.0"/>
      <point x="689.0" y="526.0" type="curve" smooth="yes"/>
      <point x="696.0" y="461.0"/>
      <point x="698.0" y="324.0"/>
      <point x="691.0" y="148.0" type="curve"/>
      <point x="716.0" y="129.0"/>
      <point x="739.0" y="110.0"/>
      <point x="764.0" y="92.0" type="curve"/>
      <point x="727.0" y="59.0"/>
      <point x="679.0" y="27.0"/>
      <point x="642.0" y="-7.0" type="curve"/>
      <point x="602.0" y="29.0"/>
      <point x="562.0" y="62.0"/>
      <point x="522.0" y="98.0" type="curve"/>
      <point x="531.0" y="104.0"/>
      <point x="544.0" y="113.0"/>
      <point x="551.0" y="127.0" type="curve" smooth="yes"/>
      <point x="561.0" y="146.0"/>
      <point x="561.0" y="162.0"/>
      <point x="561.0" y="169.0" type="curve" smooth="yes"/>
      <point x="561.0" y="205.0"/>
      <point x="561.0" y="389.0"/>
    </contour>
    <component base="uni044C"/>
  </outline>
</glyph>
<glyph name="uni044E" format="2">
  <advance width="783"/>
  <unicode hex="044E"/>
  <outline>
    <contour>
      <point x="172.0" y="373.0" type="line"/>
      <point x="396.0" y="373.0" type="line"/>
      <point x="396.0" y="278.0" type="line"/>
      <point x="172.0" y="278.0" type="line"/>
    </contour>
    <contour>
      <point x="135.0" y="624.0" type="line"/>
      <point x="261.0" y="523.0" type="line"/>
      <point x="156.0" y="414.0" type="line"/>
      <point x="19.0" y="520.0" type="line"/>
    </contour>
    <contour>
      <point x="65.0" y="541.0" type="curve"/>
      <point x="81.0" y="541.0"/>
      <point x="135.0" y="607.0"/>
      <point x="156.0" y="591.0" type="curve" smooth="yes"/>
      <point x="182.0" y="571.0"/>
      <point x="191.0" y="546.0"/>
      <point x="193.0" y="526.0" type="curve" smooth="yes"/>
      <point x="200.0" y="461.0"/>
      <point x="201.0" y="324.0"/>
      <point x="194.0" y="148.0" type="curve"/>
      <point x="219.0" y="129.0"/>
      <point x="242.0" y="110.0"/>
      <point x="267.0" y="92.0" type="curve"/>
      <point x="230.0" y="59.0"/>
      <point x="183.0" y="27.0"/>
      <point x="146.0" y="-7.0" type="curve"/>
      <point x="106.0" y="29.0"/>
      <point x="65.0" y="62.0"/>
      <point x="25.0" y="98.0" type="curve"/>
      <point x="34.0" y="104.0"/>
      <point x="48.0" y="113.0"/>
      <point x="55.0" y="127.0" type="curve" smooth="yes"/>
      <point x="65.0" y="146.0"/>
      <point x="65.0" y="162.0"/>
      <point x="65.0" y="169.0" type="curve" smooth="yes"/>
      <point x="65.0" y="205.0"/>
      <point x="65.0" y="389.0"/>
    </contour>
    <contour>
      <point x="686.0" y="536.0" type="curve" smooth="yes"/>
      <point x="715.0" y="521.0"/>
      <point x="743.0" y="511.0"/>
      <point x="764.0" y="508.0" type="curve"/>
      <point x="764.0" y="372.0"/>
      <point x="764.0" y="237.0"/>
      <point x="764.0" y="101.0" type="curve"/>
      <point x="725.0" y="86.0"/>
      <point x="683.0" y="70.0"/>
      <point x="637.0" y="47.0" type="curve" smooth="yes"/>
      <point x="608.0" y="32.0"/>
      <point x="610.0" y="16.0"/>
      <point x="586.0" y="1.0" type="curve"/>
      <point x="568.0" y="19.0"/>
      <point x="509.0" y="42.0"/>
      <point x="468.0" y="58.0" type="curve" smooth="yes"/>
      <point x="404.0" y="84.0"/>
      <point x="348.0" y="81.0"/>
      <point x="319.0" y="78.0" type="curve"/>
      <point x="319.0" y="86.0"/>
      <point x="319.0" y="96.0"/>
      <point x="319.0" y="104.0" type="curve"/>
      <point x="321.0" y="104.0"/>
      <point x="334.0" y="102.0"/>
      <point x="344.0" y="112.0" type="curve" smooth="yes"/>
      <point x="354.0" y="122.0"/>
      <point x="352.0" y="135.0"/>
      <point x="352.0" y="137.0" type="curve" smooth="yes"/>
      <point x="352.0" y="257.0"/>
      <point x="352.0" y="377.0"/>
      <point x="352.0" y="497.0" type="curve"/>
      <point x="381.0" y="505.0"/>
      <point x="430.0" y="521.0"/>
      <point x="479.0" y="559.0" type="curve" smooth="yes"/>
      <point x="518.0" y="588.0"/>
      <point x="544.0" y="623.0"/>
      <point x="559.0" y="646.0" type="curve"/>
      <point x="582.0" y="617.0"/>
      <point x="622.0" y="570.0"/>
    </contour>
    <contour>
      <point x="631.0" y="127.0" type="curve" smooth="yes"/>
      <point x="631.0" y="227.0"/>
      <point x="627.0" y="316.0"/>
      <point x="627.0" y="418.0" type="curve"/>
      <point x="593.0" y="447.0"/>
      <point x="558.0" y="479.0"/>
      <point x="525.0" y="507.0" type="curve"/>
      <point x="515.0" y="500.0"/>
      <point x="504.0" y="492.0"/>
      <point x="494.0" y="485.0" type="curve"/>
      <point x="494.0" y="383.0"/>
      <point x="494.0" y="280.0"/>
      <point x="494.0" y="178.0" type="curve"/>
      <point x="525.0" y="171.0"/>
      <point x="549.0" y="163.0"/>
      <point x="565.0" y="156.0" type="curve" smooth="yes"/>
      <point x="594.0" y="145.0"/>
      <point x="631.0" y="125.0"/>
    </contour>
  </outline>
</glyph>
<glyph name="uni2010" format="2">
  <advance width="388"/>
  <unicode hex="2010"/>
  <outline>
    <contour>
      <point x="77.0" y="355.0" type="line"/>
      <point x="49.0" y="394.0" type="line"/>
      <point x="320.0" y="594.0" type="line"/>
      <point x="348.0" y="555.0" type="line"/>
    </contour>
    <contour>
      <point x="76.0" y="111.0" type="line"/>
      <point x="48.0" y="149.0" type="line"/>
      <point x="319.0" y="349.0" type="line"/>
      <point x="348.0" y="311.0" type="line"/>
    </contour>
  </outline>
</glyph>
<glyph name="endash" format="2">
  <advance width="500"/>
  <unicode hex="2013"/>
  <outline>
    <contour>
      <point x="13.0" y="350.0" type="line"/>
      <point x="488.0" y="350.0" type="line"/>
      <point x="488.0" y="274.0" type="line"/>
      <point x="13.0" y="274.0" type="line"/>
    </contour>
  </outline>
</glyph>
<glyph name="uni2076" format="2">
  <advance height="400" width="412"/>
  <unicode hex="2076"/>
  <outline>
    <contour>
      <point x="212.0" y="809.0" type="curve" smooth="yes"/>
      <point x="227.0" y="818.0"/>
      <point x="320.0" y="870.0"/>
      <point x="351.0" y="840.0" type="curve" smooth="yes"/>
      <point x="360.0" y="831.0"/>
      <point x="363.0" y="817.0"/>
      <point x="360.0" y="806.0" type="curve" smooth="yes"/>
      <point x="355.0" y="784.0"/>
      <point x="327.0" y="775.0"/>
      <point x="304.0" y="765.0" type="curve"/>
      <point x="304.0" y="765.0"/>
      <point x="237.0" y="735.0"/>
      <point x="189.0" y="678.0" type="curve" smooth="yes"/>
      <point x="175.0" y="662.0"/>
      <point x="139.0" y="615.0"/>
      <point x="140.0" y="552.0" type="curve" smooth="yes"/>
      <point x="140.0" y="530.0"/>
      <point x="142.0" y="497.0"/>
      <point x="167.0" y="480.0" type="curve" smooth="yes"/>
      <point x="188.0" y="466.0"/>
      <point x="222.0" y="464.0"/>
      <point x="245.0" y="485.0" type="curve" smooth="yes"/>
      <point x="267.0" y="505.0"/>
      <point x="269.0" y="538.0"/>
      <point x="258.0" y="561.0" type="curve" smooth="yes"/>
      <point x="243.0" y="592.0"/>
      <point x="206.0" y="603.0"/>
      <point x="181.0" y="597.0" type="curve" smooth="yes"/>
      <point x="150.0" y="589.0"/>
      <point x="139.0" y="555.0"/>
      <point x="128.0" y="559.0" type="curve" smooth="yes"/>
      <point x="118.0" y="563.0"/>
      <point x="115.0" y="596.0"/>
      <point x="129.0" y="619.0" type="curve" smooth="yes"/>
      <point x="157.0" y="666.0"/>
      <point x="260.0" y="682.0"/>
      <point x="325.0" y="633.0" type="curve" smooth="yes"/>
      <point x="360.0" y="607.0"/>
      <point x="393.0" y="555.0"/>
      <point x="381.0" y="502.0" type="curve" smooth="yes"/>
      <point x="366.0" y="439.0"/>
      <point x="297.0" y="416.0"/>
      <point x="268.0" y="406.0" type="curve" smooth="yes"/>
      <point x="249.0" y="400.0"/>
      <point x="169.0" y="373.0"/>
      <point x="98.0" y="421.0" type="curve" smooth="yes"/>
      <point x="91.0" y="426.0"/>
      <point x="33.0" y="466.0"/>
      <point x="24.0" y="538.0" type="curve" smooth="yes"/>
      <point x="17.0" y="594.0"/>
      <point x="44.0" y="635.0"/>
      <point x="78.0" y="686.0" type="curve" smooth="yes"/>
      <point x="98.0" y="716.0"/>
      <point x="141.0" y="770.0"/>
    </contour>
  </outline>
</glyph>
<glyph name="uni2077" format="2">
  <advance height="400" width="571"/>
  <unicode hex="2077"/>
  <outline>
    <contour>
      <point x="21.0" y="631.0" type="line"/>
      <point x="114.0" y="828.0" type="line"/>
      <point x="115.0" y="829.0" type="line"/>
      <point x="117.0" y="829.0" type="line"/>
      <point x="117.0" y="829.0"/>
      <point x="414.0" y="828.0"/>
      <point x="441.0" y="834.0" type="curve" smooth="yes"/>
      <point x="468.0" y="841.0"/>
      <point x="508.0" y="861.0"/>
      <point x="508.0" y="861.0" type="curve"/>
      <point x="510.0" y="862.0" type="line"/>
      <point x="511.0" y="860.0" type="line"/>
      <point x="511.0" y="860.0"/>
      <point x="560.0" y="818.0"/>
      <point x="548.0" y="799.0" type="curve" smooth="yes"/>
      <point x="431.0" y="615.0"/>
      <point x="365.0" y="436.0"/>
      <point x="304.0" y="295.0" type="curve" smooth="yes"/>
      <point x="299.0" y="283.0"/>
      <point x="275.0" y="279.0"/>
      <point x="258.0" y="281.0" type="curve" smooth="yes"/>
      <point x="246.0" y="282.0"/>
      <point x="234.0" y="287.0"/>
      <point x="235.0" y="298.0" type="curve" smooth="yes"/>
      <point x="241.0" y="355.0"/>
      <point x="396.0" y="687.0"/>
      <point x="420.0" y="738.0" type="curve"/>
      <point x="396.0" y="730.0"/>
      <point x="322.0" y="705.0"/>
      <point x="270.0" y="705.0" type="curve" smooth="yes"/>
      <point x="214.0" y="704.0"/>
      <point x="145.0" y="709.0"/>
      <point x="132.0" y="710.0" type="curve"/>
      <point x="93.0" y="629.0" type="line"/>
      <point x="93.0" y="627.0" type="line"/>
      <point x="91.0" y="627.0" type="line"/>
      <point x="24.0" y="626.0" type="line"/>
      <point x="19.0" y="626.0" type="line"/>
    </contour>
  </outline>
</glyph>
<glyph name="uni2078" format="2">
  <advance height="400" width="409"/>
  <unicode hex="2078"/>
  <outline>
    <contour>
      <point x="280.0" y="603.0" type="line" smooth="yes"/>
      <point x="350.0" y="562.0"/>
      <point x="391.0" y="502.0"/>
      <point x="382.0" y="451.0" type="curve" smooth="yes"/>
      <point x="378.0" y="428.0"/>
      <point x="365.0" y="413.0"/>
      <point x="354.0" y="399.0" type="curve" smooth="yes"/>
      <point x="307.0" y="340.0"/>
      <point x="236.0" y="329.0"/>
      <point x="215.0" y="326.0" type="curve" smooth="yes"/>
      <point x="180.0" y="321.0"/>
      <point x="114.0" y="313.0"/>
      <point x="69.0" y="356.0" type="curve" smooth="yes"/>
      <point x="48.0" y="377.0"/>
      <point x="26.0" y="415.0"/>
      <point x="34.0" y="451.0" type="curve" smooth="yes"/>
      <point x="39.0" y="475.0"/>
      <point x="62.0" y="493.0"/>
      <point x="107.0" y="532.0" type="curve" smooth="yes"/>
      <point x="127.0" y="549.0"/>
      <point x="144.0" y="562.0"/>
      <point x="156.0" y="571.0" type="curve" smooth="yes"/>
      <point x="158.0" y="572.0" type="line"/>
      <point x="156.0" y="573.0" type="line" smooth="yes"/>
      <point x="148.0" y="578.0"/>
      <point x="137.0" y="586.0"/>
      <point x="124.0" y="596.0" type="curve" smooth="yes"/>
      <point x="97.0" y="617.0"/>
      <point x="55.0" y="649.0"/>
      <point x="47.0" y="682.0" type="curve" smooth="yes"/>
      <point x="32.0" y="740.0"/>
      <point x="109.0" y="830.0"/>
      <point x="199.0" y="846.0" type="curve" smooth="yes"/>
      <point x="205.0" y="847.0"/>
      <point x="295.0" y="861.0"/>
      <point x="349.0" y="800.0" type="curve" smooth="yes"/>
      <point x="372.0" y="774.0"/>
      <point x="395.0" y="726.0"/>
      <point x="379.0" y="690.0" type="curve" smooth="yes"/>
      <point x="372.0" y="675.0"/>
      <point x="356.0" y="663.0"/>
      <point x="324.0" y="637.0" type="curve" smooth="yes"/>
      <point x="306.0" y="623.0"/>
      <point x="291.0" y="612.0"/>
      <point x="280.0" y="605.0" type="curve" smooth="yes"/>
      <point x="278.0" y="604.0" type="line"/>
    </contour>
    <contour>
      <point x="152.0" y="748.0" type="curve" smooth="yes"/>
      <point x="147.0" y="740.0"/>
      <point x="147.0" y="732.0"/>
      <point x="147.0" y="728.0" type="curve" smooth="yes"/>
      <point x="147.0" y="697.0"/>
      <point x="178.0" y="668.0"/>
      <point x="210.0" y="663.0" type="curve" smooth="yes"/>
      <point x="217.0" y="662.0"/>
      <point x="237.0" y="659.0"/>
      <point x="251.0" y="671.0" type="curve" smooth="yes"/>
      <point x="273.0" y="690.0"/>
      <point x="273.0" y="736.0"/>
      <point x="247.0" y="759.0" type="curve" smooth="yes"/>
      <point x="244.0" y="761.0"/>
      <point x="242.0" y="764.0"/>
      <point x="239.0" y="766.0" type="curve" smooth="yes"/>
      <point x="210.0" y="784.0"/>
      <point x="166.0" y="771.0"/>
    </contour>
    <contour>
      <point x="256.0" y="426.0" type="curve" smooth="yes"/>
      <point x="276.0" y="452.0"/>
      <point x="259.0" y="499.0"/>
      <point x="230.0" y="517.0" type="curve" smooth="yes"/>
      <point x="227.0" y="519.0"/>
      <point x="212.0" y="527.0"/>
      <point x="191.0" y="525.0" type="curve" smooth="yes"/>
      <point x="172.0" y="523.0"/>
      <point x="140.0" y="489.0"/>
      <point x="141.0" y="470.0" type="curve" smooth="yes"/>
      <point x="142.0" y="450.0"/>
      <point x="152.0" y="436.0"/>
      <point x="156.0" y="432.0" type="curve" smooth="yes"/>
      <point x="158.0" y="430.0"/>
      <point x="160.0" y="427.0"/>
      <point x="163.0" y="425.0" type="curve" smooth="yes"/>
      <point x="190.0" y="405.0"/>
      <point x="236.0" y="400.0"/>
    </contour>
  </outline>
</glyph>
<glyph name="uni2080" format="2">
  <advance width="409"/>
  <unicode hex="2080"/>
  <outline>
    <contour>
      <point x="198.0" y="395.0" type="curve" smooth="yes"/>
      <point x="305.0" y="395.0"/>
      <point x="392.0" y="315.0"/>
      <point x="392.0" y="216.0" type="curve" smooth="yes"/>
      <point x="392.0" y="117.0"/>
      <point x="305.0" y="36.0"/>
      <point x="198.0" y="36.0" type="curve" smooth="yes"/>
      <point x="91.0" y="36.0"/>
      <point x="3.0" y="117.0"/>
      <point x="3.0" y="216.0" type="curve" smooth="yes"/>
      <point x="3.0" y="315.0"/>
      <point x="91.0" y="395.0"/>
    </contour>
    <contour>
      <point x="177.0" y="129.0" type="curve" smooth="yes"/>
      <point x="233.0" y="129.0"/>
      <point x="278.0" y="172.0"/>
      <point x="278.0" y="224.0" type="curve" smooth="yes"/>
      <point x="278.0" y="276.0"/>
      <point x="233.0" y="319.0"/>
      <point x="177.0" y="319.0" type="curve" smooth="yes"/>
      <point x="121.0" y="319.0"/>
      <point x="76.0" y="276.0"/>
      <point x="76.0" y="224.0" type="curve" smooth="yes"/>
      <point x="76.0" y="172.0"/>
      <point x="121.0" y="129.0"/>
    </contour>
  </outline>
</glyph>
<glyph name="uni2081" format="2">
  <advance width="265"/>
  <unicode hex="2081"/>
  <outline>
    <contour>
      <point x="147.0" y="426.0" type="line"/>
      <point x="180.0" y="425.0"/>
      <point x="214.0" y="432.0"/>
      <point x="233.0" y="413.0" type="curve" smooth="yes"/>
      <point x="242.0" y="404.0"/>
      <point x="248.0" y="387.0"/>
      <point x="240.0" y="373.0" type="curve" smooth="yes"/>
      <point x="234.0" y="361.0"/>
      <point x="220.0" y="358.0"/>
      <point x="210.0" y="349.0" type="curve" smooth="yes"/>
      <point x="196.0" y="337.0"/>
      <point x="192.0" y="313.0"/>
      <point x="192.0" y="290.0" type="curve" smooth="yes"/>
      <point x="192.0" y="232.0"/>
      <point x="192.0" y="175.0"/>
      <point x="192.0" y="117.0" type="curve" smooth="yes"/>
      <point x="189.0" y="90.0"/>
      <point x="199.0" y="74.0"/>
      <point x="212.0" y="60.0" type="curve" smooth="yes"/>
      <point x="220.0" y="51.0"/>
      <point x="240.0" y="37.0"/>
      <point x="234.0" y="18.0" type="curve" smooth="yes"/>
      <point x="229.0" y="2.0"/>
      <point x="209.0" y="5.0"/>
      <point x="189.0" y="5.0" type="curve" smooth="yes"/>
      <point x="144.0" y="5.0"/>
      <point x="97.0" y="5.0"/>
      <point x="52.0" y="5.0" type="curve" smooth="yes"/>
      <point x="31.0" y="5.0"/>
      <point x="22.0" y="22.0"/>
      <point x="32.0" y="40.0" type="curve" smooth="yes"/>
      <point x="43.0" y="61.0"/>
      <point x="69.0" y="62.0"/>
      <point x="69.0" y="95.0" type="curve" smooth="yes"/>
      <point x="69.0" y="312.0" type="line" smooth="yes"/>
      <point x="69.0" y="331.0"/>
      <point x="64.0" y="344.0"/>
      <point x="56.0" y="356.0" type="curve" smooth="yes"/>
      <point x="46.0" y="371.0"/>
      <point x="21.0" y="397.0"/>
      <point x="41.0" y="418.0" type="curve" smooth="yes"/>
      <point x="46.0" y="423.0"/>
      <point x="54.0" y="426.0"/>
      <point x="61.0" y="426.0" type="curve" smooth="yes"/>
      <point x="102.0" y="425.0" type="line"/>
    </contour>
  </outline>
</glyph>
<glyph name="uni2082" format="2">
  <advance width="447"/>
  <unicode hex="2082"/>
  <outline>
    <contour>
      <point x="21.0" y="338.0" type="curve" smooth="yes"/>
      <point x="25.0" y="353.0"/>
      <point x="35.0" y="366.0"/>
      <point x="46.0" y="377.0" type="curve" smooth="yes"/>
      <point x="63.0" y="394.0"/>
      <point x="84.0" y="405.0"/>
      <point x="107.0" y="413.0" type="curve" smooth="yes"/>
      <point x="142.0" y="425.0"/>
      <point x="179.0" y="431.0"/>
      <point x="216.0" y="426.0" type="curve" smooth="yes"/>
      <point x="234.0" y="424.0"/>
      <point x="252.0" y="418.0"/>
      <point x="267.0" y="409.0" type="curve" smooth="yes"/>
      <point x="282.0" y="400.0"/>
      <point x="295.0" y="386.0"/>
      <point x="303.0" y="370.0" type="curve" smooth="yes"/>
      <point x="310.0" y="355.0"/>
      <point x="313.0" y="338.0"/>
      <point x="312.0" y="321.0" type="curve" smooth="yes"/>
      <point x="311.0" y="304.0"/>
      <point x="307.0" y="289.0"/>
      <point x="300.0" y="273.0" type="curve" smooth="yes"/>
      <point x="285.0" y="239.0"/>
      <point x="262.0" y="207.0"/>
      <point x="238.0" y="178.0" type="curve" smooth="yes"/>
      <point x="218.0" y="154.0"/>
      <point x="198.0" y="131.0"/>
      <point x="176.0" y="108.0" type="curve" smooth="yes"/>
      <point x="173.0" y="104.0" type="line"/>
      <point x="178.0" y="104.0" type="line"/>
      <point x="312.0" y="101.0" type="line"/>
      <point x="313.0" y="101.0" type="line"/>
      <point x="314.0" y="101.0" type="line"/>
      <point x="409.0" y="169.0" type="line"/>
      <point x="450.0" y="115.0" type="line"/>
      <point x="308.0" y="-6.0" type="line"/>
      <point x="59.0" y="15.0" type="line" smooth="yes"/>
      <point x="55.0" y="15.0"/>
      <point x="51.0" y="16.0"/>
      <point x="48.0" y="17.0" type="curve" smooth="yes"/>
      <point x="45.0" y="18.0"/>
      <point x="41.0" y="20.0"/>
      <point x="39.0" y="23.0" type="curve" smooth="yes"/>
      <point x="37.0" y="26.0"/>
      <point x="35.0" y="29.0"/>
      <point x="35.0" y="33.0" type="curve" smooth="yes"/>
      <point x="35.0" y="37.0"/>
      <point x="35.0" y="40.0"/>
      <point x="36.0" y="44.0" type="curve" smooth="yes"/>
      <point x="39.0" y="53.0"/>
      <point x="46.0" y="60.0"/>
      <point x="53.0" y="67.0" type="curve" smooth="yes"/>
      <point x="60.0" y="74.0"/>
      <point x="67.0" y="80.0"/>
      <point x="75.0" y="86.0" type="curve" smooth="yes"/>
      <point x="102.0" y="107.0"/>
      <point x="131.0" y="128.0"/>
      <point x="151.0" y="156.0" type="curve" smooth="yes"/>
      <point x="163.0" y="173.0"/>
      <point x="172.0" y="191.0"/>
      <point x="177.0" y="211.0" type="curve" smooth="yes"/>
      <point x="182.0" y="231.0"/>
      <point x="184.0" y="252.0"/>
      <point x="177.0" y="272.0" type="curve" smooth="yes"/>
      <point x="173.0" y="284.0"/>
      <point x="166.0" y="295.0"/>
      <point x="155.0" y="302.0" type="curve" smooth="yes"/>
      <point x="144.0" y="309.0"/>
      <point x="132.0" y="312.0"/>
      <point x="119.0" y="310.0" type="curve" smooth="yes"/>
      <point x="111.0" y="309.0"/>
      <point x="103.0" y="306.0"/>
      <point x="96.0" y="303.0" type="curve" smooth="yes"/>
      <point x="89.0" y="300.0"/>
      <point x="82.0" y="295.0"/>
      <point x="75.0" y="292.0" type="curve" smooth="yes"/>
      <point x="68.0" y="289.0"/>
      <point x="61.0" y="287.0"/>
      <point x="54.0" y="287.0" type="curve" smooth="yes"/>
      <point x="47.0" y="287.0"/>
      <point x="39.0" y="289.0"/>
      <point x="33.0" y="293.0" type="curve" smooth="yes"/>
      <point x="26.0" y="298.0"/>
      <point x="22.0" y="305.0"/>
      <point x="20.0" y="313.0" type="curve" smooth="yes"/>
      <point x="18.0" y="321.0"/>
      <point x="19.0" y="330.0"/>
    </contour>
  </outline>
</glyph>
<glyph name="uni2085" format="2">
  <advance width="345"/>
  <unicode hex="2085"/>
  <outline>
    <contour>
      <point x="2.0" y="249.0" type="curve"/>
      <point x="26.0" y="235.0"/>
      <point x="50.0" y="220.0"/>
      <point x="74.0" y="206.0" type="curve" smooth="yes"/>
      <point x="102.0" y="190.0"/>
      <point x="130.0" y="175.0"/>
      <point x="156.0" y="156.0" type="curve" smooth="yes"/>
      <point x="163.0" y="151.0"/>
      <point x="169.0" y="145.0"/>
      <point x="175.0" y="138.0" type="curve" smooth="yes"/>
      <point x="181.0" y="131.0"/>
      <point x="185.0" y="124.0"/>
      <point x="187.0" y="115.0" type="curve" smooth="yes"/>
      <point x="191.0" y="100.0"/>
      <point x="190.0" y="83.0"/>
      <point x="184.0" y="69.0" type="curve" smooth="yes"/>
      <point x="178.0" y="55.0"/>
      <point x="170.0" y="42.0"/>
      <point x="161.0" y="29.0" type="curve" smooth="yes"/>
      <point x="145.0" y="5.0"/>
      <point x="127.0" y="-19.0"/>
      <point x="109.0" y="-42.0" type="curve" smooth="yes"/>
      <point x="102.0" y="-51.0"/>
      <point x="95.0" y="-61.0"/>
      <point x="93.0" y="-73.0" type="curve" smooth="yes"/>
      <point x="92.0" y="-79.0"/>
      <point x="91.0" y="-85.0"/>
      <point x="93.0" y="-91.0" type="curve" smooth="yes"/>
      <point x="95.0" y="-97.0"/>
      <point x="98.0" y="-101.0"/>
      <point x="103.0" y="-105.0" type="curve" smooth="yes"/>
      <point x="109.0" y="-110.0"/>
      <point x="116.0" y="-112.0"/>
      <point x="124.0" y="-112.0" type="curve" smooth="yes"/>
      <point x="132.0" y="-112.0"/>
      <point x="139.0" y="-109.0"/>
      <point x="146.0" y="-105.0" type="curve" smooth="yes"/>
      <point x="160.0" y="-97.0"/>
      <point x="170.0" y="-86.0"/>
      <point x="181.0" y="-75.0" type="curve" smooth="yes"/>
      <point x="192.0" y="-64.0"/>
      <point x="203.0" y="-52.0"/>
      <point x="213.0" y="-40.0" type="curve" smooth="yes"/>
      <point x="242.0" y="-6.0"/>
      <point x="270.0" y="29.0"/>
      <point x="287.0" y="70.0" type="curve" smooth="yes"/>
      <point x="295.0" y="89.0"/>
      <point x="301.0" y="110.0"/>
      <point x="302.0" y="130.0" type="curve" smooth="yes"/>
      <point x="303.0" y="150.0"/>
      <point x="299.0" y="171.0"/>
      <point x="291.0" y="190.0" type="curve" smooth="yes"/>
      <point x="283.0" y="208.0"/>
      <point x="272.0" y="223.0"/>
      <point x="258.0" y="237.0" type="curve" smooth="yes"/>
      <point x="244.0" y="251.0"/>
      <point x="228.0" y="262.0"/>
      <point x="211.0" y="272.0" type="curve" smooth="yes"/>
      <point x="181.0" y="289.0"/>
      <point x="149.0" y="303.0"/>
      <point x="117.0" y="314.0" type="curve"/>
      <point x="133.0" y="338.0" type="line"/>
      <point x="233.0" y="338.0" type="line" smooth="yes"/>
      <point x="245.0" y="338.0"/>
      <point x="258.0" y="338.0"/>
      <point x="269.0" y="342.0" type="curve" smooth="yes"/>
      <point x="281.0" y="346.0"/>
      <point x="290.0" y="354.0"/>
      <point x="298.0" y="364.0" type="curve" smooth="yes"/>
      <point x="306.0" y="374.0"/>
      <point x="311.0" y="385.0"/>
      <point x="317.0" y="396.0" type="curve" smooth="yes"/>
      <point x="322.0" y="406.0"/>
      <point x="327.0" y="415.0"/>
      <point x="331.0" y="425.0" type="curve" smooth="yes"/>
      <point x="335.0" y="435.0"/>
      <point x="337.0" y="445.0"/>
      <point x="336.0" y="456.0" type="curve" smooth="yes"/>
      <point x="335.0" y="467.0"/>
      <point x="329.0" y="477.0"/>
      <point x="321.0" y="484.0" type="curve" smooth="yes"/>
      <point x="317.0" y="487.0"/>
      <point x="312.0" y="489.0"/>
      <point x="307.0" y="491.0" type="curve" smooth="yes"/>
      <point x="302.0" y="493.0"/>
      <point x="296.0" y="494.0"/>
      <point x="291.0" y="495.0" type="curve" smooth="yes"/>
      <point x="259.0" y="500.0" type="line"/>
      <point x="222.0" y="437.0" type="line"/>
      <point x="172.0" y="437.0" type="line"/>
      <point x="102.0" y="437.0" type="line"/>
      <point x="90.0" y="420.0"/>
      <point x="78.0" y="404.0"/>
      <point x="67.0" y="387.0" type="curve" smooth="yes"/>
      <point x="53.0" y="365.0"/>
      <point x="40.0" y="342.0"/>
      <point x="29.0" y="319.0" type="curve" smooth="yes"/>
      <point x="18.0" y="297.0"/>
      <point x="9.0" y="273.0"/>
    </contour>
  </outline>
</glyph>
